<?xml version="1.0" encoding="UTF-8" standalone="no"?>
<!DOCTYPE svg PUBLIC "-//W3C//DTD SVG 1.1//EN" "http://www.w3.org/Graphics/SVG/1.1/DTD/svg11.dtd"
[
<!ATTLIST g
  xmlns:vectornator CDATA #FIXED "http://vectornator.io"
  vectornator:layerName CDATA #IMPLIED >
<!ATTLIST g
  xmlns:vectornator CDATA #FIXED "http://vectornator.io"
  vectornator:mask CDATA #IMPLIED >
<!ATTLIST text
  xmlns:vectornator CDATA #FIXED "http://vectornator.io"
  vectornator:width CDATA #IMPLIED >
<!ATTLIST text
  xmlns:vectornator CDATA #FIXED "http://vectornator.io"
  vectornator:text CDATA #IMPLIED >

<!ATTLIST path
  xmlns:vectornator CDATA #FIXED "http://vectornator.io"
  vectornator:blendMode CDATA #IMPLIED >
<!ATTLIST path
  xmlns:vectornator CDATA #FIXED "http://vectornator.io"
  vectornator:shadowColor CDATA #IMPLIED >
<!ATTLIST path
  xmlns:vectornator CDATA #FIXED "http://vectornator.io"
  vectornator:shadowOpacity CDATA #IMPLIED >
<!ATTLIST path
  xmlns:vectornator CDATA #FIXED "http://vectornator.io"
  vectornator:shadowRadius CDATA #IMPLIED >
<!ATTLIST path
  xmlns:vectornator CDATA #FIXED "http://vectornator.io"
  vectornator:shadowOffset CDATA #IMPLIED >
<!ATTLIST path
  xmlns:vectornator CDATA #FIXED "http://vectornator.io"
  vectornator:shadowAngle CDATA #IMPLIED >

<!ATTLIST image
  xmlns:vectornator CDATA #FIXED "http://vectornator.io"
  vectornator:blendMode CDATA #IMPLIED >
<!ATTLIST image
  xmlns:vectornator CDATA #FIXED "http://vectornator.io"
  vectornator:shadowColor CDATA #IMPLIED >
<!ATTLIST image
  xmlns:vectornator CDATA #FIXED "http://vectornator.io"
  vectornator:shadowOpacity CDATA #IMPLIED >
<!ATTLIST image
  xmlns:vectornator CDATA #FIXED "http://vectornator.io"
  vectornator:shadowRadius CDATA #IMPLIED >
<!ATTLIST image
  xmlns:vectornator CDATA #FIXED "http://vectornator.io"
  vectornator:shadowOffset CDATA #IMPLIED >
<!ATTLIST image
  xmlns:vectornator CDATA #FIXED "http://vectornator.io"
  vectornator:shadowAngle CDATA #IMPLIED >

<!ATTLIST g
  xmlns:vectornator CDATA #FIXED "http://vectornator.io"
  vectornator:blendMode CDATA #IMPLIED >
<!ATTLIST g
  xmlns:vectornator CDATA #FIXED "http://vectornator.io"
  vectornator:shadowColor CDATA #IMPLIED >
<!ATTLIST g
  xmlns:vectornator CDATA #FIXED "http://vectornator.io"
  vectornator:shadowOpacity CDATA #IMPLIED >
<!ATTLIST g
  xmlns:vectornator CDATA #FIXED "http://vectornator.io"
  vectornator:shadowRadius CDATA #IMPLIED >
<!ATTLIST g
  xmlns:vectornator CDATA #FIXED "http://vectornator.io"
  vectornator:shadowOffset CDATA #IMPLIED >
<!ATTLIST g
  xmlns:vectornator CDATA #FIXED "http://vectornator.io"
  vectornator:shadowAngle CDATA #IMPLIED >

<!ENTITY % SVG.filter.extra.content  "| feDropShadow" >
<!ELEMENT feDropShadow EMPTY>
<!ATTLIST feDropShadow
  xmlns:svg CDATA #FIXED "http://www.w3.org/Graphics/SVG/1.1/DTD/svg11.dtd"
  dx CDATA #IMPLIED>
<!ATTLIST feDropShadow
  xmlns:svg CDATA #FIXED "http://www.w3.org/Graphics/SVG/1.1/DTD/svg11.dtd"
  dy CDATA #IMPLIED>
<!ATTLIST feDropShadow
  xmlns:svg CDATA #FIXED "http://www.w3.org/Graphics/SVG/1.1/DTD/svg11.dtd"
  stdDeviation CDATA #IMPLIED>
<!ATTLIST feDropShadow
  xmlns:svg CDATA #FIXED "http://www.w3.org/Graphics/SVG/1.1/DTD/svg11.dtd"
  flood-opacity CDATA #IMPLIED>
<!ATTLIST feDropShadow
  xmlns:svg CDATA #FIXED "http://www.w3.org/Graphics/SVG/1.1/DTD/svg11.dtd"
  in CDATA #IMPLIED>
<!ATTLIST feDropShadow
  xmlns:svg CDATA #FIXED "http://www.w3.org/Graphics/SVG/1.1/DTD/svg11.dtd"
  result CDATA #IMPLIED>
<!ATTLIST feDropShadow
  xmlns:svg CDATA #FIXED "http://www.w3.org/Graphics/SVG/1.1/DTD/svg11.dtd"
  flood-color CDATA #IMPLIED>
]
>
<!-- Created with Vectornator (http://vectornator.io/) -->
<svg height="100%" stroke-miterlimit="10" style="fill-rule:nonzero;clip-rule:evenodd;stroke-linecap:round;stroke-linejoin:round;" version="1.1" viewBox="0 0 3370.82 2384.24" width="100%" xml:space="preserve" xmlns="http://www.w3.org/2000/svg" xmlns:vectornator="http://vectornator.io" xmlns:xlink="http://www.w3.org/1999/xlink">
<defs/>
<g id="Capa-2" vectornator:layerName="Capa 2">
<path d="M1122.99 470.728L1122.99 470.728C1282.62 470.728 1412.03 600.723 1412.03 761.08L1412.03 773.209C1412.03 933.566 1282.62 1063.56 1122.99 1063.56L1122.99 1063.56C963.364 1063.56 833.959 933.566 833.959 773.209L833.959 761.08C833.959 600.723 963.364 470.728 1122.99 470.728Z" fill="#bdbdbd" fill-rule="evenodd" opacity="1" stroke="none"/>
<path d="M2353.46 241.518L2368.42 241.518C2563.99 241.518 2722.54 400.023 2722.54 595.547L2722.54 595.547C2722.54 791.072 2563.99 949.576 2368.42 949.576L2353.46 949.576C2157.89 949.576 1999.34 791.072 1999.34 595.547L1999.34 595.547C1999.34 400.023 2157.89 241.518 2353.46 241.518Z" fill="#bdbdbd" fill-rule="evenodd" opacity="1" stroke="none"/>
<path d="M1399.98 1035.32C1346.47 1031.35 1182.23 1104.59 1130.45 1108.93C1018.63 1118.29 924.473 1003.79 830.26 1081.23C748.457 1148.46 715.561 1388.76 721.45 1483.42C728.825 1601.95 787.301 1819.19 955.091 1932.25C1048.65 1995.29 1564.84 2131.64 1585.3 1961.03C1598.38 1852.04 1480.36 1850.15 1349.1 1839.4C1348.64 1840.11 1348.38 1840.57 1347.86 1841.36C1344.79 1846.04 1340.58 1852.23 1335.64 1859.31C1326.92 1871.82 1316.97 1885.66 1314.44 1888.82C1302.77 1903.33 1283.69 1918.78 1263.29 1930.55C1239.63 1944.19 1216.19 1952.03 1195.56 1950.87C1180.74 1950.04 1167.63 1945.61 1156.48 1938.54C1139.11 1930.99 1126.18 1916.23 1118.23 1897.07C1110.83 1879.24 1107.86 1857.85 1109.19 1836.41C1110.36 1817.56 1114.99 1799.58 1122.54 1784.46C1002.84 1714.46 900.025 1603.52 908.003 1531.39C922.138 1403.6 1053.22 1733.73 1163.83 1667.06C1200.67 1644.85 1333.01 1468.5 1358.18 1434.78C1402.57 1375.33 1444.12 1371.06 1411.38 1216.89C1398.38 1155.65 1446.43 1093.98 1415.49 1042.18C1413.02 1038.04 1407.63 1035.88 1399.98 1035.32Z" fill="#bdbdbd" fill-rule="evenodd" opacity="1" stroke="none"/>
<path d="M2633.25 917.656C2595.9 916.261 2572.58 1004.86 2388.72 1029.13C2277.92 1043.75 2068.67 911.914 2010.07 952.474C1974.41 977.153 2046.39 1020.11 2066.19 1107.95C2085.99 1195.78 2018.87 1276 2037.54 1313.51C2080.51 1399.84 2179.65 1447.01 2240.11 1492.35C2286.93 1527.45 2367.3 1662.84 2432.47 1642.4C2494.22 1623.03 2512.97 1558.76 2524.69 1537.27C2546.48 1497.34 2588.37 1480.56 2591.04 1509.88C2600.41 1612.97 2539.84 1684.28 2452.08 1735.41C2466.13 1756.24 2471.21 1779 2468.98 1799.89C2469.71 1802.85 2470.38 1805.81 2470.78 1808.76C2476 1848.11 2450.62 1877.9 2404.74 1884.48C2400.42 1885.1 2396 1885.35 2391.49 1885.26C2374.11 1884.9 2355.36 1879.29 2336.19 1869.73C2306.41 1860.69 2276.88 1842.32 2245.86 1815.77C2235.59 1818.58 2225.31 1821.43 2215.11 1823.98C2121.09 1847.47 1811.69 1754.67 1820.02 1934.11C1827.11 2086.61 2389.82 2112.62 2604.44 1937.92C2727.77 1837.53 2791.07 1632.33 2807.12 1479.97C2816.02 1395.42 2769.83 1059.46 2681.72 954.744C2659.69 928.566 2645.69 918.12 2633.25 917.656Z" fill="#bdbdbd" fill-rule="evenodd" opacity="1" stroke="none"/>
</g>
<g id="Capa-1" vectornator:layerName="Capa 1">
<path d="M1737.25 865.582L1737.25 865.582C1898.18 865.582 2028.64 989.177 2028.64 1141.64L2028.64 1169.95C2028.64 1322.41 1898.18 1446.01 1737.25 1446.01L1737.25 1446.01C1576.32 1446.01 1445.86 1322.41 1445.86 1169.95L1445.86 1141.64C1445.86 989.177 1576.32 865.582 1737.25 865.582Z" fill="#8a8a8a" fill-rule="evenodd" opacity="1" stroke="none"/>
<path d="M1492.05 1365.66C1462.84 1376.61 1045 1796.89 1143.6 1895.93C1283.06 2036.03 1465.34 1580.41 1529.02 1548.42C1554.16 1535.79 1483.2 1671.08 1476.39 1698.47C1472.06 1715.89 1461.64 1779.28 1457.8 1833.78C1461.19 1833.53 1464.64 1833.15 1467.92 1833.16C1481.8 1833.19 1494.81 1835.61 1507.2 1840.12C1529.71 1844.16 1550.79 1852.68 1568.92 1865.55C1593.13 1882.73 1610.26 1906.39 1619.25 1934.21C1674.1 1936.87 1736.99 1938.17 1799.48 1937.61C1799.45 1936.34 1799.32 1935.07 1799.33 1933.8C1799.39 1926.13 1800.6 1918.56 1802.31 1911.15C1802.3 1910.74 1802.21 1910.32 1802.2 1909.91C1802.11 1892.57 1806.72 1878.7 1815.91 1862.2C1816.95 1860.33 1823.3 1849.4 1823.57 1848.94C1837 1825.48 1857.4 1809.45 1882.87 1800.76C1898.7 1795.37 1916.13 1792.91 1935.05 1792.92C1941.35 1792.93 1947.83 1793.2 1954.46 1793.75C1959.13 1794.13 1963.94 1795.03 1968.68 1795.66C1979.62 1793.89 1990.72 1792.8 2002.37 1793.13C2021.74 1793.67 2034.46 1795.64 2070.4 1802.57C2079.01 1804.23 2083.27 1804.77 2089.15 1805.77C2084.38 1781.78 2078.23 1753.46 2067.84 1712.3C2038.52 1596.24 1990.48 1545.49 2004.98 1538.2C2016.92 1532.21 2317.17 1948.16 2428.21 1847.45C2538.04 1747.83 2070.98 1380.4 1998.87 1365.91C1987.17 1363.56 1870.77 1466.7 1750.55 1478.47C1629.85 1490.29 1497.7 1386.47 1493.65 1365.91C1493.54 1365.39 1492.99 1365.3 1492.05 1365.66Z" fill="#8a8a8a" fill-rule="evenodd" opacity="1" stroke="none"/>
</g>
</svg>
