<?xml version="1.0" encoding="UTF-8" standalone="no"?>
<!DOCTYPE svg PUBLIC "-//W3C//DTD SVG 1.1//EN" "http://www.w3.org/Graphics/SVG/1.1/DTD/svg11.dtd"
[
<!ATTLIST g
  xmlns:vectornator CDATA #FIXED "http://vectornator.io"
  vectornator:layerName CDATA #IMPLIED >
<!ATTLIST g
  xmlns:vectornator CDATA #FIXED "http://vectornator.io"
  vectornator:mask CDATA #IMPLIED >
<!ATTLIST text
  xmlns:vectornator CDATA #FIXED "http://vectornator.io"
  vectornator:width CDATA #IMPLIED >
<!ATTLIST text
  xmlns:vectornator CDATA #FIXED "http://vectornator.io"
  vectornator:text CDATA #IMPLIED >

<!ATTLIST path
  xmlns:vectornator CDATA #FIXED "http://vectornator.io"
  vectornator:blendMode CDATA #IMPLIED >
<!ATTLIST path
  xmlns:vectornator CDATA #FIXED "http://vectornator.io"
  vectornator:shadowColor CDATA #IMPLIED >
<!ATTLIST path
  xmlns:vectornator CDATA #FIXED "http://vectornator.io"
  vectornator:shadowOpacity CDATA #IMPLIED >
<!ATTLIST path
  xmlns:vectornator CDATA #FIXED "http://vectornator.io"
  vectornator:shadowRadius CDATA #IMPLIED >
<!ATTLIST path
  xmlns:vectornator CDATA #FIXED "http://vectornator.io"
  vectornator:shadowOffset CDATA #IMPLIED >
<!ATTLIST path
  xmlns:vectornator CDATA #FIXED "http://vectornator.io"
  vectornator:shadowAngle CDATA #IMPLIED >

<!ATTLIST image
  xmlns:vectornator CDATA #FIXED "http://vectornator.io"
  vectornator:blendMode CDATA #IMPLIED >
<!ATTLIST image
  xmlns:vectornator CDATA #FIXED "http://vectornator.io"
  vectornator:shadowColor CDATA #IMPLIED >
<!ATTLIST image
  xmlns:vectornator CDATA #FIXED "http://vectornator.io"
  vectornator:shadowOpacity CDATA #IMPLIED >
<!ATTLIST image
  xmlns:vectornator CDATA #FIXED "http://vectornator.io"
  vectornator:shadowRadius CDATA #IMPLIED >
<!ATTLIST image
  xmlns:vectornator CDATA #FIXED "http://vectornator.io"
  vectornator:shadowOffset CDATA #IMPLIED >
<!ATTLIST image
  xmlns:vectornator CDATA #FIXED "http://vectornator.io"
  vectornator:shadowAngle CDATA #IMPLIED >

<!ATTLIST g
  xmlns:vectornator CDATA #FIXED "http://vectornator.io"
  vectornator:blendMode CDATA #IMPLIED >
<!ATTLIST g
  xmlns:vectornator CDATA #FIXED "http://vectornator.io"
  vectornator:shadowColor CDATA #IMPLIED >
<!ATTLIST g
  xmlns:vectornator CDATA #FIXED "http://vectornator.io"
  vectornator:shadowOpacity CDATA #IMPLIED >
<!ATTLIST g
  xmlns:vectornator CDATA #FIXED "http://vectornator.io"
  vectornator:shadowRadius CDATA #IMPLIED >
<!ATTLIST g
  xmlns:vectornator CDATA #FIXED "http://vectornator.io"
  vectornator:shadowOffset CDATA #IMPLIED >
<!ATTLIST g
  xmlns:vectornator CDATA #FIXED "http://vectornator.io"
  vectornator:shadowAngle CDATA #IMPLIED >

<!ENTITY % SVG.filter.extra.content  "| feDropShadow" >
<!ELEMENT feDropShadow EMPTY>
<!ATTLIST feDropShadow
  xmlns:svg CDATA #FIXED "http://www.w3.org/Graphics/SVG/1.1/DTD/svg11.dtd"
  dx CDATA #IMPLIED>
<!ATTLIST feDropShadow
  xmlns:svg CDATA #FIXED "http://www.w3.org/Graphics/SVG/1.1/DTD/svg11.dtd"
  dy CDATA #IMPLIED>
<!ATTLIST feDropShadow
  xmlns:svg CDATA #FIXED "http://www.w3.org/Graphics/SVG/1.1/DTD/svg11.dtd"
  stdDeviation CDATA #IMPLIED>
<!ATTLIST feDropShadow
  xmlns:svg CDATA #FIXED "http://www.w3.org/Graphics/SVG/1.1/DTD/svg11.dtd"
  flood-opacity CDATA #IMPLIED>
<!ATTLIST feDropShadow
  xmlns:svg CDATA #FIXED "http://www.w3.org/Graphics/SVG/1.1/DTD/svg11.dtd"
  in CDATA #IMPLIED>
<!ATTLIST feDropShadow
  xmlns:svg CDATA #FIXED "http://www.w3.org/Graphics/SVG/1.1/DTD/svg11.dtd"
  result CDATA #IMPLIED>
<!ATTLIST feDropShadow
  xmlns:svg CDATA #FIXED "http://www.w3.org/Graphics/SVG/1.1/DTD/svg11.dtd"
  flood-color CDATA #IMPLIED>
]
>
<!-- Created with Vectornator (http://vectornator.io/) -->
<svg height="100%" stroke-miterlimit="10" style="fill-rule:nonzero;clip-rule:evenodd;stroke-linecap:round;stroke-linejoin:round;" version="1.1" viewBox="0 0 3370.82 2384.24" width="100%" xml:space="preserve" xmlns="http://www.w3.org/2000/svg" xmlns:vectornator="http://vectornator.io" xmlns:xlink="http://www.w3.org/1999/xlink">
<defs/>
<g id="Capa-2" vectornator:layerName="Capa 2">
<path d="M1383.66 522.098L1395.4 522.098C1487.08 522.098 1561.41 598.129 1561.41 691.917L1561.41 691.917C1561.41 785.705 1487.08 861.736 1395.4 861.736L1383.66 861.736C1291.97 861.736 1217.65 785.705 1217.65 691.917L1217.65 691.917C1217.65 598.129 1291.97 522.098 1383.66 522.098Z" fill="#bdbdbd" fill-rule="evenodd" opacity="1" stroke="none"/>
<path d="M1387.92 905.009C1218.25 906.429 1105.14 1064.83 1071.74 1227.12C1068.87 1241.06 1060.43 1309.43 1076.8 1309.43L1179.31 1309.69C1178.24 1271.73 1180.82 1233.89 1187.05 1189.3C1188.7 1177.48 1198.25 1168.81 1209.46 1168.12C1211.06 1168.02 1212.71 1168.09 1214.36 1168.33C1227.56 1170.26 1236.74 1182.76 1234.85 1196.27C1228.91 1238.83 1226.46 1274.3 1227.57 1309.82L1631.71 1310.8C1630.24 1295.61 1627.12 1278.41 1621.13 1250.35C1618.62 1238.61 1617.61 1233.61 1616.32 1227.12C1614.19 1216.38 1612.56 1207.05 1611.3 1198.03C1609.41 1184.52 1618.59 1171.97 1631.79 1170.05C1633.44 1169.8 1635.04 1169.73 1636.64 1169.83C1647.86 1170.52 1657.45 1179.19 1659.1 1191.01C1660.22 1198.98 1661.66 1207.41 1663.62 1217.28C1664.85 1223.46 1665.89 1228.32 1668.35 1239.82C1675.31 1272.47 1678.86 1292.18 1680.31 1310.88L1764.16 1311.1C1752.15 1279.72 1751.86 1175.73 1730.79 1136.2C1667.94 1018.34 1576.28 933.937 1442.33 909.758C1423.6 906.375 1405.47 904.862 1387.92 905.009Z" fill="#bdbdbd" fill-rule="evenodd" opacity="1" stroke="none"/>
<path d="M1743.4 1287.14C1747.65 1298.24 1753.37 1300.44 1762.01 1287.18L1743.4 1287.14Z" fill="#bdbdbd" fill-rule="evenodd" opacity="1" stroke="none"/>
<path d="M2246.03 101.252C2010.56 101.252 1819.68 253.333 1819.68 440.944C1819.68 507.25 1837.88 586.567 1884.88 621.357C1876.71 645.532 1867.46 652.524 1834.78 675.049C1792.62 704.102 1721.94 734.316 1721.94 734.316C1721.94 734.316 1806.79 775.152 1893.25 779.181C1969.43 782.732 2019.9 744.22 2051.88 743.33C2110.13 767.125 2176.07 780.636 2246.03 780.636C2481.49 780.636 2672.37 628.555 2672.37 440.944C2672.37 253.333 2481.49 101.252 2246.03 101.252Z" fill="#ffffff" fill-rule="evenodd" opacity="1" stroke="#b7b7b7" stroke-linecap="round" stroke-linejoin="round" stroke-width="5.43999"/>
</g>
<g id="Capa-1" vectornator:layerName="Capa 1">
<path d="M1063.42 1504.25L1800.88 1504.25C1812.89 1504.25 1822.63 1514.21 1822.63 1526.49L1822.63 2206.17C1822.63 2218.46 1812.89 2228.42 1800.88 2228.42L1063.42 2228.42C1051.41 2228.42 1041.67 2218.46 1041.67 2206.17L1041.67 1526.49C1041.67 1514.21 1051.41 1504.25 1063.42 1504.25Z" fill="#c2af89" fill-rule="evenodd" opacity="1" stroke="none"/>
<path d="M876.157 1278.07L1971.62 1278.07C1983.27 1278.07 1992.72 1288.03 1992.72 1300.32L1992.72 1504.83C1992.72 1517.11 1983.27 1527.07 1971.62 1527.07L876.157 1527.07C864.503 1527.07 855.055 1517.11 855.055 1504.83L855.055 1300.32C855.055 1288.03 864.503 1278.07 876.157 1278.07Z" fill="#c2af89" fill-rule="evenodd" opacity="1" stroke="none"/>
<path d="M1775.76 993.651L1808.61 993.651L1808.61 1277.92L1775.76 1277.92L1775.76 993.651Z" fill="#8a8a8a" fill-rule="evenodd" opacity="1" stroke="none"/>
<path d="M1655.11 917.711L1677.47 890.813L1809.58 997.201L1787.23 1024.1L1655.11 917.711Z" fill="#8a8a8a" fill-rule="evenodd" opacity="1" stroke="none"/>
<path d="M1588.41 844.625L1588.41 844.625C1598.76 830.589 1618.27 827.794 1631.99 838.382L1680.04 875.457C1693.76 886.044 1696.49 906.005 1686.14 920.041L1686.14 920.041C1675.79 934.076 1656.28 936.871 1642.56 926.283L1594.51 889.209C1580.79 878.621 1578.06 858.66 1588.41 844.625Z" fill="#4a4a4a" fill-rule="evenodd" opacity="1" stroke="none"/>
<path d="M1929.29 1017.84L1929.29 1017.84C1929.49 1017.84 1929.65 1018.01 1929.65 1018.22L1929.65 1019.42C1929.65 1019.62 1929.49 1019.79 1929.29 1019.79L1929.29 1019.79C1929.08 1019.79 1928.92 1019.62 1928.92 1019.42L1928.92 1018.22C1928.92 1018.01 1929.08 1017.84 1929.29 1017.84Z" fill="#8a8a8a" fill-rule="evenodd" opacity="1" stroke="none"/>
<path d="M1795.26 1044.79L1795.26 1044.79C1795.31 1044.79 1795.35 1044.83 1795.35 1044.88L1795.35 1046.55C1795.35 1046.6 1795.31 1046.64 1795.26 1046.64L1795.26 1046.64C1795.21 1046.64 1795.17 1046.6 1795.17 1046.55L1795.17 1044.88C1795.17 1044.83 1795.21 1044.79 1795.26 1044.79Z" fill="#8a8a8a" fill-rule="evenodd" opacity="1" stroke="none"/>
</g>
<g id="Capa-3" vectornator:layerName="Capa 3">
<path d="M1251.1 1609.7L1613.9 1609.7C1617.09 1609.7 1619.68 1612.34 1619.68 1615.61L1619.68 1847.78C1619.68 1851.04 1617.09 1853.69 1613.9 1853.69L1251.1 1853.69C1247.91 1853.69 1245.32 1851.04 1245.32 1847.78L1245.32 1615.61C1245.32 1612.34 1247.91 1609.7 1251.1 1609.7Z" fill="#ffffff" fill-rule="evenodd" opacity="1" stroke="none"/>
<path d="M1251.3 1746.46L1618.07 1746.46C1621.36 1746.46 1624.03 1749.56 1624.03 1753.39L1624.03 1885.62C1624.03 1889.44 1621.36 1892.54 1618.07 1892.54L1251.3 1892.54C1248.01 1892.54 1245.34 1889.44 1245.34 1885.62L1245.34 1753.39C1245.34 1749.56 1248.01 1746.46 1251.3 1746.46Z" fill="#ffbaba" fill-rule="evenodd" opacity="1" stroke="none"/>
<path d="M1248.05 1610.56L1395.49 1610.56C1398.75 1610.56 1401.4 1613.1 1401.4 1616.24L1401.4 1742.36C1401.4 1745.5 1398.75 1748.04 1395.49 1748.04L1248.05 1748.04C1244.79 1748.04 1242.15 1745.5 1242.15 1742.36L1242.15 1616.24C1242.15 1613.1 1244.79 1610.56 1248.05 1610.56Z" fill="#badfff" fill-rule="evenodd" opacity="1" stroke="none"/>
<path d="M1356.78 1722.01L1328.84 1708.09L1303.07 1724.12L1305.91 1692.21L1282.56 1670.6L1312.25 1664.8L1323.59 1635.42L1339.1 1663.74L1369.46 1667.19L1349.36 1690.5L1356.78 1722.01Z" fill="#ffffff" fill-rule="evenodd" opacity="1" stroke="none"/>
<path d="M2049.59 233.34L2049.59 233.34C2090.91 233.34 2124.41 268.288 2124.41 311.399L2124.41 314.66C2124.41 357.771 2090.91 392.719 2049.59 392.719L2049.59 392.719C2008.27 392.719 1974.77 357.771 1974.77 314.66L1974.77 311.399C1974.77 268.288 2008.27 233.34 2049.59 233.34Z" fill="#bdbdbd" fill-rule="evenodd" opacity="1" stroke="none"/>
<path d="M2368.12 171.719L2371.99 171.719C2422.62 171.719 2463.66 214.331 2463.66 266.897L2463.66 266.897C2463.66 319.462 2422.62 362.075 2371.99 362.075L2368.12 362.075C2317.49 362.075 2276.45 319.462 2276.45 266.897L2276.45 266.897C2276.45 214.331 2317.49 171.719 2368.12 171.719Z" fill="#bdbdbd" fill-rule="evenodd" opacity="1" stroke="none"/>
<path d="M2121.29 385.126C2107.44 384.06 2064.93 403.75 2051.52 404.915C2022.57 407.432 1998.2 376.651 1973.81 397.468C1952.64 415.544 1944.12 480.147 1945.65 505.596C1947.55 537.461 1962.69 595.866 2006.13 626.26C2030.35 643.208 2163.97 679.865 2169.27 633.998C2172.65 604.696 2142.1 604.189 2108.12 601.298C2108 601.488 2107.94 601.614 2107.8 601.825C2107.01 603.084 2105.92 604.747 2104.64 606.651C2102.38 610.013 2099.8 613.735 2099.15 614.583C2096.13 618.486 2091.19 622.64 2085.91 625.802C2079.78 629.47 2073.72 631.579 2068.38 631.266C2064.54 631.042 2061.15 629.853 2058.26 627.952C2053.76 625.922 2050.42 621.953 2048.36 616.802C2046.44 612.009 2045.67 606.259 2046.02 600.493C2046.32 595.428 2047.52 590.593 2049.47 586.528C2018.49 567.708 1991.87 537.885 1993.94 518.493C1997.6 484.136 2031.53 572.889 2060.16 554.965C2069.7 548.995 2103.96 501.583 2110.47 492.518C2121.96 476.536 2132.72 475.387 2124.24 433.941C2120.88 417.476 2133.32 400.896 2125.31 386.97C2124.67 385.857 2123.27 385.278 2121.29 385.126Z" fill="#bdbdbd" fill-rule="evenodd" opacity="1" stroke="none"/>
<path d="M2440.54 353.494C2430.88 353.119 2424.84 376.938 2377.24 383.462C2348.56 387.393 2294.39 351.95 2279.22 362.854C2269.99 369.489 2288.63 381.039 2293.75 404.652C2298.88 428.265 2281.5 449.832 2286.34 459.915C2297.46 483.125 2323.12 495.807 2338.77 507.995C2350.89 517.432 2371.7 553.832 2388.57 548.336C2404.55 543.129 2409.41 525.85 2412.44 520.074C2418.08 509.336 2428.93 504.828 2429.62 512.71C2432.04 540.423 2416.36 559.594 2393.65 573.34C2397.28 578.942 2398.6 585.061 2398.02 590.675C2398.21 591.471 2398.38 592.268 2398.48 593.06C2399.84 603.64 2393.27 611.648 2381.39 613.418C2380.27 613.585 2379.13 613.651 2377.96 613.626C2373.46 613.531 2368.61 612.022 2363.64 609.452C2355.94 607.021 2348.29 602.084 2340.26 594.946C2337.6 595.701 2334.94 596.466 2332.3 597.151C2307.96 603.469 2227.87 578.52 2230.03 626.759C2231.86 667.758 2377.53 674.75 2433.09 627.785C2465.01 600.796 2481.4 545.629 2485.55 504.667C2487.86 481.938 2475.9 391.616 2453.09 363.464C2447.39 356.427 2443.76 353.618 2440.54 353.494Z" fill="#bdbdbd" fill-rule="evenodd" opacity="1" stroke="none"/>
<path d="M2208.6 339.494L2208.6 339.494C2250.26 339.494 2284.03 372.721 2284.03 413.71L2284.03 421.322C2284.03 462.31 2250.26 495.538 2208.6 495.538L2208.6 495.538C2166.94 495.538 2133.17 462.31 2133.17 421.322L2133.17 413.71C2133.17 372.721 2166.94 339.494 2208.6 339.494Z" fill="#8a8a8a" fill-rule="evenodd" opacity="1" stroke="none"/>
<path d="M2145.13 473.936C2137.57 476.881 2029.4 589.869 2054.92 616.497C2091.03 654.162 2138.21 531.67 2154.7 523.069C2161.21 519.675 2142.84 556.048 2141.07 563.411C2139.95 568.093 2137.25 585.135 2136.26 599.786C2137.14 599.72 2138.03 599.617 2138.88 599.62C2142.47 599.63 2145.84 600.28 2149.05 601.492C2154.87 602.579 2160.33 604.87 2165.03 608.329C2171.29 612.947 2175.73 619.308 2178.05 626.787C2192.25 627.502 2208.53 627.852 2224.71 627.702C2224.7 627.359 2224.67 627.018 2224.67 626.676C2224.69 624.616 2225 622.581 2225.44 620.588C2225.44 620.478 2225.42 620.365 2225.42 620.255C2225.39 615.593 2226.58 611.865 2228.96 607.427C2229.23 606.925 2230.88 603.987 2230.94 603.863C2234.42 597.557 2239.7 593.246 2246.3 590.911C2250.39 589.461 2254.91 588.798 2259.8 588.803C2261.44 588.804 2263.11 588.878 2264.83 589.025C2266.04 589.128 2267.28 589.369 2268.51 589.538C2271.34 589.064 2274.22 588.771 2277.23 588.858C2282.25 589.003 2285.54 589.532 2294.84 591.396C2297.07 591.842 2298.17 591.988 2299.69 592.256C2298.46 585.808 2296.87 578.194 2294.18 567.127C2286.59 535.927 2274.15 522.283 2277.91 520.323C2281 518.712 2358.72 630.536 2387.47 603.461C2415.9 576.679 2294.99 477.9 2276.33 474.005C2273.3 473.373 2243.16 501.1 2212.04 504.265C2180.8 507.441 2146.59 479.532 2145.54 474.005C2145.51 473.864 2145.37 473.841 2145.13 473.936Z" fill="#8a8a8a" fill-rule="evenodd" opacity="1" stroke="none"/>
</g>
</svg>
