<?xml version="1.0" encoding="UTF-8" standalone="no"?>
<!DOCTYPE svg PUBLIC "-//W3C//DTD SVG 1.1//EN" "http://www.w3.org/Graphics/SVG/1.1/DTD/svg11.dtd"
[
<!ATTLIST g
  xmlns:vectornator CDATA #FIXED "http://vectornator.io"
  vectornator:layerName CDATA #IMPLIED >
<!ATTLIST g
  xmlns:vectornator CDATA #FIXED "http://vectornator.io"
  vectornator:mask CDATA #IMPLIED >
<!ATTLIST text
  xmlns:vectornator CDATA #FIXED "http://vectornator.io"
  vectornator:width CDATA #IMPLIED >
<!ATTLIST text
  xmlns:vectornator CDATA #FIXED "http://vectornator.io"
  vectornator:text CDATA #IMPLIED >

<!ATTLIST path
  xmlns:vectornator CDATA #FIXED "http://vectornator.io"
  vectornator:blendMode CDATA #IMPLIED >
<!ATTLIST path
  xmlns:vectornator CDATA #FIXED "http://vectornator.io"
  vectornator:shadowColor CDATA #IMPLIED >
<!ATTLIST path
  xmlns:vectornator CDATA #FIXED "http://vectornator.io"
  vectornator:shadowOpacity CDATA #IMPLIED >
<!ATTLIST path
  xmlns:vectornator CDATA #FIXED "http://vectornator.io"
  vectornator:shadowRadius CDATA #IMPLIED >
<!ATTLIST path
  xmlns:vectornator CDATA #FIXED "http://vectornator.io"
  vectornator:shadowOffset CDATA #IMPLIED >
<!ATTLIST path
  xmlns:vectornator CDATA #FIXED "http://vectornator.io"
  vectornator:shadowAngle CDATA #IMPLIED >

<!ATTLIST image
  xmlns:vectornator CDATA #FIXED "http://vectornator.io"
  vectornator:blendMode CDATA #IMPLIED >
<!ATTLIST image
  xmlns:vectornator CDATA #FIXED "http://vectornator.io"
  vectornator:shadowColor CDATA #IMPLIED >
<!ATTLIST image
  xmlns:vectornator CDATA #FIXED "http://vectornator.io"
  vectornator:shadowOpacity CDATA #IMPLIED >
<!ATTLIST image
  xmlns:vectornator CDATA #FIXED "http://vectornator.io"
  vectornator:shadowRadius CDATA #IMPLIED >
<!ATTLIST image
  xmlns:vectornator CDATA #FIXED "http://vectornator.io"
  vectornator:shadowOffset CDATA #IMPLIED >
<!ATTLIST image
  xmlns:vectornator CDATA #FIXED "http://vectornator.io"
  vectornator:shadowAngle CDATA #IMPLIED >

<!ATTLIST g
  xmlns:vectornator CDATA #FIXED "http://vectornator.io"
  vectornator:blendMode CDATA #IMPLIED >
<!ATTLIST g
  xmlns:vectornator CDATA #FIXED "http://vectornator.io"
  vectornator:shadowColor CDATA #IMPLIED >
<!ATTLIST g
  xmlns:vectornator CDATA #FIXED "http://vectornator.io"
  vectornator:shadowOpacity CDATA #IMPLIED >
<!ATTLIST g
  xmlns:vectornator CDATA #FIXED "http://vectornator.io"
  vectornator:shadowRadius CDATA #IMPLIED >
<!ATTLIST g
  xmlns:vectornator CDATA #FIXED "http://vectornator.io"
  vectornator:shadowOffset CDATA #IMPLIED >
<!ATTLIST g
  xmlns:vectornator CDATA #FIXED "http://vectornator.io"
  vectornator:shadowAngle CDATA #IMPLIED >

<!ENTITY % SVG.filter.extra.content  "| feDropShadow" >
<!ELEMENT feDropShadow EMPTY>
<!ATTLIST feDropShadow
  xmlns:svg CDATA #FIXED "http://www.w3.org/Graphics/SVG/1.1/DTD/svg11.dtd"
  dx CDATA #IMPLIED>
<!ATTLIST feDropShadow
  xmlns:svg CDATA #FIXED "http://www.w3.org/Graphics/SVG/1.1/DTD/svg11.dtd"
  dy CDATA #IMPLIED>
<!ATTLIST feDropShadow
  xmlns:svg CDATA #FIXED "http://www.w3.org/Graphics/SVG/1.1/DTD/svg11.dtd"
  stdDeviation CDATA #IMPLIED>
<!ATTLIST feDropShadow
  xmlns:svg CDATA #FIXED "http://www.w3.org/Graphics/SVG/1.1/DTD/svg11.dtd"
  flood-opacity CDATA #IMPLIED>
<!ATTLIST feDropShadow
  xmlns:svg CDATA #FIXED "http://www.w3.org/Graphics/SVG/1.1/DTD/svg11.dtd"
  in CDATA #IMPLIED>
<!ATTLIST feDropShadow
  xmlns:svg CDATA #FIXED "http://www.w3.org/Graphics/SVG/1.1/DTD/svg11.dtd"
  result CDATA #IMPLIED>
<!ATTLIST feDropShadow
  xmlns:svg CDATA #FIXED "http://www.w3.org/Graphics/SVG/1.1/DTD/svg11.dtd"
  flood-color CDATA #IMPLIED>
]
>
<!-- Created with Vectornator (http://vectornator.io/) -->
<svg height="100%" stroke-miterlimit="10" style="fill-rule:nonzero;clip-rule:evenodd;stroke-linecap:round;stroke-linejoin:round;" version="1.1" viewBox="0 0 3370.82 2384.24" width="100%" xml:space="preserve" xmlns="http://www.w3.org/2000/svg" xmlns:vectornator="http://vectornator.io" xmlns:xlink="http://www.w3.org/1999/xlink">
<defs/>
<g id="Capa-1" vectornator:layerName="Capa 1">
<path d="M1051.84 1410.46L1051.84 1410.46C1216.51 1410.46 1350.01 1540.09 1350.01 1700L1350.01 1712.48C1350.01 1872.39 1216.51 2002.02 1051.84 2002.02L1051.84 2002.02C887.166 2002.02 753.672 1872.39 753.672 1712.48L753.672 1700C753.672 1540.09 887.166 1410.46 1051.84 1410.46Z" fill="#ffe4c8" fill-rule="evenodd" opacity="1" stroke="none"/>
<path d="M731.555 1704.74L734.073 1704.74C753.889 1704.74 769.954 1721 769.954 1741.06L769.954 1741.06C769.954 1761.11 753.889 1777.37 734.073 1777.37L731.555 1777.37C711.738 1777.37 695.673 1761.11 695.673 1741.06L695.673 1741.06C695.673 1721 711.738 1704.74 731.555 1704.74Z" fill="#ffe4c8" fill-rule="evenodd" opacity="1" stroke="none"/>
<path d="M1373.64 1694.55L1376.16 1694.55C1395.98 1694.55 1412.04 1710.81 1412.04 1730.86L1412.04 1730.86C1412.04 1750.92 1395.98 1767.17 1376.16 1767.17L1373.64 1767.17C1353.82 1767.17 1337.76 1750.92 1337.76 1730.86L1337.76 1730.86C1337.76 1710.81 1353.82 1694.55 1373.64 1694.55Z" fill="#ffe4c8" fill-rule="evenodd" opacity="1" stroke="none"/>
</g>
<g id="Capa-2" vectornator:layerName="Capa 2">
<path d="M1059.72 1327.65C875.36 1327.65 725.92 1482.68 725.92 1673.95L725.92 1681.65C726.002 1681.67 726.072 1681.67 726.154 1681.68C730.954 1682.55 734.633 1683.32 743.286 1685.14C762.063 1689.08 770.501 1690.52 780.692 1691.08C790.169 1691.6 815.578 1691.95 816.021 1691.96C829.788 1692.11 836.639 1692.25 844.73 1692.59C848.271 1692.73 851.575 1692.85 857.164 1693.09C953.204 1697.11 994.445 1698.51 1046.89 1698.84C1126.38 1699.34 1195.54 1696.14 1262.03 1688.09C1286.61 1685.12 1306.53 1682.19 1350.11 1675.43C1361.93 1673.59 1366.57 1672.87 1372.85 1671.91C1380.32 1670.77 1386.54 1669.9 1393.41 1668.89C1390.79 1479.97 1242.43 1327.65 1059.72 1327.65Z" fill="#a3ba9f" fill-rule="evenodd" opacity="1" stroke="none"/>
<path d="M731.751 1625.75L1401.86 1625.75C1419.75 1625.75 1434.25 1643.14 1434.25 1664.61L1434.25 1664.61C1434.25 1686.07 1419.75 1703.47 1401.86 1703.47L731.751 1703.47C713.862 1703.47 699.36 1686.07 699.36 1664.61L699.36 1664.61C699.36 1643.14 713.862 1625.75 731.751 1625.75Z" fill="#92a98d" fill-rule="evenodd" opacity="1" stroke="none"/>
<path d="M739.738 1716.17C739.738 1716.17 876.694 2060.23 1061.4 2060.23C1225.13 2060.23 1364.21 1707.28 1364.21 1707.28" fill="none" fill-rule="evenodd" opacity="1" stroke="#a3ba9f" stroke-linecap="round" stroke-linejoin="round" stroke-width="36.9413"/>
<path d="M2303.2 204.892C1918.08 204.893 1605.87 488.787 1605.87 839.005C1605.87 962.779 1635.63 1110.84 1712.52 1175.79C1699.15 1220.91 1684.02 1233.97 1630.57 1276.01C1561.62 1330.25 1446.01 1386.65 1446.01 1386.65C1446.01 1386.65 1584.79 1462.88 1726.2 1470.4C1850.81 1477.03 1933.36 1405.14 1985.66 1403.48C2080.94 1447.9 2188.77 1473.12 2303.2 1473.12C2688.32 1473.12 3000.53 1189.22 3000.53 839.005C3000.53 488.787 2688.32 204.892 2303.2 204.892Z" fill="#ffffff" fill-rule="evenodd" opacity="1" stroke="#b7b7b7" stroke-linecap="round" stroke-linejoin="round" stroke-width="5.43999"/>
</g>
<g id="Capa-3" vectornator:layerName="Capa 3">
<path d="M2197.42 322.248C2167.34 322.248 2142.96 345.29 2142.96 373.698C2142.96 392.919 2154.14 409.636 2170.67 418.465C2159.77 437.215 2153.58 458.683 2153.58 481.504C2153.58 509.319 2177.56 540.139 2178.53 556.434C2175.93 610.355 2156.73 604.108 2131.27 660.529C2109.44 708.887 2090.35 763.778 2085.18 806.527C2085.6 808.662 2085.51 831.855 2086.16 835.561C2086.46 837.255 2086.55 837.746 2086.69 838.556C2088.33 847.714 2089.58 853.055 2091.47 858.173C2094.05 865.128 2097.63 870.895 2106.2 882.759C2106.28 882.87 2108.13 885.446 2108.47 885.927C2111.62 890.303 2113.78 893.4 2115.83 896.625C2140.25 935.068 2168.15 969.175 2204.29 1005.58C2210.84 1012.18 2216.96 1017.15 2229.43 1026.43C2229.7 1026.64 2235.94 1031.29 2237.12 1032.18C2242.77 1036.46 2247.24 1040.02 2251.58 1043.77C2253.43 1045.37 2255.11 1046.92 2257.73 1049.41C2258.01 1049.67 2258.92 1050.53 2259.02 1050.63C2265.5 1056.79 2268.76 1059.47 2272.71 1061.57C2288.96 1070.2 2301.58 1076.46 2315.27 1082.31C2333.46 1090.09 2349.97 1095.45 2364.44 1097.89C2380.39 1100.58 2392.98 1099.54 2401.8 1094.81C2411.42 1089.65 2417.77 1079.42 2420.2 1062.2C2421.15 1055.52 2419.93 1051.95 2415.52 1046.55C2413.9 1044.57 2405.69 1035.62 2406.46 1036.48C2395.52 1024.26 2383.82 1017.29 2359.77 1006.97C2357.98 1006.2 2351.31 1003.35 2351.71 1003.52C2348.36 1002.09 2345.79 1000.99 2343.25 999.874C2333.63 995.633 2326 991.517 2310.51 982.622C2309.98 982.315 2306.9 980.539 2306.26 980.17C2301.36 977.363 2297.82 975.386 2294.34 973.508C2286.38 969.213 2280.93 964.297 2271.66 954.369C2271.55 954.256 2269.99 952.592 2269.54 952.112C2266.8 949.183 2265.02 947.343 2263.22 945.645C2226.55 911.006 2203.07 865.52 2194.02 814.208C2192.85 807.609 2197.58 801.377 2204.56 800.277C2211.55 799.177 2218.17 803.638 2219.34 810.237C2227.54 856.737 2248.63 897.595 2281.38 928.524C2283.64 930.659 2285.71 932.8 2288.78 936.076C2289.24 936.572 2290.79 938.253 2290.89 938.354C2298.35 946.342 2302.33 949.902 2307.06 952.459C2310.77 954.461 2314.47 956.541 2319.54 959.446C2320.2 959.821 2323.31 961.593 2323.84 961.899C2338.54 970.34 2345.62 974.167 2354.12 977.913C2356.54 978.981 2368.55 984.112 2370.39 984.901C2383.15 990.378 2391.21 994.235 2399.27 999.049C2409.59 1005.21 2418.34 1012.22 2426.06 1020.84C2426.79 1021.65 2430.43 1025.6 2430.96 1026.17C2433.02 1028.43 2434.45 1030.07 2435.83 1031.75C2444.2 1042 2447.55 1051.9 2445.64 1065.41C2442.21 1089.67 2431.63 1106.67 2414.46 1115.88C2399.64 1123.83 2381.26 1125.34 2359.94 1121.74C2343.07 1118.9 2324.66 1112.92 2304.7 1104.38C2290.2 1098.18 2276.97 1091.63 2260.12 1082.68C2253.47 1079.14 2248.91 1075.4 2240.82 1067.71C2240.71 1067.6 2239.8 1066.75 2239.54 1066.49C2237.17 1064.25 2235.73 1062.92 2234.25 1061.63C2230.4 1058.3 2226.33 1055.07 2221.09 1051.11C2219.95 1050.25 2213.83 1045.67 2213.55 1045.47C2200.13 1035.47 2193.24 1029.87 2185.56 1022.14C2148.24 984.536 2079.34 903.222 2079.34 903.222C2079.34 903.222 2065.19 897.146 2071.37 929.283C2075.16 949.029 2074.88 1028.25 2075.58 1040.35C2076.65 1058.83 2086.5 1077.3 2088.94 1095.83C2089.41 1099.34 2091.15 1102.65 2091.61 1106.16C2093.16 1117.97 2093.88 1128.93 2096.89 1140.68C2100.53 1154.84 2106.33 1171.87 2113.37 1184.71C2114.73 1187.19 2117.32 1188.92 2118.68 1191.4C2120.11 1194.01 2120.36 1197.07 2121.62 1199.75C2124.03 1204.92 2127.67 1209.56 2129.87 1214.81C2134.45 1225.77 2138.41 1236.84 2141.65 1248.23C2142.22 1250.24 2141.71 1252.58 2142.83 1254.37C2144.1 1256.41 2146.93 1257.21 2148.43 1259.1C2153.37 1265.33 2156.2 1273.16 2162.26 1278.89C2168 1284.32 2179.86 1291.74 2187.33 1294.23C2198.39 1297.93 2212.84 1297.69 2224.49 1299.27C2237.73 1301.06 2252.41 1304.84 2265.78 1304.85C2272.18 1304.85 2278.55 1303.37 2284.96 1303.48C2289.88 1303.56 2294.85 1304.31 2299.69 1303.48C2304.62 1302.63 2310.07 1299.85 2315.04 1299.59C2320.81 1299.29 2326.07 1300 2331.86 1299.88C2348.04 1299.53 2365.47 1294.22 2381.4 1292.67C2384.6 1292.36 2390.23 1288.97 2392.61 1288.22C2405.47 1284.18 2418.73 1280.1 2430.66 1273.47C2432.35 1272.52 2433.58 1270.85 2435.39 1270.13C2440.66 1268.03 2448.26 1267.98 2453.08 1264.57C2454.33 1263.69 2454.5 1261.83 2455.75 1260.95C2457.72 1259.55 2466.68 1256.2 2469.33 1254.83C2474.31 1252.25 2478.51 1252.84 2482.88 1248.71C2488.75 1243.17 2491.85 1234.95 2496.46 1228.66C2497.89 1226.71 2502.92 1222.57 2504.14 1219.76C2511.03 1203.8 2520.22 1187.22 2526.29 1171.02C2527.02 1169.06 2527.65 1167.05 2528.31 1165.05C2572.64 1126.95 2600.46 1072.01 2600.46 1010.94L2600.46 1010.79C2600.46 903.392 2514.41 815.018 2403.87 803.727C2420.68 787.745 2416.27 774.566 2416.27 750.258C2416.27 701.432 2316.37 666.996 2316.37 666.996C2311.01 666.996 2267.2 649.034 2266.03 638.395C2262.26 604.342 2290.42 620.204 2286.64 613.657C2289.7 613.84 2305.57 614.091 2305.57 614.091C2384.14 614.091 2447.82 554.718 2447.82 481.504C2447.82 408.289 2384.14 348.939 2305.57 348.939L2295.85 348.939C2280.22 348.939 2265.23 351.391 2251.16 355.731C2243.44 336.193 2223.56 322.248 2200.18 322.248L2197.42 322.248Z" fill="#ebcad0" fill-rule="evenodd" opacity="1" stroke="#ebcad0" stroke-linecap="round" stroke-linejoin="round" stroke-width="11.1474"/>
<path d="M988.229 1474.8L1139.92 1474.8C1141.25 1474.8 1142.33 1475.83 1142.33 1477.09L1142.33 1566.85C1142.33 1568.11 1141.25 1569.14 1139.92 1569.14L988.229 1569.14C986.895 1569.14 985.813 1568.11 985.813 1566.85L985.813 1477.09C985.813 1475.83 986.895 1474.8 988.229 1474.8Z" fill="#ffffff" fill-rule="evenodd" opacity="1" stroke="none"/>
<path d="M988.315 1527.68L1141.66 1527.68C1143.04 1527.68 1144.15 1528.88 1144.15 1530.36L1144.15 1581.48C1144.15 1582.96 1143.04 1584.16 1141.66 1584.16L988.315 1584.16C986.938 1584.16 985.821 1582.96 985.821 1581.48L985.821 1530.36C985.821 1528.88 986.938 1527.68 988.315 1527.68Z" fill="#ffbaba" fill-rule="evenodd" opacity="1" stroke="none"/>
<path d="M986.955 1475.14L1048.6 1475.14C1049.96 1475.14 1051.07 1476.12 1051.07 1477.33L1051.07 1526.1C1051.07 1527.31 1049.96 1528.29 1048.6 1528.29L986.955 1528.29C985.593 1528.29 984.488 1527.31 984.488 1526.1L984.488 1477.33C984.488 1476.12 985.593 1475.14 986.955 1475.14Z" fill="#badfff" fill-rule="evenodd" opacity="1" stroke="none"/>
<path d="M1032.41 1518.23L1020.73 1512.85L1009.96 1519.04L1011.14 1506.7L1001.38 1498.35L1013.8 1496.11L1018.54 1484.75L1025.02 1495.7L1037.72 1497.03L1029.31 1506.04L1032.41 1518.23Z" fill="#ffffff" fill-rule="evenodd" opacity="1" stroke="none"/>
</g>
</svg>
