<?xml version="1.0" encoding="UTF-8" standalone="no"?>
<!DOCTYPE svg PUBLIC "-//W3C//DTD SVG 1.1//EN" "http://www.w3.org/Graphics/SVG/1.1/DTD/svg11.dtd"
[
<!ATTLIST g
  xmlns:vectornator CDATA #FIXED "http://vectornator.io"
  vectornator:layerName CDATA #IMPLIED >
<!ATTLIST g
  xmlns:vectornator CDATA #FIXED "http://vectornator.io"
  vectornator:mask CDATA #IMPLIED >
<!ATTLIST text
  xmlns:vectornator CDATA #FIXED "http://vectornator.io"
  vectornator:width CDATA #IMPLIED >
<!ATTLIST text
  xmlns:vectornator CDATA #FIXED "http://vectornator.io"
  vectornator:text CDATA #IMPLIED >

<!ATTLIST path
  xmlns:vectornator CDATA #FIXED "http://vectornator.io"
  vectornator:blendMode CDATA #IMPLIED >
<!ATTLIST path
  xmlns:vectornator CDATA #FIXED "http://vectornator.io"
  vectornator:shadowColor CDATA #IMPLIED >
<!ATTLIST path
  xmlns:vectornator CDATA #FIXED "http://vectornator.io"
  vectornator:shadowOpacity CDATA #IMPLIED >
<!ATTLIST path
  xmlns:vectornator CDATA #FIXED "http://vectornator.io"
  vectornator:shadowRadius CDATA #IMPLIED >
<!ATTLIST path
  xmlns:vectornator CDATA #FIXED "http://vectornator.io"
  vectornator:shadowOffset CDATA #IMPLIED >
<!ATTLIST path
  xmlns:vectornator CDATA #FIXED "http://vectornator.io"
  vectornator:shadowAngle CDATA #IMPLIED >

<!ATTLIST image
  xmlns:vectornator CDATA #FIXED "http://vectornator.io"
  vectornator:blendMode CDATA #IMPLIED >
<!ATTLIST image
  xmlns:vectornator CDATA #FIXED "http://vectornator.io"
  vectornator:shadowColor CDATA #IMPLIED >
<!ATTLIST image
  xmlns:vectornator CDATA #FIXED "http://vectornator.io"
  vectornator:shadowOpacity CDATA #IMPLIED >
<!ATTLIST image
  xmlns:vectornator CDATA #FIXED "http://vectornator.io"
  vectornator:shadowRadius CDATA #IMPLIED >
<!ATTLIST image
  xmlns:vectornator CDATA #FIXED "http://vectornator.io"
  vectornator:shadowOffset CDATA #IMPLIED >
<!ATTLIST image
  xmlns:vectornator CDATA #FIXED "http://vectornator.io"
  vectornator:shadowAngle CDATA #IMPLIED >

<!ATTLIST g
  xmlns:vectornator CDATA #FIXED "http://vectornator.io"
  vectornator:blendMode CDATA #IMPLIED >
<!ATTLIST g
  xmlns:vectornator CDATA #FIXED "http://vectornator.io"
  vectornator:shadowColor CDATA #IMPLIED >
<!ATTLIST g
  xmlns:vectornator CDATA #FIXED "http://vectornator.io"
  vectornator:shadowOpacity CDATA #IMPLIED >
<!ATTLIST g
  xmlns:vectornator CDATA #FIXED "http://vectornator.io"
  vectornator:shadowRadius CDATA #IMPLIED >
<!ATTLIST g
  xmlns:vectornator CDATA #FIXED "http://vectornator.io"
  vectornator:shadowOffset CDATA #IMPLIED >
<!ATTLIST g
  xmlns:vectornator CDATA #FIXED "http://vectornator.io"
  vectornator:shadowAngle CDATA #IMPLIED >

<!ENTITY % SVG.filter.extra.content  "| feDropShadow" >
<!ELEMENT feDropShadow EMPTY>
<!ATTLIST feDropShadow
  xmlns:svg CDATA #FIXED "http://www.w3.org/Graphics/SVG/1.1/DTD/svg11.dtd"
  dx CDATA #IMPLIED>
<!ATTLIST feDropShadow
  xmlns:svg CDATA #FIXED "http://www.w3.org/Graphics/SVG/1.1/DTD/svg11.dtd"
  dy CDATA #IMPLIED>
<!ATTLIST feDropShadow
  xmlns:svg CDATA #FIXED "http://www.w3.org/Graphics/SVG/1.1/DTD/svg11.dtd"
  stdDeviation CDATA #IMPLIED>
<!ATTLIST feDropShadow
  xmlns:svg CDATA #FIXED "http://www.w3.org/Graphics/SVG/1.1/DTD/svg11.dtd"
  flood-opacity CDATA #IMPLIED>
<!ATTLIST feDropShadow
  xmlns:svg CDATA #FIXED "http://www.w3.org/Graphics/SVG/1.1/DTD/svg11.dtd"
  in CDATA #IMPLIED>
<!ATTLIST feDropShadow
  xmlns:svg CDATA #FIXED "http://www.w3.org/Graphics/SVG/1.1/DTD/svg11.dtd"
  result CDATA #IMPLIED>
<!ATTLIST feDropShadow
  xmlns:svg CDATA #FIXED "http://www.w3.org/Graphics/SVG/1.1/DTD/svg11.dtd"
  flood-color CDATA #IMPLIED>
]
>
<!-- Created with Vectornator (http://vectornator.io/) -->
<svg height="100%" stroke-miterlimit="10" style="fill-rule:nonzero;clip-rule:evenodd;stroke-linecap:round;stroke-linejoin:round;" version="1.1" viewBox="0 0 3370.82 2384.24" width="100%" xml:space="preserve" xmlns="http://www.w3.org/2000/svg" xmlns:vectornator="http://vectornator.io" xmlns:xlink="http://www.w3.org/1999/xlink">
<defs/>
<clipPath id="ArtboardFrame">
<rect height="2384.24" width="3370.82" x="0" y="0"/>
</clipPath>
<g clip-path="url(#ArtboardFrame)" id="Capa-1" vectornator:layerName="Capa 1">
<path d="M1670.9 285.808L1670.9 285.808C1829.41 285.808 1957.9 414.693 1957.9 573.681L1957.9 586.089C1957.9 745.077 1829.41 873.962 1670.9 873.962L1670.9 873.962C1512.39 873.962 1383.9 745.077 1383.9 586.089L1383.9 573.681C1383.9 414.693 1512.39 285.808 1670.9 285.808Z" fill="#ffe4c8" fill-rule="evenodd" opacity="1" stroke="none"/>
<path d="M2493.25 2410.7C2492.41 2403.15 2491.74 2395.56 2491.74 2387.97" fill="#ffe4c8" fill-rule="evenodd" opacity="1" stroke="none"/>
<path d="M1623.89 859.072C1633.66 859.072 1631.31 877.77 1631.31 886.37C1631.31 915.344 1618.94 942.847 1618.94 970.746C1618.94 975.87 1609.62 993.654 1613.99 998.044C1616.72 1000.78 1639.16 998.044 1643.68 998.044C1671.3 998.044 1697.47 1000.53 1725.33 1000.53C1728.86 1000.53 1754.22 1004.62 1755.02 1003.01C1755.64 1001.77 1745.66 942.76 1745.12 938.485C1739.68 894.822 1747.22 854.687 1752.55 811.92C1753.79 801.968 1750.4 769.57 1759.97 764.769" fill="#ffe4c8" fill-rule="evenodd" opacity="1" stroke="none"/>
<path d="M1684.56 939.282C1666.55 943.381 1624.46 936.113 1609.64 945.126C1607.88 946.196 1608.47 949.644 1608.03 951.096C1603.4 966.321 1599.54 966.947 1606.95 982.656C1623.01 1016.7 1630.02 1054.45 1648.61 1086.9C1652.26 1093.28 1657.76 1101.62 1659.73 1108.43C1660.61 1111.48 1655.63 1124.37 1660.15 1124.82C1665.28 1125.33 1690.98 1092.08 1695.4 1087.46C1703.03 1079.48 1712.98 1072.49 1719.18 1063.26C1724.6 1055.19 1725.38 1046.08 1729.84 1037.76C1733.67 1030.61 1741.39 1025.78 1743.03 1017.61C1745.29 1006.31 1750.52 992.092 1749.75 980.483C1749.44 975.848 1747.38 971.023 1749.13 966.121C1750.76 961.545 1754.86 959.612 1755.37 954.482" fill="#ffe4c8" fill-rule="evenodd" opacity="1" stroke="none"/>
<path d="M2467.72 2151.01C2467.23 2154.93 2470.19 2162.76 2466.25 2162.76C2462.3 2162.76 2465.27 2154.93 2464.78 2151.01" fill="#ffe4c8" fill-rule="evenodd" opacity="1" stroke="none"/>
<path d="M1566.84 972.579C1559.11 972.305 1547.58 977.343 1541.18 978.412C1513.86 982.979 1483.6 997.672 1459.66 1012.08C1375.2 1062.91 1277.27 1123.23 1243.88 1223.71C1234.52 1251.87 1230.4 1281.67 1224.7 1310.28C1222.43 1321.67 1214.97 1332.59 1212.71 1343.95C1204.51 1385.06 1196.93 1427.9 1188.73 1469C1179.13 1517.16 1163.46 1571.8 1171.95 1622.91C1180.52 1674.5 1211.72 1705.09 1234.29 1750.37C1256.49 1794.91 1295.86 1821.75 1330.19 1856.19C1340.46 1866.48 1346.45 1882.12 1356.57 1892.26C1360.35 1896.05 1368.9 1900.55 1379.37 1905.26C1378.67 1901.38 1378.15 1897.47 1377.89 1893.44C1377.65 1889.82 1377.58 1887.01 1377.58 1883.41C1377.58 1866.53 1382.67 1846.34 1390.95 1828.25C1392.02 1825.91 1393.31 1823.84 1394.47 1821.6C1394.87 1820.64 1395.18 1819.67 1395.64 1818.73C1397.42 1815.1 1399.6 1811.8 1402.02 1808.65C1405.25 1803.81 1408.81 1799.42 1412.58 1795.3C1410.77 1793.02 1408.9 1790.84 1406.92 1788.85C1391.54 1773.43 1376.61 1764.12 1366.16 1743.16C1353.61 1717.99 1349.91 1688.93 1337.38 1663.8C1322.12 1633.17 1317.49 1602.48 1311.01 1570.01C1308.55 1557.68 1313.47 1543.86 1311.01 1531.53C1309.22 1522.57 1306.68 1512.38 1308.61 1502.67C1310.68 1492.3 1316.65 1482.3 1318.2 1471.41C1320.46 1455.55 1317.98 1439.09 1320.6 1423.31C1322.21 1413.64 1328.76 1404.5 1330.19 1394.45C1334.48 1364.34 1337.86 1307.4 1361.36 1283.83C1376.62 1268.52 1396.31 1255.99 1411.71 1240.54C1431.21 1220.98 1450.92 1188.41 1476.45 1175.61L1574.75 980.817C1574.75 974.815 1571.48 972.743 1566.84 972.579Z" fill="#ffe4c8" fill-rule="evenodd" opacity="1" stroke="none"/>
<path d="M1498.04 1161.2C1528.62 1142.79 1552.23 1116.56 1581.95 1098.67C1590.78 1093.36 1602.87 1083.58 1610.72 1091.46" fill="#ffe4c8" fill-rule="evenodd" opacity="1" stroke="none"/>
<path d="M1816.91 985.649C1831.95 985.649 1863.77 999.425 1876.84 1007.29C1886.32 1013 1890.03 1025.03 1898.42 1031.34C1912.04 1041.59 1930.01 1047.29 1943.97 1057.79C1983.43 1087.47 2006.02 1134.53 2044.67 1163.6C2064.93 1178.85 2076.83 1206.47 2087.83 1228.53C2089.7 1232.3 2095.84 1247.49 2102.21 1245.36C2110.43 1242.61 2120.73 1221.39 2126.19 1214.1C2135.22 1202.02 2169.02 1172.86 2181.33 1163.6C2218.68 1135.5 2250.45 1101.4 2286.82 1072.22C2309.16 1054.3 2336.32 1037 2356.35 1016.91C2368.04 1005.18 2384.43 971.45 2399.5 966.411C2404.82 964.632 2478.62 1005.89 2478.62 1014.51C2478.62 1027.99 2436.59 1054.26 2425.88 1065.01C2402.96 1088 2390.06 1113.7 2370.73 1139.55C2354.47 1161.3 2330.01 1179.93 2308.4 1197.27C2291.8 1210.59 2285.35 1231.57 2272.44 1247.77C2257.9 1265.99 2233.48 1274.82 2217.29 1291.05C2198.11 1310.29 2184.54 1334.33 2162.15 1351.17C2147.93 1361.87 2117.31 1386.43 2097.42 1382.44C2081.7 1379.28 2076.12 1361.87 2061.45 1355.98C2018.24 1338.65 1995.96 1304.73 1963.15 1271.82C1938.76 1247.35 1901.54 1232.39 1886.43 1202.08" fill="#ffe4c8" fill-rule="evenodd" opacity="1" stroke="none"/>
<path d="M2534.96 881.041C2463.92 836.327 2351 952.77 2433.07 1014.51C2467.98 1040.77 2530.57 1051.37 2564.93 1016.91C2573.77 1008.05 2567.63 993.774 2569.73 983.244C2578.42 939.674 2572.68 904.779 2534.96 881.041Z" fill="#ffe4c8" fill-rule="evenodd" opacity="1" stroke="none"/>
<path d="M2425.88 949.577C2412.83 923.405 2385.79 822.818 2423.48 807.696C2452.65 795.992 2479.38 871.742 2488.21 889.458" fill="#ffe4c8" fill-rule="evenodd" opacity="1" stroke="none"/>
<path d="M1673.05 899.077C1664.55 882.021 1634.95 929.548 1627.5 935.149C1613.96 945.339 1598.59 955.433 1584.35 964.006C1576.06 968.991 1565.2 968.782 1557.97 976.03C1556.71 977.297 1556.84 979.572 1555.58 980.839C1552.03 984.399 1543.59 983.362 1543.59 990.458C1543.59 1000.16 1547.61 1004.16 1550.78 1012.1C1558.19 1030.67 1568.26 1047.16 1577.15 1065.01C1588.57 1087.9 1600.16 1112.6 1608.32 1137.15C1610.41 1143.42 1610.52 1150.31 1613.12 1156.39C1614.95 1160.68 1618.58 1164.07 1620.31 1168.41C1624.8 1179.67 1632.13 1206.72 1639.49 1214.1C1643.03 1217.66 1647.56 1217.05 1651.48 1214.1C1655.21 1211.3 1655.87 1205.82 1658.67 1202.08C1667.73 1189.96 1678.61 1178.55 1689.84 1168.41C1710.59 1149.68 1732.75 1130.35 1747.38 1105.89C1752.02 1098.12 1752.64 1087.03 1756.97 1079.43C1764.24 1066.67 1778.79 1057.02 1788.14 1045.77C1792.21 1040.87 1795.74 1033.33 1800.12 1028.93C1801.39 1027.67 1803.93 1028.02 1804.92 1026.53C1805.81 1025.2 1804.53 1023.28 1804.92 1021.72C1807.66 1010.73 1816.75 1004.89 1826.5 1004.89" fill="#ffe4c8" fill-rule="evenodd" opacity="1" stroke="none"/>
<path d="M1378.02 1907.17C1388.21 1904.61 1396.1 1906.64 1403.38 1913.95" fill="#ffe4c8" fill-rule="evenodd" opacity="1" stroke="none"/>
</g>
<g id="Capa-2" vectornator:layerName="Capa 2">
<path d="M1394.93 1230.92C1405.57 1262.95 1424.28 1293.98 1430.89 1327.12C1461.92 1482.75 1462.21 1655.29 1416.51 1808.09C1397.97 1870.06 1377.14 1931.27 1358.96 1993.26C1350.53 2022.04 1345.76 2051.75 1334.99 2079.84C1330.95 2090.37 1296.6 2168.75 1299.02 2176.03C1300.89 2181.66 1329.03 2178.44 1332.59 2178.44C1358.9 2178.44 1385.47 2179.09 1411.71 2180.84C1471.28 2184.83 1531.27 2201.63 1591.53 2195.27C1657.14 2188.34 1722.77 2181.5 1788.14 2176.03C1854.74 2170.47 1921.88 2164.01 1989.53 2164.01C2006.71 2164.01 2024.08 2163.13 2041.26 2162.42C2039.26 2159.78 2038.14 2158.31 2037.13 2156.44C2036.18 2154.62 2036.2 2154.58 2035.7 2153.47C2035.27 2152.52 2034.94 2151.74 2034.63 2150.91C2034.32 2150.08 2034 2149.28 2033.71 2148.4C2028.77 2133.52 2019.31 2107.75 2011.01 2085.36C2005.48 2076.88 1999.83 2068.22 1997.29 2064.28C1984.1 2043.79 1973.74 2026.21 1965.15 2009.33C1932.19 1958.85 1906.61 1901.48 1886.44 1846.57C1851.73 1752.08 1851.57 1634.65 1862.46 1536.34C1866 1504.37 1871.25 1474.38 1876.85 1442.55C1879.89 1425.23 1879.55 1403.81 1886.44 1387.24C1896.72 1362.47 1908.07 1334.23 1920 1310.28C1931.29 1287.64 1947.88 1267.28 1955.97 1242.95L1394.93 1230.92Z" fill="#ffb4b4" fill-rule="evenodd" opacity="1" stroke="none"/>
<path d="M1557.97 973.625C1513.71 988.424 1478.41 982.418 1442.89 1012.1C1426.64 1025.69 1369.75 1068.34 1351.79 1079.43C1306.77 1107.22 1281 1133.61 1243.9 1170.82C1218.03 1196.76 1162.59 1211.19 1148 1247.77C1138.52 1271.52 1172.33 1310.65 1186.36 1324.72C1229.96 1368.45 1277.44 1408.87 1320.62 1452.17C1337.71 1469.32 1350.33 1484.69 1363.77 1502.67C1365.13 1504.49 1366.31 1507.48 1368.57 1507.48C1376.27 1507.48 1372.75 1469.23 1375.76 1464.2C1396.18 1430.06 1425.61 1397.83 1464.47 1384.84" fill="#ffb4b4" fill-rule="evenodd" opacity="1" stroke="none"/>
<path d="M1488.45 1372.82L1498.04 1370.41L1507.63 1370.41L1510.02 1375.22L1510.02 1375.22" fill="#ffb4b4" fill-rule="evenodd" opacity="1" stroke="none"/>
<path d="M1814.51 964.006C1846.2 964.006 1862.58 981.162 1888.83 992.863C1900.14 997.906 1913.49 998.586 1924.79 1004.89C1935.15 1010.66 1938.82 1020.54 1948.77 1026.53C1981.66 1046.32 2013.45 1067.37 2042.27 1091.46C2056.4 1103.26 2095.96 1140.57 2090.22 1163.6C2081.09 1200.23 2059.11 1242.89 2035.08 1271.82C2023.22 1286.09 2006.34 1296.62 1996.72 1312.7C1975.9 1347.51 1952.33 1414.32 1915.2 1432.94" fill="#ffb4b4" fill-rule="evenodd" opacity="1" stroke="none"/>
<path d="M1541.19 985.649C1558.59 985.649 1564.47 1015.18 1574.76 1028.93C1600.48 1063.33 1622.66 1092.95 1639.49 1132.34C1644.07 1143.07 1652.26 1153.53 1656.27 1163.6C1656.75 1164.8 1657.94 1182.47 1658.67 1182.84C1660.69 1183.85 1662.3 1179.97 1663.46 1178.03C1672.87 1162.3 1678.11 1144.63 1689.84 1129.94C1721.24 1090.56 1739.54 1039.96 1771.35 1000.08C1780.1 989.114 1796.19 968.815 1812.11 968.815C1834.47 968.815 1853.9 999.849 1864.86 1014.51C1903.78 1066.55 1931.06 1149.39 1912.81 1216.51C1904.12 1248.45 1884.05 1267.8 1864.86 1293.46C1849.46 1314.05 1835.8 1340.38 1812.11 1353.58C1741.87 1392.72 1641.62 1387.21 1565.17 1377.63C1517.28 1371.62 1470.45 1349.72 1426.11 1331.94C1413.24 1326.77 1378.29 1323.33 1390.15 1305.48" fill="#ffb4b4" fill-rule="evenodd" opacity="1" stroke="none"/>
<path d="M1915.2 1387.25C1919.07 1398.88 1926.3 1478.63 1931.99 1478.63C1948.29 1478.63 1987.71 1418.35 2001.52 1406.48C2020.29 1390.34 2041.53 1375.97 2059.06 1358.39C2079.2 1338.19 2089.13 1308.99 2109.4 1288.65C2132.58 1265.4 2158.77 1237.28 2166.94 1204.48C2169.06 1196 2142.99 1174.84 2138.17 1170.82C2121.63 1156.99 2105.11 1139.09 2087.83 1127.53C2075.04 1118.98 2060.99 1117.44 2049.47 1105.89" fill="#ffb4b4" fill-rule="evenodd" opacity="1" stroke="none"/>
<path d="M1717.48 1252.26C1717.3 1252.15 1716.9 1252.22 1716.21 1252.57L1717.38 1252.98C1717.52 1252.64 1717.63 1252.35 1717.48 1252.26Z" fill="#ffb4b4" fill-rule="evenodd" opacity="1" stroke="none"/>
<path d="M1717.38 1252.98C1716.31 1255.48 1708.02 1264.03 1704.22 1267C1685.28 1281.77 1669.06 1295.15 1658.66 1317.5C1630.51 1378.01 1586.29 1427.37 1557.96 1488.24C1529.99 1548.38 1496.38 1605.74 1469.25 1666.2C1455.14 1697.66 1447.09 1731.26 1433.29 1762.4C1418.52 1795.73 1384.69 1825.93 1380.54 1863.4C1374.93 1914.04 1407.98 2037.62 1442.88 2072.62C1469.86 2099.69 1506.87 2117.45 1541.18 2132.74C1557.95 2140.22 1576.02 2135.15 1593.93 2135.15C1643.61 2135.15 1693.67 2137.55 1742.58 2137.55C1819 2137.55 1891.7 2156.79 1967.96 2156.79C1979.04 2156.79 2035.62 2169.1 2037.49 2161.6C2038.12 2159.08 1994.09 2084.17 1989.53 2075.03C1984.16 2064.25 1982.07 2049.28 1979.64 2035.73C1962.11 2005.98 1950.62 1980.92 1942.19 1952.18C1933 1920.8 1926.65 1895.65 1921.99 1871.13C1909.89 1850.68 1896.78 1830.33 1891.23 1808.09C1871.99 1730.88 1870.27 1652.25 1881.64 1572.41C1887.58 1530.73 1883.3 1491.21 1893.63 1449.76C1900.57 1421.91 1921.52 1398.18 1936.79 1375.21C1944.13 1364.17 1945.21 1348.69 1951.17 1336.74L1717.38 1252.98Z" fill="#ffb4b4" fill-rule="evenodd" opacity="1" stroke="none"/>
</g>
<g id="Capa-3" vectornator:layerName="Capa 3">
<path d="M1416.91 1785.06L1414.11 1793.66C1415.36 1792.36 1416.62 1791.09 1417.93 1789.87C1417.4 1788.41 1416.91 1786.9 1416.91 1785.06Z" fill="#ffe4c8" fill-rule="evenodd" opacity="1" stroke="none"/>
<path d="M1407.61 1795.23C1427.81 1801.99 1448.63 1807.75 1470.17 1811.35C1478.07 1812.67 1493.4 1811.75 1499.76 1818.13C1502.21 1820.59 1478 1850.52 1476.09 1856.29C1469.8 1875.2 1458.73 1891.1 1449.88 1908.86C1448.17 1912.29 1444.64 1924.16 1440.58 1924.97C1428.48 1927.4 1376.71 1913.15 1367.87 1902.08C1364.08 1897.32 1346.31 1874.31 1353.5 1870.7" fill="#ffe4c8" fill-rule="evenodd" opacity="1" stroke="none"/>
<path d="M1497.22 1789.3C1485.85 1834.94 1460.86 1877.66 1433.82 1915.64C1426.1 1926.47 1419.33 1939.5 1410.14 1948.72C1409.83 1949.03 1406.47 1952.51 1406.76 1952.96C1410.57 1958.69 1434.44 1964.77 1441.42 1966.52C1477.48 1975.56 1513.02 1976.88 1549.64 1970.76C1559.86 1969.05 1580.09 1974.57 1588.52 1968.22C1597.47 1961.49 1597.78 1933.91 1598.67 1924.12C1601.45 1893.39 1602.99 1861 1596.98 1830.85C1594.72 1819.51 1599.69 1804.91 1594.44 1794.39" fill="#ff9c9c" fill-rule="evenodd" opacity="1" stroke="none"/>
<path d="M1799.03 1802.02C1788.84 1798.61 1770.19 1803.2 1759.3 1804.56C1754.5 1805.16 1723.25 1802.26 1721.25 1806.26C1708.37 1832.1 1718.42 1877.55 1713.64 1906.32C1711.2 1921.04 1699.44 1960.92 1706.04 1974.15C1708.31 1978.72 1791.64 1978.39 1801.57 1978.39C1809.52 1978.39 1883.08 1970.9 1884.42 1968.22C1885.77 1965.5 1858.75 1930.86 1856.52 1925.82C1840.5 1889.66 1829.46 1839.74 1829.46 1800.32" fill="#ff9c9c" fill-rule="evenodd" opacity="1" stroke="none"/>
<path d="M1549.64 980.345C1549.64 976.037 1544.85 977.801 1541.18 977.801C1531.93 977.801 1453.26 993.565 1453.26 1008.33C1453.26 1009.29 1466.81 1011.45 1467.63 1011.72C1472.27 1013.27 1481.26 1021.33 1485.39 1024.44C1514.71 1046.5 1550.23 1070.83 1576.69 1097.36C1587.52 1108.23 1651.34 1197.22 1657 1199.12C1658.86 1199.74 1667.47 1193.44 1669.68 1192.33" fill="#ff9c9c" fill-rule="evenodd" opacity="1" stroke="none"/>
<path d="M1875.96 986.281C1868.08 970.473 1811.32 958.346 1798.18 969.321C1750.09 1009.52 1708.81 1074 1680.67 1130.43C1674.35 1143.11 1646.04 1199.12 1671.37 1199.12" fill="#ff9c9c" fill-rule="evenodd" opacity="1" stroke="none"/>
<path d="M1662.92 1189.79C1662.92 1189.79 1674.76 2140.05 1678.14 2171.73" fill="none" fill-rule="evenodd" opacity="1" stroke="#ff9c9c" stroke-linecap="round" stroke-linejoin="round" stroke-width="36.9413"/>
<path d="M1639.19 926.396C1536.22 952.218 1431.21 1039.28 1454.71 1142.97C1462.59 1177.77 1475.71 1208.44 1492.97 1239.6C1495.07 1243.39 1512.7 1268.48 1514.15 1267.02" fill="none" fill-rule="evenodd" opacity="1" stroke="#7d6b6b" stroke-linecap="round" stroke-linejoin="round" stroke-width="36.9413"/>
<path d="M1697.27 920.228C1715.77 910.953 1777.9 920.228 1798.4 935.306C1850.13 973.359 1869.46 1009.08 1869.46 1066.21" fill="none" fill-rule="evenodd" opacity="1" stroke="#7d6b6b" stroke-linecap="round" stroke-linejoin="round" stroke-width="36.9413"/>
<path d="M1728.02 1277.98C1728.02 1240.42 1721.91 1206.78 1730.75 1168.32C1746.09 1101.66 1821.86 1038.49 1891.33 1071C1967.54 1106.68 1922.71 1215.51 1895.43 1266.33C1887.16 1281.73 1870.97 1297.61 1859.21 1310.88C1854.52 1316.17 1850.4 1321.51 1844.86 1325.96C1843.21 1327.28 1840.08 1332.52 1840.08 1330.07" fill="none" fill-rule="evenodd" opacity="1" stroke="#7d6b6b" stroke-linecap="round" stroke-linejoin="round" stroke-width="36.9413"/>
<path d="M1724.95 1277.3L1725.63 1277.3C1732.99 1277.3 1738.95 1283.28 1738.95 1290.66L1738.95 1290.66C1738.95 1298.04 1732.99 1304.02 1725.63 1304.02L1724.95 1304.02C1717.59 1304.02 1711.62 1298.04 1711.62 1290.66L1711.62 1290.66C1711.62 1283.28 1717.59 1277.3 1724.95 1277.3Z" fill="none" fill-rule="evenodd" opacity="1" stroke="#d9d9d9" stroke-linecap="round" stroke-linejoin="round" stroke-width="36.9413"/>
<path d="M1825.73 1304.71L1828.46 1304.71C1836.39 1304.71 1842.81 1311.15 1842.81 1319.1L1842.81 1319.1C1842.81 1327.05 1836.39 1333.49 1828.46 1333.49L1825.73 1333.49C1817.81 1333.49 1811.38 1327.05 1811.38 1319.1L1811.38 1319.1C1811.38 1311.15 1817.81 1304.71 1825.73 1304.71Z" fill="none" fill-rule="evenodd" opacity="1" stroke="#d9d9d9" stroke-linecap="round" stroke-linejoin="round" stroke-width="36.9413"/>
<path d="M1551.39 1256.05L1551.39 1256.05C1568.19 1256.05 1581.8 1269.7 1581.8 1286.55L1581.8 1287.92C1581.8 1304.76 1568.19 1318.42 1551.39 1318.42L1551.39 1318.42C1534.6 1318.42 1520.99 1304.76 1520.99 1287.92L1520.99 1286.55C1520.99 1269.7 1534.6 1256.05 1551.39 1256.05Z" fill="none" fill-rule="evenodd" opacity="1" stroke="#d9d9d9" stroke-linecap="round" stroke-linejoin="round" stroke-width="36.9413"/>
<path d="M1556.52 1273.18L1556.52 1273.18C1563.31 1273.18 1568.82 1278.71 1568.82 1285.52L1568.82 1289.63C1568.82 1296.44 1563.31 1301.97 1556.52 1301.97L1556.52 1301.97C1549.72 1301.97 1544.22 1296.44 1544.22 1289.63L1544.22 1285.52C1544.22 1278.71 1549.72 1273.18 1556.52 1273.18Z" fill="none" fill-rule="evenodd" opacity="1" stroke="#b7b7b7" stroke-linecap="round" stroke-linejoin="round" stroke-width="36.9413"/>
</g>
<g id="Capa-4" vectornator:layerName="Capa 4">
<path d="M1649.4 863.094C1647.18 863.094 1630.43 919.922 1628.06 926.926C1623.24 941.163 1595.89 973.06 1603.77 988.582C1607.24 995.423 1633.68 996.882 1639.83 997.287C1668.71 999.183 1727.13 1011.58 1754.67 998.012C1761.82 994.489 1759.08 967.315 1759.08 961.018C1759.08 938.081 1732.93 854.323 1742.89 842.058" fill="#ffe3c4" fill-rule="evenodd" opacity="1" stroke="none"/>
<path d="M1668.98 403.195C1668.98 556.034 1505.84 627.087 1371.66 627.087" fill="#a27f58" fill-rule="evenodd" opacity="1" stroke="none"/>
<path d="M1660.16 412.93C1640.16 473.111 1712.36 584.166 1761.62 613.812C1795.58 634.248 1843.24 641.423 1881.61 646.555C1901.95 649.275 1994.37 660.18 2006.9 635.051" fill="#a27f58" fill-rule="evenodd" opacity="1" stroke="none"/>
<path d="M1392.83 621.777C1367.82 634.322 1365.8 525.06 1369.89 510.274C1393.24 425.973 1443.46 347.806 1515.47 299.657C1638.3 217.524 1804.01 237.672 1894.85 353.638C1914.24 378.399 1938.47 398.673 1953.08 427.974C1964.82 451.528 1966.31 482.52 1966.31 508.504C1966.31 539.094 1975.82 590.119 1952.2 613.812C1941.8 624.238 1902.12 598.932 1894.85 593.459C1846.16 556.834 1774.99 552.001 1731.63 508.504C1718.24 495.076 1681.38 436.479 1665.46 433.283C1628.17 425.804 1599.44 477.184 1566.64 488.15" fill="#a27f58" fill-rule="evenodd" opacity="1" stroke="none"/>
<path d="M1590.46 283.728C1536.63 283.728 1579.27 203.978 1599.28 189.923C1694.75 122.899 1839.97 182.311 1778.39 305.851" fill="#a27f58" fill-rule="evenodd" opacity="1" stroke="none"/>
<path d="M1661.7 424.226C1646.05 434.692 1642.77 478.285 1637.13 495.272C1626.72 526.586 1588.1 556.966 1560.51 573.569C1496.68 611.985 1415.73 650.416 1339.34 650.416C1330.22 650.416 1284.65 660.198 1280.07 653.315C1278.12 650.373 1285.95 643.529 1287.3 641.716C1309.68 611.782 1338.05 581.811 1369.7 561.969C1389.98 549.253 1404.66 530.989 1424.63 518.471C1512.22 463.559 1633.4 435.825 1735.43 435.825" fill="#a27f58" fill-rule="evenodd" opacity="1" stroke="none"/>
<path d="M1681.94 454.674C1674.46 477.176 1694.02 483.171 1699.29 502.522C1703.76 518.979 1716.48 549.514 1729.64 560.52C1738.41 567.844 1755.2 567.873 1765.78 572.119C1818.53 593.282 1872.09 623.393 1929.13 631.566C1939.45 633.044 2023.66 651.61 2027.43 640.266C2029.44 634.225 1970.11 601.619 1965.27 596.768C1916.43 547.781 1858.75 490.424 1796.14 459.024C1772.2 447.017 1681.79 434.873 1674.71 424.226" fill="#a27f58" fill-rule="evenodd" opacity="1" stroke="none"/>
</g>
</svg>
