<?xml version="1.0" encoding="UTF-8" standalone="no"?>
<!DOCTYPE svg PUBLIC "-//W3C//DTD SVG 1.1//EN" "http://www.w3.org/Graphics/SVG/1.1/DTD/svg11.dtd"
[
<!ATTLIST g
  xmlns:vectornator CDATA #FIXED "http://vectornator.io"
  vectornator:layerName CDATA #IMPLIED >
<!ATTLIST g
  xmlns:vectornator CDATA #FIXED "http://vectornator.io"
  vectornator:mask CDATA #IMPLIED >
<!ATTLIST text
  xmlns:vectornator CDATA #FIXED "http://vectornator.io"
  vectornator:width CDATA #IMPLIED >
<!ATTLIST text
  xmlns:vectornator CDATA #FIXED "http://vectornator.io"
  vectornator:text CDATA #IMPLIED >

<!ATTLIST path
  xmlns:vectornator CDATA #FIXED "http://vectornator.io"
  vectornator:blendMode CDATA #IMPLIED >
<!ATTLIST path
  xmlns:vectornator CDATA #FIXED "http://vectornator.io"
  vectornator:shadowColor CDATA #IMPLIED >
<!ATTLIST path
  xmlns:vectornator CDATA #FIXED "http://vectornator.io"
  vectornator:shadowOpacity CDATA #IMPLIED >
<!ATTLIST path
  xmlns:vectornator CDATA #FIXED "http://vectornator.io"
  vectornator:shadowRadius CDATA #IMPLIED >
<!ATTLIST path
  xmlns:vectornator CDATA #FIXED "http://vectornator.io"
  vectornator:shadowOffset CDATA #IMPLIED >
<!ATTLIST path
  xmlns:vectornator CDATA #FIXED "http://vectornator.io"
  vectornator:shadowAngle CDATA #IMPLIED >

<!ATTLIST image
  xmlns:vectornator CDATA #FIXED "http://vectornator.io"
  vectornator:blendMode CDATA #IMPLIED >
<!ATTLIST image
  xmlns:vectornator CDATA #FIXED "http://vectornator.io"
  vectornator:shadowColor CDATA #IMPLIED >
<!ATTLIST image
  xmlns:vectornator CDATA #FIXED "http://vectornator.io"
  vectornator:shadowOpacity CDATA #IMPLIED >
<!ATTLIST image
  xmlns:vectornator CDATA #FIXED "http://vectornator.io"
  vectornator:shadowRadius CDATA #IMPLIED >
<!ATTLIST image
  xmlns:vectornator CDATA #FIXED "http://vectornator.io"
  vectornator:shadowOffset CDATA #IMPLIED >
<!ATTLIST image
  xmlns:vectornator CDATA #FIXED "http://vectornator.io"
  vectornator:shadowAngle CDATA #IMPLIED >

<!ATTLIST g
  xmlns:vectornator CDATA #FIXED "http://vectornator.io"
  vectornator:blendMode CDATA #IMPLIED >
<!ATTLIST g
  xmlns:vectornator CDATA #FIXED "http://vectornator.io"
  vectornator:shadowColor CDATA #IMPLIED >
<!ATTLIST g
  xmlns:vectornator CDATA #FIXED "http://vectornator.io"
  vectornator:shadowOpacity CDATA #IMPLIED >
<!ATTLIST g
  xmlns:vectornator CDATA #FIXED "http://vectornator.io"
  vectornator:shadowRadius CDATA #IMPLIED >
<!ATTLIST g
  xmlns:vectornator CDATA #FIXED "http://vectornator.io"
  vectornator:shadowOffset CDATA #IMPLIED >
<!ATTLIST g
  xmlns:vectornator CDATA #FIXED "http://vectornator.io"
  vectornator:shadowAngle CDATA #IMPLIED >

<!ENTITY % SVG.filter.extra.content  "| feDropShadow" >
<!ELEMENT feDropShadow EMPTY>
<!ATTLIST feDropShadow
  xmlns:svg CDATA #FIXED "http://www.w3.org/Graphics/SVG/1.1/DTD/svg11.dtd"
  dx CDATA #IMPLIED>
<!ATTLIST feDropShadow
  xmlns:svg CDATA #FIXED "http://www.w3.org/Graphics/SVG/1.1/DTD/svg11.dtd"
  dy CDATA #IMPLIED>
<!ATTLIST feDropShadow
  xmlns:svg CDATA #FIXED "http://www.w3.org/Graphics/SVG/1.1/DTD/svg11.dtd"
  stdDeviation CDATA #IMPLIED>
<!ATTLIST feDropShadow
  xmlns:svg CDATA #FIXED "http://www.w3.org/Graphics/SVG/1.1/DTD/svg11.dtd"
  flood-opacity CDATA #IMPLIED>
<!ATTLIST feDropShadow
  xmlns:svg CDATA #FIXED "http://www.w3.org/Graphics/SVG/1.1/DTD/svg11.dtd"
  in CDATA #IMPLIED>
<!ATTLIST feDropShadow
  xmlns:svg CDATA #FIXED "http://www.w3.org/Graphics/SVG/1.1/DTD/svg11.dtd"
  result CDATA #IMPLIED>
<!ATTLIST feDropShadow
  xmlns:svg CDATA #FIXED "http://www.w3.org/Graphics/SVG/1.1/DTD/svg11.dtd"
  flood-color CDATA #IMPLIED>
]
>
<!-- Created with Vectornator (http://vectornator.io/) -->
<svg height="100%" stroke-miterlimit="10" style="fill-rule:nonzero;clip-rule:evenodd;stroke-linecap:round;stroke-linejoin:round;" version="1.1" viewBox="0 0 3370.82 2384.24" width="100%" xml:space="preserve" xmlns="http://www.w3.org/2000/svg" xmlns:vectornator="http://vectornator.io" xmlns:xlink="http://www.w3.org/1999/xlink">
<defs>
<filter color-interpolation-filters="sRGB" filterUnits="userSpaceOnUse" height="85.6465" id="Filter" width="954.195" x="700.11" y="1898.51">
<feDropShadow dx="-4.59862e-05" dy="12.5194" flood-color="#000000" flood-opacity="0.333" in="SourceGraphic" result="Shadow" stdDeviation="14.593"/>
</filter>
<filter color-interpolation-filters="sRGB" filterUnits="userSpaceOnUse" height="88.1709" id="Filter_2" width="1303.67" x="701.717" y="1742.27">
<feDropShadow dx="-4.59862e-05" dy="12.5194" flood-color="#000000" flood-opacity="0.333" in="SourceGraphic" result="Shadow" stdDeviation="14.593"/>
</filter>
<filter color-interpolation-filters="sRGB" filterUnits="userSpaceOnUse" height="88.1709" id="Filter_3" width="1303.67" x="703.323" y="1608.56">
<feDropShadow dx="-4.59862e-05" dy="12.5194" flood-color="#000000" flood-opacity="0.333" in="SourceGraphic" result="Shadow" stdDeviation="14.593"/>
</filter>
<filter color-interpolation-filters="sRGB" filterUnits="userSpaceOnUse" height="88.1709" id="Filter_4" width="1303.67" x="701.717" y="1474.85">
<feDropShadow dx="-4.59862e-05" dy="12.5194" flood-color="#000000" flood-opacity="0.333" in="SourceGraphic" result="Shadow" stdDeviation="14.593"/>
</filter>
<filter color-interpolation-filters="sRGB" filterUnits="userSpaceOnUse" height="88.1709" id="Filter_5" width="1303.67" x="706.537" y="1331.11">
<feDropShadow dx="-4.59862e-05" dy="12.5194" flood-color="#000000" flood-opacity="0.333" in="SourceGraphic" result="Shadow" stdDeviation="14.593"/>
</filter>
<filter color-interpolation-filters="sRGB" filterUnits="userSpaceOnUse" height="88.1709" id="Filter_6" width="1303.67" x="704.93" y="1179.02">
<feDropShadow dx="-4.59862e-05" dy="12.5194" flood-color="#000000" flood-opacity="0.333" in="SourceGraphic" result="Shadow" stdDeviation="14.593"/>
</filter>
<filter color-interpolation-filters="sRGB" filterUnits="userSpaceOnUse" height="88.1709" id="Filter_7" width="1303.67" x="718.239" y="1008.49">
<feDropShadow dx="-4.59862e-05" dy="12.5194" flood-color="#000000" flood-opacity="0.333" in="SourceGraphic" result="Shadow" stdDeviation="14.593"/>
</filter>
<filter color-interpolation-filters="sRGB" filterUnits="userSpaceOnUse" height="88.1709" id="Filter_8" width="1303.67" x="711.357" y="851.429">
<feDropShadow dx="-4.59862e-05" dy="12.5194" flood-color="#000000" flood-opacity="0.333" in="SourceGraphic" result="Shadow" stdDeviation="14.593"/>
</filter>
<filter color-interpolation-filters="sRGB" filterUnits="userSpaceOnUse" height="70.0097" id="Filter_9" width="70.0018" x="912.785" y="1629.21">
<feDropShadow dx="-4.59862e-05" dy="12.5194" flood-color="#000000" flood-opacity="0.333" in="SourceGraphic" result="Shadow" stdDeviation="14.593"/>
</filter>
<filter color-interpolation-filters="sRGB" filterUnits="userSpaceOnUse" height="373.745" id="Filter_10" width="374.012" x="1144.48" y="276.07">
<feDropShadow dx="-7.83048e-05" dy="21.3178" flood-color="#000000" flood-opacity="0.333" in="SourceGraphic" result="Shadow" stdDeviation="9.44767"/>
</filter>
<filter color-interpolation-filters="sRGB" filterUnits="userSpaceOnUse" height="273.532" id="Filter_11" width="90.1895" x="1295.81" y="563.256">
<feDropShadow dx="-7.83048e-05" dy="21.3178" flood-color="#000000" flood-opacity="0.333" in="SourceGraphic" result="Shadow" stdDeviation="9.44767"/>
</filter>
<filter color-interpolation-filters="sRGB" filterUnits="userSpaceOnUse" height="90.5943" id="Filter_12" width="265.729" x="1209.72" y="665.486">
<feDropShadow dx="-7.83048e-05" dy="21.3178" flood-color="#000000" flood-opacity="0.333" in="SourceGraphic" result="Shadow" stdDeviation="9.44767"/>
</filter>
</defs>
<g id="Capa-1" vectornator:layerName="Capa 1">
<path d="M631.728 185.652L2094.55 185.652C2095.47 185.652 2096.21 186.421 2096.21 187.37L2096.21 2286.22C2096.21 2287.17 2095.47 2287.94 2094.55 2287.94L631.728 2287.94C630.816 2287.94 630.076 2287.17 630.076 2286.22L630.076 1256.59L630.076 187.37C630.076 186.421 630.816 185.652 631.728 185.652Z" fill="#fcf7e1" fill-rule="evenodd" opacity="1" stroke="#fcf5d2" stroke-linecap="round" stroke-linejoin="round" stroke-width="14.7008"/>
<path d="M1619.55 1936.87L734.87 1920.75" fill="none" fill-rule="evenodd" filter="url(#Filter)" stroke="#939393" stroke-linecap="round" stroke-linejoin="round" stroke-width="11.1474" vectornator:shadowAngle="1.5708" vectornator:shadowColor="#000000" vectornator:shadowOffset="12.5194" vectornator:shadowOpacity="0.333" vectornator:shadowRadius="29.186"/>
<path d="M1970.62 1783.16L736.476 1764.51" fill="none" fill-rule="evenodd" filter="url(#Filter_2)" stroke="#939393" stroke-linecap="round" stroke-linejoin="round" stroke-width="11.1474" vectornator:shadowAngle="1.5708" vectornator:shadowColor="#000000" vectornator:shadowOffset="12.5194" vectornator:shadowOpacity="0.333" vectornator:shadowRadius="29.186"/>
<path d="M1972.23 1649.45L738.083 1630.8" fill="none" fill-rule="evenodd" filter="url(#Filter_3)" stroke="#939393" stroke-linecap="round" stroke-linejoin="round" stroke-width="11.1474" vectornator:shadowAngle="1.5708" vectornator:shadowColor="#000000" vectornator:shadowOffset="12.5194" vectornator:shadowOpacity="0.333" vectornator:shadowRadius="29.186"/>
<path d="M1970.62 1515.74L736.476 1497.09" fill="none" fill-rule="evenodd" filter="url(#Filter_4)" stroke="#939393" stroke-linecap="round" stroke-linejoin="round" stroke-width="11.1474" vectornator:shadowAngle="1.5708" vectornator:shadowColor="#000000" vectornator:shadowOffset="12.5194" vectornator:shadowOpacity="0.333" vectornator:shadowRadius="29.186"/>
<path d="M1975.44 1372L741.296 1353.35" fill="none" fill-rule="evenodd" filter="url(#Filter_5)" stroke="#939393" stroke-linecap="round" stroke-linejoin="round" stroke-width="11.1474" vectornator:shadowAngle="1.5708" vectornator:shadowColor="#000000" vectornator:shadowOffset="12.5194" vectornator:shadowOpacity="0.333" vectornator:shadowRadius="29.186"/>
<path d="M1973.84 1219.91L739.69 1201.26" fill="none" fill-rule="evenodd" filter="url(#Filter_6)" stroke="#939393" stroke-linecap="round" stroke-linejoin="round" stroke-width="11.1474" vectornator:shadowAngle="1.5708" vectornator:shadowColor="#000000" vectornator:shadowOffset="12.5194" vectornator:shadowOpacity="0.333" vectornator:shadowRadius="29.186"/>
<path d="M1987.15 1049.39L752.999 1030.73" fill="none" fill-rule="evenodd" filter="url(#Filter_7)" stroke="#939393" stroke-linecap="round" stroke-linejoin="round" stroke-width="11.1474" vectornator:shadowAngle="1.5708" vectornator:shadowColor="#000000" vectornator:shadowOffset="12.5194" vectornator:shadowOpacity="0.333" vectornator:shadowRadius="29.186"/>
<path d="M1980.27 892.321L746.116 873.669" fill="none" fill-rule="evenodd" filter="url(#Filter_8)" stroke="#939393" stroke-linecap="round" stroke-linejoin="round" stroke-width="11.1474" vectornator:shadowAngle="1.5708" vectornator:shadowColor="#000000" vectornator:shadowOffset="12.5194" vectornator:shadowOpacity="0.333" vectornator:shadowRadius="29.186"/>
<path d="M2394.79 1054.64L2457.36 1124.61C2457.76 1125.05 2457.68 1125.84 2457.19 1126.36L1768.87 1853.57C1768.38 1854.09 1767.65 1854.15 1767.25 1853.71L1704.68 1783.74C1704.28 1783.29 1704.36 1782.51 1704.85 1781.99L2393.17 1054.78C2393.67 1054.26 2394.39 1054.19 2394.79 1054.64Z" fill="#c9c9c9" fill-rule="evenodd" opacity="1" stroke="none"/>
<path d="M2520.78 924.152L2578.31 988.486C2584.7 995.632 2583.47 1008.2 2575.57 1016.55L2466.4 1131.89C2458.49 1140.24 2446.9 1141.22 2440.51 1134.08L2382.97 1069.74C2376.58 1062.6 2377.81 1050.03 2385.72 1041.68L2494.89 926.34C2502.79 917.985 2514.39 917.006 2520.78 924.152Z" fill="#939393" fill-rule="evenodd" opacity="1" stroke="none"/>
<path d="M2562.44 906.832L2600.68 949.594C2607.08 956.74 2606.02 969.118 2598.34 977.24L2591.36 984.606C2583.68 992.728 2572.26 993.52 2565.87 986.374L2527.63 943.612C2521.24 936.466 2522.29 924.088 2529.98 915.965L2536.95 908.6C2544.64 900.477 2556.05 899.686 2562.44 906.832Z" fill="#939393" fill-rule="evenodd" opacity="1" stroke="none"/>
<path d="M2570.81 1027.29L2579.58 1037.1C2584.43 1042.52 2583.49 1052.04 2577.5 1058.37L2577.5 1058.37C2571.51 1064.7 2562.73 1065.44 2557.88 1060.03L2549.11 1050.22C2544.27 1044.81 2545.2 1035.28 2551.19 1028.95L2551.19 1028.95C2557.19 1022.62 2565.97 1021.88 2570.81 1027.29Z" fill="#939393" fill-rule="evenodd" opacity="1" stroke="none"/>
<path d="M2579.4 1043.97L2579.4 1043.97C2584 1049.12 2583.11 1058.16 2577.42 1064.18L2349.55 1304.92C2343.86 1310.93 2335.52 1311.64 2330.91 1306.49L2330.91 1306.49C2326.31 1301.35 2327.2 1292.3 2332.89 1286.29L2560.76 1045.55C2566.45 1039.53 2574.8 1038.83 2579.4 1043.97Z" fill="#939393" fill-rule="evenodd" opacity="1" stroke="none"/>
<path d="M1711.05 1783.51L1767.51 1846.64C1773.52 1853.35 1773.38 1864.09 1767.2 1870.61L1762.31 1875.78C1756.14 1882.3 1746.26 1882.15 1740.26 1875.44C1740.26 1875.44 1648.66 1948.93 1634.54 1933.14C1620.43 1917.36 1683.8 1812.31 1683.8 1812.31C1677.8 1805.59 1677.94 1794.86 1684.11 1788.34L1689 1783.17C1695.18 1776.65 1705.05 1776.8 1711.05 1783.51Z" fill="#c9c9c9" fill-rule="evenodd" opacity="1" stroke="none"/>
<path d="M1706.03 1767.79L1776.83 1846.96C1782.83 1853.67 1786.12 1860.77 1784.18 1862.82L1758.72 1889.72C1756.78 1891.77 1750.35 1887.99 1744.34 1881.27L1708.7 1841.42L1673.55 1802.11C1667.54 1795.4 1664.25 1788.3 1666.19 1786.25L1691.65 1759.35C1693.59 1757.3 1700.03 1761.08 1706.03 1767.79Z" fill="#939393" fill-rule="evenodd" opacity="1" stroke="none"/>
<path d="M948.015 1651.47L948.015 1651.47C948.031 1651.48 948.031 1651.51 948.014 1651.53L947.618 1651.93C947.601 1651.95 947.574 1651.95 947.557 1651.93L947.557 1651.93C947.54 1651.91 947.54 1651.88 947.558 1651.87L947.953 1651.47C947.97 1651.45 947.998 1651.45 948.015 1651.47Z" fill="none" fill-rule="evenodd" filter="url(#Filter_9)" stroke="#939393" stroke-linecap="round" stroke-linejoin="round" stroke-width="11.1474" vectornator:shadowAngle="1.5708" vectornator:shadowColor="#000000" vectornator:shadowOffset="12.5194" vectornator:shadowOpacity="0.333" vectornator:shadowRadius="29.186"/>
<path d="M1637.27 1930.82L1637.27 1930.82C1638.96 1932.72 1639.36 1935.28 1638.17 1936.54L1625.18 1950.26C1623.98 1951.53 1621.64 1951.02 1619.95 1949.12L1619.95 1949.12C1618.25 1947.23 1617.85 1944.67 1619.05 1943.4L1632.03 1929.68C1633.23 1928.42 1635.57 1928.93 1637.27 1930.82Z" fill="#939393" fill-rule="evenodd" opacity="1" stroke="none"/>
<path d="M1330.14 300.252L1332.83 300.252C1411.58 300.252 1475.41 364.089 1475.41 442.836L1475.41 442.836C1475.41 521.583 1411.58 585.42 1332.83 585.42L1330.14 585.42C1251.39 585.42 1187.56 521.583 1187.56 442.836L1187.56 442.836C1187.56 364.089 1251.39 300.252 1330.14 300.252Z" fill="none" fill-rule="evenodd" filter="url(#Filter_10)" stroke="#a57cd6" stroke-linecap="round" stroke-linejoin="round" stroke-width="48.3634" vectornator:shadowAngle="1.5708" vectornator:shadowColor="#000000" vectornator:shadowOffset="21.3178" vectornator:shadowOpacity="0.333" vectornator:shadowRadius="18.8953"/>
<path d="M1338.88 587.438L1342.92 772.394" fill="none" fill-rule="evenodd" filter="url(#Filter_11)" stroke="#a57cd6" stroke-linecap="round" stroke-linejoin="round" stroke-width="48.3634" vectornator:shadowAngle="1.5708" vectornator:shadowColor="#000000" vectornator:shadowOffset="21.3178" vectornator:shadowOpacity="0.333" vectornator:shadowRadius="18.8953"/>
<path d="M1252.79 691.686L1432.37 689.668" fill="none" fill-rule="evenodd" filter="url(#Filter_12)" stroke="#a57cd6" stroke-linecap="round" stroke-linejoin="round" stroke-width="48.3634" vectornator:shadowAngle="1.5708" vectornator:shadowColor="#000000" vectornator:shadowOffset="21.3178" vectornator:shadowOpacity="0.333" vectornator:shadowRadius="18.8953"/>
</g>
</svg>
