<?xml version="1.0" encoding="UTF-8" standalone="no"?>
<!DOCTYPE svg PUBLIC "-//W3C//DTD SVG 1.1//EN" "http://www.w3.org/Graphics/SVG/1.1/DTD/svg11.dtd"
[
<!ATTLIST g
  xmlns:vectornator CDATA #FIXED "http://vectornator.io"
  vectornator:layerName CDATA #IMPLIED >
<!ATTLIST g
  xmlns:vectornator CDATA #FIXED "http://vectornator.io"
  vectornator:mask CDATA #IMPLIED >
<!ATTLIST text
  xmlns:vectornator CDATA #FIXED "http://vectornator.io"
  vectornator:width CDATA #IMPLIED >
<!ATTLIST text
  xmlns:vectornator CDATA #FIXED "http://vectornator.io"
  vectornator:text CDATA #IMPLIED >

<!ATTLIST path
  xmlns:vectornator CDATA #FIXED "http://vectornator.io"
  vectornator:blendMode CDATA #IMPLIED >
<!ATTLIST path
  xmlns:vectornator CDATA #FIXED "http://vectornator.io"
  vectornator:shadowColor CDATA #IMPLIED >
<!ATTLIST path
  xmlns:vectornator CDATA #FIXED "http://vectornator.io"
  vectornator:shadowOpacity CDATA #IMPLIED >
<!ATTLIST path
  xmlns:vectornator CDATA #FIXED "http://vectornator.io"
  vectornator:shadowRadius CDATA #IMPLIED >
<!ATTLIST path
  xmlns:vectornator CDATA #FIXED "http://vectornator.io"
  vectornator:shadowOffset CDATA #IMPLIED >
<!ATTLIST path
  xmlns:vectornator CDATA #FIXED "http://vectornator.io"
  vectornator:shadowAngle CDATA #IMPLIED >

<!ATTLIST image
  xmlns:vectornator CDATA #FIXED "http://vectornator.io"
  vectornator:blendMode CDATA #IMPLIED >
<!ATTLIST image
  xmlns:vectornator CDATA #FIXED "http://vectornator.io"
  vectornator:shadowColor CDATA #IMPLIED >
<!ATTLIST image
  xmlns:vectornator CDATA #FIXED "http://vectornator.io"
  vectornator:shadowOpacity CDATA #IMPLIED >
<!ATTLIST image
  xmlns:vectornator CDATA #FIXED "http://vectornator.io"
  vectornator:shadowRadius CDATA #IMPLIED >
<!ATTLIST image
  xmlns:vectornator CDATA #FIXED "http://vectornator.io"
  vectornator:shadowOffset CDATA #IMPLIED >
<!ATTLIST image
  xmlns:vectornator CDATA #FIXED "http://vectornator.io"
  vectornator:shadowAngle CDATA #IMPLIED >

<!ATTLIST g
  xmlns:vectornator CDATA #FIXED "http://vectornator.io"
  vectornator:blendMode CDATA #IMPLIED >
<!ATTLIST g
  xmlns:vectornator CDATA #FIXED "http://vectornator.io"
  vectornator:shadowColor CDATA #IMPLIED >
<!ATTLIST g
  xmlns:vectornator CDATA #FIXED "http://vectornator.io"
  vectornator:shadowOpacity CDATA #IMPLIED >
<!ATTLIST g
  xmlns:vectornator CDATA #FIXED "http://vectornator.io"
  vectornator:shadowRadius CDATA #IMPLIED >
<!ATTLIST g
  xmlns:vectornator CDATA #FIXED "http://vectornator.io"
  vectornator:shadowOffset CDATA #IMPLIED >
<!ATTLIST g
  xmlns:vectornator CDATA #FIXED "http://vectornator.io"
  vectornator:shadowAngle CDATA #IMPLIED >

<!ENTITY % SVG.filter.extra.content  "| feDropShadow" >
<!ELEMENT feDropShadow EMPTY>
<!ATTLIST feDropShadow
  xmlns:svg CDATA #FIXED "http://www.w3.org/Graphics/SVG/1.1/DTD/svg11.dtd"
  dx CDATA #IMPLIED>
<!ATTLIST feDropShadow
  xmlns:svg CDATA #FIXED "http://www.w3.org/Graphics/SVG/1.1/DTD/svg11.dtd"
  dy CDATA #IMPLIED>
<!ATTLIST feDropShadow
  xmlns:svg CDATA #FIXED "http://www.w3.org/Graphics/SVG/1.1/DTD/svg11.dtd"
  stdDeviation CDATA #IMPLIED>
<!ATTLIST feDropShadow
  xmlns:svg CDATA #FIXED "http://www.w3.org/Graphics/SVG/1.1/DTD/svg11.dtd"
  flood-opacity CDATA #IMPLIED>
<!ATTLIST feDropShadow
  xmlns:svg CDATA #FIXED "http://www.w3.org/Graphics/SVG/1.1/DTD/svg11.dtd"
  in CDATA #IMPLIED>
<!ATTLIST feDropShadow
  xmlns:svg CDATA #FIXED "http://www.w3.org/Graphics/SVG/1.1/DTD/svg11.dtd"
  result CDATA #IMPLIED>
<!ATTLIST feDropShadow
  xmlns:svg CDATA #FIXED "http://www.w3.org/Graphics/SVG/1.1/DTD/svg11.dtd"
  flood-color CDATA #IMPLIED>
]
>
<!-- Created with Vectornator (http://vectornator.io/) -->
<svg height="100%" stroke-miterlimit="10" style="fill-rule:nonzero;clip-rule:evenodd;stroke-linecap:round;stroke-linejoin:round;" version="1.1" viewBox="0 0 3370.82 2384.24" width="100%" xml:space="preserve" xmlns="http://www.w3.org/2000/svg" xmlns:vectornator="http://vectornator.io" xmlns:xlink="http://www.w3.org/1999/xlink">
<defs/>
<g id="Capa-2" vectornator:layerName="Capa 2">
<path d="M1072.74 330.298L2184.4 330.298C2226.9 330.298 2261.36 366.415 2261.36 410.968L2261.36 2046.61C2261.36 2091.16 2226.9 2127.28 2184.4 2127.28L1072.74 2127.28C1030.24 2127.28 995.785 2091.16 995.785 2046.61L995.785 410.968C995.785 366.415 1030.24 330.298 1072.74 330.298Z" fill="#cab59c" fill-rule="evenodd" opacity="1" stroke="#a3937f" stroke-linecap="round" stroke-linejoin="round" stroke-width="3.56938"/>
</g>
<g id="Capa-1" vectornator:layerName="Capa 1">
<path d="M1064.59 438.771L2174.22 438.771C2174.91 438.771 2175.47 439.361 2175.47 440.089L2175.47 2050.5C2175.47 2051.23 2174.91 2051.82 2174.22 2051.82L1064.59 2051.82C1063.9 2051.82 1063.34 2051.23 1063.34 2050.5L1063.34 1260.48L1063.34 440.089C1063.34 439.361 1063.9 438.771 1064.59 438.771Z" fill="#fcf7e1" fill-rule="evenodd" opacity="1" stroke="#fcf5d2" stroke-linecap="round" stroke-linejoin="round" stroke-width="14.7008"/>
<path d="M1421.01 904.295C1415.63 909.735 1411.06 915.936 1406.05 921.726C1396.93 932.266 1385.9 940.955 1376.16 950.811C1366.52 960.56 1359.04 972.151 1349.73 982.198C1341.44 991.137 1332.1 998.242 1324.44 1007.78C1319.13 1014.39 1315.95 1022.5 1311.78 1029.89C1303.35 1044.82 1291.42 1057.93 1283.05 1072.91C1276.7 1084.27 1270.35 1099 1265.79 1111.29C1260.86 1124.58 1258.35 1136.38 1250.86 1148.51L1421.01 904.295Z" fill="none" fill-rule="evenodd" opacity="1" stroke="none"/>
<path d="M1155.6 742.519L1322.93 742.519C1326.57 742.519 1329.52 745.501 1329.52 749.179L1329.52 912.626C1329.52 916.304 1326.57 919.285 1322.93 919.285L1155.6 919.285C1151.96 919.285 1149.01 916.304 1149.01 912.626L1149.01 749.179C1149.01 745.501 1151.96 742.519 1155.6 742.519Z" fill="none" fill-rule="evenodd" opacity="1" stroke="#969696" stroke-linecap="round" stroke-linejoin="round" stroke-width="14.7008"/>
<path d="M1161.35 1283.29L1328.68 1283.29C1332.32 1283.29 1335.27 1286.27 1335.27 1289.94L1335.27 1453.39C1335.27 1457.07 1332.32 1460.05 1328.68 1460.05L1161.35 1460.05C1157.71 1460.05 1154.76 1457.07 1154.76 1453.39L1154.76 1289.94C1154.76 1286.27 1157.71 1283.29 1161.35 1283.29Z" fill="none" fill-rule="evenodd" opacity="1" stroke="#969696" stroke-linecap="round" stroke-linejoin="round" stroke-width="14.7008"/>
<path d="M1159.05 1009.99L1326.38 1009.99C1330.02 1009.99 1332.97 1012.98 1332.97 1016.65L1332.97 1180.1C1332.97 1183.78 1330.02 1186.76 1326.38 1186.76L1159.05 1186.76C1155.41 1186.76 1152.46 1183.78 1152.46 1180.1L1152.46 1016.65C1152.46 1012.98 1155.41 1009.99 1159.05 1009.99Z" fill="none" fill-rule="evenodd" opacity="1" stroke="#969696" stroke-linecap="round" stroke-linejoin="round" stroke-width="14.7008"/>
<path d="M1162.5 1540.29L1329.83 1540.29C1333.47 1540.29 1336.41 1543.28 1336.41 1546.95L1336.41 1710.4C1336.41 1714.08 1333.47 1717.06 1329.83 1717.06L1162.5 1717.06C1158.86 1717.06 1155.91 1714.08 1155.91 1710.4L1155.91 1546.95C1155.91 1543.28 1158.86 1540.29 1162.5 1540.29Z" fill="none" fill-rule="evenodd" opacity="1" stroke="#969696" stroke-linecap="round" stroke-linejoin="round" stroke-width="14.7008"/>
<g opacity="1">
<path d="M1402.38 622.125C1395.56 622.238 1388.77 624.931 1383.66 630.219C1375.97 638.71 1378.47 635.799 1376 638.719C1371.71 643.802 1367.61 649.029 1362.91 653.75C1353.17 663.531 1342.37 672.193 1333.31 682.656C1327.23 689.679 1321.78 697.241 1316.16 704.625C1314.01 707.44 1311.72 710.172 1309.47 712.906C1305.64 717.561 1301.36 721.766 1297.25 726.156C1293.54 730.12 1290.13 734.439 1287 738.875C1280.22 748.475 1276.98 759.894 1271.31 770.094C1265.7 780.208 1259.03 789.69 1253.16 799.656C1252.16 801.349 1251.29 803.139 1250.38 804.875C1248.61 808.197 1246.92 811.537 1245.38 814.969C1239.99 826.935 1235.48 839.326 1231.66 851.875C1229.72 858.239 1228.16 864.722 1226.25 871.094C1225.17 874.689 1223.95 878.233 1222.41 881.656C1222.05 882.455 1221.66 883.242 1221.28 884.031C1221.29 884.011 1221.26 884.074 1221.25 884.094C1221.22 884.147 1221.22 884.197 1221.19 884.25C1221.17 884.284 1221.14 884.31 1221.12 884.344C1220.92 884.733 1220.71 885.143 1220.5 885.531C1220.47 885.59 1220.44 885.66 1220.41 885.719C1220.33 885.861 1220.02 886.037 1220.16 886.125C1228.14 891.254 1236.3 896.103 1244.38 901.094C1244.43 901.129 1244.43 900.995 1244.47 900.938C1244.5 900.891 1244.53 900.828 1244.56 900.781C1244.75 900.475 1244.93 900.181 1245.12 899.875C1245.1 899.972 1245.03 900.082 1244.97 900.188C1245.4 899.757 1245.71 899.078 1246.03 898.562C1246.37 898.023 1246.73 897.479 1247.06 896.938C1247.36 896.455 1247.62 895.957 1247.91 895.469C1251.09 890.367 1254.28 885.258 1257.47 880.156C1270.73 858.939 1283.99 837.718 1297.25 816.5C1309.28 797.258 1329.46 765.288 1333.5 758.875C1335.28 757.303 1337.03 755.71 1338.88 754.219C1342.89 750.963 1347.02 747.818 1350.62 744.094C1354.19 740.412 1357.62 736.617 1360.91 732.688C1365.33 727.398 1369.58 721.957 1374.25 716.875C1377.61 713.212 1381.31 709.864 1384.97 706.5C1390.37 701.528 1395.82 696.588 1400.97 691.344C1404.42 687.827 1407.7 684.169 1410.84 680.375C1414.5 675.962 1410.85 680.378 1421.97 667.281C1427.08 661.993 1429.58 655.13 1429.47 648.312C1429.36 641.495 1426.63 634.709 1421.34 629.594C1416.06 624.479 1409.19 622.012 1402.38 622.125ZM1187.78 775.094C1187.33 774.988 1186.9 775.05 1186.53 775.406C1180.15 781.502 1176.72 790.07 1171.81 797.406C1171.8 797.42 1172.16 797.749 1172.16 797.75C1172.38 797.992 1172.58 798.258 1172.81 798.5C1173.45 799.183 1174.11 799.849 1174.75 800.531C1174.58 800.381 1174.39 800.193 1174.34 800.219C1174.33 800.225 1174.43 800.368 1174.44 800.375C1174.62 800.605 1174.84 800.835 1175.03 801.062C1175.56 801.703 1176.1 802.353 1176.62 803C1178.19 804.922 1179.68 806.89 1181.16 808.875C1185.17 814.261 1189.07 819.824 1192.31 825.719C1194.32 829.37 1196.23 833.083 1197.81 836.938C1198.66 839.004 1199.3 841.155 1200.06 843.25C1200.43 844.257 1200.95 845.23 1201.28 846.25C1201.63 847.34 1201.66 848.46 1201.94 849.562C1202.12 850.278 1202.42 850.989 1202.66 851.688C1203.63 854.521 1204.77 857.279 1205.88 860.062C1208.57 866.86 1205.87 860.086 1214.34 880.312C1218.79 890.415 1228.74 896.365 1239.12 896.219C1242.59 896.17 1246.07 895.449 1249.44 893.969C1259.54 889.527 1265.52 879.569 1265.38 869.188C1265.33 865.727 1264.61 862.211 1263.12 858.844C1248.14 826.317 1254.71 836.359 1248.12 826.312C1246.82 824.316 1245.15 822.728 1243.62 820.906C1242.63 819.714 1241.75 818.448 1240.72 817.281C1238.7 814.995 1236.46 812.882 1234.28 810.75C1226.37 803.006 1217.87 795.842 1208.91 789.344C1204.06 785.829 1199.06 782.528 1194.03 779.281C1193.64 779.031 1193.24 778.812 1192.88 778.531C1192.65 778.362 1192.4 778.084 1192.16 777.969C1190.76 777.3 1189.14 775.41 1187.78 775.094Z" fill="#f7b1b1" stroke="none"/>
</g>
<g opacity="1">
<path d="M1404.97 886.312C1398.15 886.426 1391.4 889.15 1386.28 894.438C1378.6 902.929 1381.06 900.018 1378.59 902.938C1374.3 908.021 1370.2 913.248 1365.5 917.969C1355.76 927.749 1344.97 936.411 1335.91 946.875C1329.83 953.898 1324.37 961.459 1318.75 968.844C1316.61 971.659 1314.31 974.39 1312.06 977.125C1308.24 981.78 1303.96 985.954 1299.84 990.344C1296.13 994.308 1292.73 998.626 1289.59 1003.06C1282.82 1012.66 1279.57 1024.08 1273.91 1034.28C1268.29 1044.4 1261.62 1053.91 1255.75 1063.88C1254.75 1065.57 1253.89 1067.33 1252.97 1069.06C1251.21 1072.39 1249.51 1075.72 1247.97 1079.16C1242.59 1091.12 1238.1 1103.54 1234.28 1116.09C1232.34 1122.46 1230.78 1128.91 1228.88 1135.28C1227.8 1138.88 1226.55 1142.45 1225 1145.88C1224.59 1146.78 1224.15 1147.63 1223.72 1148.53C1223.71 1148.56 1223.77 1148.49 1223.78 1148.47C1223.55 1148.89 1223.32 1149.33 1223.09 1149.75C1223.06 1149.81 1223.03 1149.85 1223 1149.91C1222.92 1150.05 1222.61 1150.26 1222.75 1150.34C1230.74 1155.47 1238.9 1160.32 1246.97 1165.31C1247.03 1165.35 1247.03 1165.18 1247.06 1165.12C1247.09 1165.08 1247.13 1165.05 1247.16 1165C1247.36 1164.68 1247.55 1164.35 1247.75 1164.03C1247.77 1164.11 1247.68 1164.24 1247.59 1164.34C1248.01 1163.91 1248.31 1163.25 1248.62 1162.75C1248.96 1162.21 1249.32 1161.7 1249.66 1161.16C1250.02 1160.56 1250.34 1159.95 1250.69 1159.34C1253.81 1154.35 1256.94 1149.34 1260.06 1144.34C1273.32 1123.13 1286.58 1101.91 1299.84 1080.69C1311.87 1061.45 1332.06 1029.5 1336.09 1023.09C1337.87 1021.52 1339.63 1019.9 1341.47 1018.41C1345.49 1015.15 1349.61 1012.04 1353.22 1008.31C1356.78 1004.63 1360.21 1000.81 1363.5 996.875C1367.92 991.586 1372.18 986.145 1376.84 981.062C1380.21 977.399 1383.9 974.051 1387.56 970.688C1392.97 965.716 1398.45 960.806 1403.59 955.562C1407.05 952.045 1410.29 948.356 1413.44 944.562C1417.09 940.15 1413.44 944.565 1424.56 931.469C1429.68 926.181 1432.18 919.317 1432.06 912.5C1431.95 905.683 1429.23 898.928 1423.94 893.812C1418.65 888.697 1411.79 886.199 1404.97 886.312ZM1190.38 1039.28C1189.92 1039.18 1189.53 1039.24 1189.16 1039.59C1182.77 1045.69 1179.32 1054.29 1174.41 1061.62C1174.4 1061.64 1174.75 1061.97 1174.75 1061.97C1174.98 1062.21 1175.21 1062.45 1175.44 1062.69C1176.08 1063.37 1176.7 1064.07 1177.34 1064.75C1177.18 1064.6 1176.98 1064.41 1176.94 1064.44C1176.93 1064.44 1177.06 1064.59 1177.06 1064.59C1177.25 1064.82 1177.44 1065.02 1177.62 1065.25C1178.16 1065.89 1178.69 1066.54 1179.22 1067.19C1180.78 1069.11 1182.27 1071.08 1183.75 1073.06C1187.77 1078.45 1191.67 1084.01 1194.91 1089.91C1196.91 1093.56 1198.82 1097.3 1200.41 1101.16C1201.26 1103.22 1201.92 1105.34 1202.69 1107.44C1203.06 1108.44 1203.55 1109.42 1203.88 1110.44C1204.23 1111.53 1204.28 1112.68 1204.56 1113.78C1204.74 1114.5 1205.01 1115.18 1205.25 1115.88C1206.22 1118.71 1207.36 1121.5 1208.47 1124.28C1211.17 1131.08 1208.46 1124.27 1216.94 1144.5C1221.38 1154.6 1231.34 1160.58 1241.72 1160.44C1245.18 1160.39 1248.7 1159.64 1252.06 1158.16C1262.16 1153.71 1268.11 1143.79 1267.97 1133.41C1267.92 1129.95 1267.2 1126.43 1265.72 1123.06C1250.73 1090.54 1257.31 1100.58 1250.72 1090.53C1249.41 1088.53 1247.74 1086.95 1246.22 1085.12C1245.22 1083.93 1244.34 1082.67 1243.31 1081.5C1241.29 1079.21 1239.05 1077.07 1236.88 1074.94C1228.96 1067.19 1220.47 1060.06 1211.5 1053.56C1206.65 1050.05 1201.66 1046.75 1196.62 1043.5C1196.24 1043.25 1195.84 1043.03 1195.47 1042.75C1195.25 1042.58 1194.99 1042.3 1194.75 1042.19C1193.36 1041.52 1191.73 1039.6 1190.38 1039.28Z" fill="#f7b1b1" stroke="none"/>
</g>
<g opacity="1">
<path d="M1410.19 1158.31C1403.37 1158.43 1396.58 1161.15 1391.47 1166.44C1383.79 1174.93 1386.25 1172.02 1383.78 1174.94C1379.49 1180.02 1375.39 1185.25 1370.69 1189.97C1360.95 1199.75 1350.15 1208.41 1341.09 1218.88C1335.01 1225.9 1329.59 1233.46 1323.97 1240.84C1321.83 1243.66 1319.5 1246.39 1317.25 1249.12C1313.43 1253.78 1309.14 1257.95 1305.03 1262.34C1301.32 1266.31 1297.91 1270.63 1294.78 1275.06C1288 1284.66 1284.76 1296.08 1279.09 1306.28C1273.48 1316.4 1266.84 1325.91 1260.97 1335.88C1259.97 1337.57 1259.08 1339.33 1258.16 1341.06C1256.4 1344.39 1254.73 1347.72 1253.19 1351.16C1247.81 1363.12 1243.29 1375.54 1239.47 1388.09C1237.53 1394.46 1235.97 1400.91 1234.06 1407.28C1232.99 1410.88 1231.76 1414.45 1230.22 1417.88C1229.81 1418.78 1229.33 1419.67 1228.91 1420.56C1228.7 1420.95 1228.49 1421.36 1228.28 1421.75C1228.25 1421.81 1228.22 1421.85 1228.19 1421.91C1228.11 1422.05 1227.8 1422.26 1227.94 1422.34C1235.92 1427.47 1244.08 1432.32 1252.16 1437.31C1252.21 1437.35 1252.25 1437.18 1252.28 1437.12C1252.31 1437.08 1252.35 1437.05 1252.38 1437C1252.5 1436.81 1252.6 1436.6 1252.72 1436.41C1252.72 1436.4 1252.75 1436.41 1252.75 1436.41C1252.82 1436.28 1253.03 1436.13 1252.97 1436.03C1252.98 1436.02 1252.99 1436.01 1253 1436C1253.3 1435.59 1253.6 1435.15 1253.84 1434.75C1254.18 1434.21 1254.51 1433.7 1254.84 1433.16C1255.13 1432.7 1255.38 1432.22 1255.66 1431.75C1258.86 1426.62 1262.07 1421.48 1265.28 1416.34C1278.54 1395.13 1291.8 1373.91 1305.06 1352.69C1317.1 1333.43 1337.3 1301.45 1341.34 1295.03C1343.1 1293.48 1344.84 1291.88 1346.66 1290.41C1350.67 1287.15 1354.8 1284.04 1358.41 1280.31C1361.97 1276.63 1365.4 1272.81 1368.69 1268.88C1373.11 1263.59 1377.37 1258.14 1382.03 1253.06C1385.39 1249.4 1389.12 1246.05 1392.78 1242.69C1398.19 1237.72 1403.63 1232.81 1408.78 1227.56C1412.23 1224.05 1415.51 1220.36 1418.66 1216.56C1422.31 1212.15 1418.63 1216.57 1429.75 1203.47C1434.87 1198.18 1437.36 1191.32 1437.25 1184.5C1437.14 1177.68 1434.41 1170.93 1429.12 1165.81C1423.84 1160.7 1417 1158.2 1410.19 1158.31ZM1195.59 1311.28C1195.14 1311.18 1194.72 1311.24 1194.34 1311.59C1187.96 1317.69 1184.5 1326.29 1179.59 1333.62C1179.58 1333.64 1179.94 1333.97 1179.94 1333.97C1180.16 1334.21 1180.4 1334.45 1180.62 1334.69C1181.27 1335.37 1181.89 1336.07 1182.53 1336.75C1182.37 1336.6 1182.17 1336.41 1182.12 1336.44C1182.12 1336.44 1182.24 1336.59 1182.25 1336.59C1182.44 1336.82 1182.62 1337.02 1182.81 1337.25C1183.35 1337.89 1183.88 1338.54 1184.41 1339.19C1185.97 1341.11 1187.46 1343.08 1188.94 1345.06C1192.95 1350.45 1196.89 1356.01 1200.12 1361.91C1202.13 1365.56 1204.01 1369.3 1205.59 1373.16C1206.44 1375.22 1207.11 1377.34 1207.88 1379.44C1208.24 1380.44 1208.77 1381.42 1209.09 1382.44C1209.44 1383.53 1209.47 1384.68 1209.75 1385.78C1209.93 1386.5 1210.2 1387.18 1210.44 1387.88C1211.41 1390.71 1212.55 1393.5 1213.66 1396.28C1216.36 1403.08 1213.65 1396.27 1222.12 1416.5C1226.57 1426.6 1236.52 1432.58 1246.91 1432.44C1250.37 1432.39 1253.88 1431.64 1257.25 1430.16C1267.35 1425.71 1273.33 1415.79 1273.19 1405.41C1273.14 1401.95 1272.39 1398.43 1270.91 1395.06C1255.92 1362.54 1262.53 1372.58 1255.94 1362.53C1254.63 1360.53 1252.93 1358.95 1251.41 1357.12C1250.41 1355.93 1249.53 1354.67 1248.5 1353.5C1246.48 1351.21 1244.27 1349.07 1242.09 1346.94C1234.18 1339.19 1225.69 1332.06 1216.72 1325.56C1211.87 1322.05 1206.85 1318.75 1201.81 1315.5C1201.42 1315.25 1201.02 1315.03 1200.66 1314.75C1200.43 1314.58 1200.21 1314.3 1199.97 1314.19C1198.58 1313.52 1196.95 1311.6 1195.59 1311.28Z" fill="#f7b1b1" stroke="none"/>
</g>
<path d="M1384.55 278.178L1898.36 278.178C1937.28 278.178 1968.83 309.732 1968.83 348.656L1968.83 348.656C1968.83 387.58 1937.28 419.134 1898.36 419.134L1384.55 419.134C1345.63 419.134 1314.07 387.58 1314.07 348.656L1314.07 348.656C1314.07 309.732 1345.63 278.178 1384.55 278.178Z" fill="#b3dede" fill-rule="evenodd" opacity="1" stroke="none"/>
<path d="M1622.51 191.786L1672.52 191.786C1717.31 191.786 1753.61 228.09 1753.61 272.873L1753.61 272.873C1753.61 317.657 1717.31 353.961 1672.52 353.961L1622.51 353.961C1577.72 353.961 1541.42 317.657 1541.42 272.873L1541.42 272.873C1541.42 228.09 1577.72 191.786 1622.51 191.786Z" fill="#b3dede" fill-rule="evenodd" opacity="1" stroke="none"/>
<path d="M1647.52 244.834L1650.55 244.834C1667.29 244.834 1680.86 258.405 1680.86 275.147L1680.86 275.147C1680.86 291.888 1667.29 305.46 1650.55 305.46L1647.52 305.46C1630.77 305.46 1617.2 291.888 1617.2 275.147L1617.2 275.147C1617.2 258.405 1630.77 244.834 1647.52 244.834Z" fill="#77afaf" fill-rule="evenodd" opacity="1" stroke="none"/>
</g>
</svg>
