<?xml version="1.0" encoding="UTF-8" standalone="no"?>
<!DOCTYPE svg PUBLIC "-//W3C//DTD SVG 1.1//EN" "http://www.w3.org/Graphics/SVG/1.1/DTD/svg11.dtd"
[
<!ATTLIST g
  xmlns:vectornator CDATA #FIXED "http://vectornator.io"
  vectornator:layerName CDATA #IMPLIED >
<!ATTLIST g
  xmlns:vectornator CDATA #FIXED "http://vectornator.io"
  vectornator:mask CDATA #IMPLIED >
<!ATTLIST text
  xmlns:vectornator CDATA #FIXED "http://vectornator.io"
  vectornator:width CDATA #IMPLIED >
<!ATTLIST text
  xmlns:vectornator CDATA #FIXED "http://vectornator.io"
  vectornator:text CDATA #IMPLIED >

<!ATTLIST path
  xmlns:vectornator CDATA #FIXED "http://vectornator.io"
  vectornator:blendMode CDATA #IMPLIED >
<!ATTLIST path
  xmlns:vectornator CDATA #FIXED "http://vectornator.io"
  vectornator:shadowColor CDATA #IMPLIED >
<!ATTLIST path
  xmlns:vectornator CDATA #FIXED "http://vectornator.io"
  vectornator:shadowOpacity CDATA #IMPLIED >
<!ATTLIST path
  xmlns:vectornator CDATA #FIXED "http://vectornator.io"
  vectornator:shadowRadius CDATA #IMPLIED >
<!ATTLIST path
  xmlns:vectornator CDATA #FIXED "http://vectornator.io"
  vectornator:shadowOffset CDATA #IMPLIED >
<!ATTLIST path
  xmlns:vectornator CDATA #FIXED "http://vectornator.io"
  vectornator:shadowAngle CDATA #IMPLIED >

<!ATTLIST image
  xmlns:vectornator CDATA #FIXED "http://vectornator.io"
  vectornator:blendMode CDATA #IMPLIED >
<!ATTLIST image
  xmlns:vectornator CDATA #FIXED "http://vectornator.io"
  vectornator:shadowColor CDATA #IMPLIED >
<!ATTLIST image
  xmlns:vectornator CDATA #FIXED "http://vectornator.io"
  vectornator:shadowOpacity CDATA #IMPLIED >
<!ATTLIST image
  xmlns:vectornator CDATA #FIXED "http://vectornator.io"
  vectornator:shadowRadius CDATA #IMPLIED >
<!ATTLIST image
  xmlns:vectornator CDATA #FIXED "http://vectornator.io"
  vectornator:shadowOffset CDATA #IMPLIED >
<!ATTLIST image
  xmlns:vectornator CDATA #FIXED "http://vectornator.io"
  vectornator:shadowAngle CDATA #IMPLIED >

<!ATTLIST g
  xmlns:vectornator CDATA #FIXED "http://vectornator.io"
  vectornator:blendMode CDATA #IMPLIED >
<!ATTLIST g
  xmlns:vectornator CDATA #FIXED "http://vectornator.io"
  vectornator:shadowColor CDATA #IMPLIED >
<!ATTLIST g
  xmlns:vectornator CDATA #FIXED "http://vectornator.io"
  vectornator:shadowOpacity CDATA #IMPLIED >
<!ATTLIST g
  xmlns:vectornator CDATA #FIXED "http://vectornator.io"
  vectornator:shadowRadius CDATA #IMPLIED >
<!ATTLIST g
  xmlns:vectornator CDATA #FIXED "http://vectornator.io"
  vectornator:shadowOffset CDATA #IMPLIED >
<!ATTLIST g
  xmlns:vectornator CDATA #FIXED "http://vectornator.io"
  vectornator:shadowAngle CDATA #IMPLIED >

<!ENTITY % SVG.filter.extra.content  "| feDropShadow" >
<!ELEMENT feDropShadow EMPTY>
<!ATTLIST feDropShadow
  xmlns:svg CDATA #FIXED "http://www.w3.org/Graphics/SVG/1.1/DTD/svg11.dtd"
  dx CDATA #IMPLIED>
<!ATTLIST feDropShadow
  xmlns:svg CDATA #FIXED "http://www.w3.org/Graphics/SVG/1.1/DTD/svg11.dtd"
  dy CDATA #IMPLIED>
<!ATTLIST feDropShadow
  xmlns:svg CDATA #FIXED "http://www.w3.org/Graphics/SVG/1.1/DTD/svg11.dtd"
  stdDeviation CDATA #IMPLIED>
<!ATTLIST feDropShadow
  xmlns:svg CDATA #FIXED "http://www.w3.org/Graphics/SVG/1.1/DTD/svg11.dtd"
  flood-opacity CDATA #IMPLIED>
<!ATTLIST feDropShadow
  xmlns:svg CDATA #FIXED "http://www.w3.org/Graphics/SVG/1.1/DTD/svg11.dtd"
  in CDATA #IMPLIED>
<!ATTLIST feDropShadow
  xmlns:svg CDATA #FIXED "http://www.w3.org/Graphics/SVG/1.1/DTD/svg11.dtd"
  result CDATA #IMPLIED>
<!ATTLIST feDropShadow
  xmlns:svg CDATA #FIXED "http://www.w3.org/Graphics/SVG/1.1/DTD/svg11.dtd"
  flood-color CDATA #IMPLIED>
]
>
<!-- Created with Vectornator (http://vectornator.io/) -->
<svg height="100%" stroke-miterlimit="10" style="fill-rule:nonzero;clip-rule:evenodd;stroke-linecap:round;stroke-linejoin:round;" version="1.1" viewBox="0 0 3370.82 2384.24" width="100%" xml:space="preserve" xmlns="http://www.w3.org/2000/svg" xmlns:vectornator="http://vectornator.io" xmlns:xlink="http://www.w3.org/1999/xlink">
<defs/>
<g id="Capa-1" vectornator:layerName="Capa 1">
<path d="M999.167 1667.53L1552.89 1667.53C1602.87 1667.53 1643.38 1716.1 1643.38 1776L1643.38 1776C1643.38 1835.91 1602.87 1884.48 1552.89 1884.48L999.167 1884.48C949.19 1884.48 908.675 1835.91 908.675 1776L908.675 1776C908.675 1716.1 949.19 1667.53 999.167 1667.53Z" fill="#a3937f" fill-rule="evenodd" opacity="1" stroke="none"/>
<path d="M1703.24 397.262L1962.61 597.682C1986.54 616.173 1991.95 651.95 1974.69 677.593L1699.45 1086.63C1682.2 1112.27 1648.81 1118.07 1624.88 1099.58L1365.51 899.159C1341.58 880.668 1336.17 844.891 1353.43 819.248L1628.67 410.212C1645.92 384.569 1679.31 378.771 1703.24 397.262Z" fill="#a3937f" fill-rule="evenodd" opacity="1" stroke="none"/>
<path d="M1929.33 778.394L2820.09 1310.72C2848.88 1329.93 2804.38 1395.01 2783.62 1421.65L2708.7 1517.77C2687.94 1544.41 2584.49 1632.11 2555.7 1612.9L1779.24 970.973C1750.45 951.767 1743.94 914.604 1764.7 887.969L1839.62 791.846C1860.38 765.21 1900.54 759.188 1929.33 778.394Z" fill="#a3937f" fill-rule="evenodd" opacity="1" stroke="none"/>
<path d="M883.898 1781.45L1730.64 1781.45C1845.47 1781.45 1938.56 1881.2 1938.56 2004.25L1938.56 2004.25C1938.56 2058.72 1951.62 2156.02 1921.32 2194.73C1883.18 2243.46 1794.64 2227.05 1730.64 2227.05L883.898 2227.05C823.814 2227.05 748.413 2254.56 710.455 2210.89C675.87 2171.1 675.982 2062.92 675.982 2004.25L675.982 2004.25C675.982 1881.2 769.069 1781.45 883.898 1781.45Z" fill="#8e7d69" fill-rule="evenodd" opacity="1" stroke="none"/>
<path d="M1389.5 820.913L1677.25 1043.26C1731.3 1085.03 1742.11 1167.94 1701.4 1228.45L1701.4 1228.45C1660.69 1288.95 1583.86 1304.14 1529.81 1262.38L1242.06 1040.02C1188.01 998.258 1177.2 915.35 1217.91 854.844L1217.91 854.844C1258.62 794.338 1335.45 779.147 1389.5 820.913Z" fill="#8e7d69" fill-rule="evenodd" opacity="1" stroke="none"/>
<path d="M1789.46 230.475L2077.21 452.826C2131.26 494.592 2142.08 577.501 2101.36 638.007L2101.36 638.007C2060.65 698.513 1983.82 713.704 1929.77 671.938L1642.02 449.586C1587.97 407.82 1577.16 324.911 1617.87 264.405L1617.87 264.405C1658.59 203.899 1735.41 188.708 1789.46 230.475Z" fill="#8e7d69" fill-rule="evenodd" opacity="1" stroke="none"/>
</g>
</svg>
