<?xml version="1.0" encoding="UTF-8" standalone="no"?>
<!DOCTYPE svg PUBLIC "-//W3C//DTD SVG 1.1//EN" "http://www.w3.org/Graphics/SVG/1.1/DTD/svg11.dtd"
[
<!ATTLIST g
  xmlns:vectornator CDATA #FIXED "http://vectornator.io"
  vectornator:layerName CDATA #IMPLIED >
<!ATTLIST g
  xmlns:vectornator CDATA #FIXED "http://vectornator.io"
  vectornator:mask CDATA #IMPLIED >
<!ATTLIST text
  xmlns:vectornator CDATA #FIXED "http://vectornator.io"
  vectornator:width CDATA #IMPLIED >
<!ATTLIST text
  xmlns:vectornator CDATA #FIXED "http://vectornator.io"
  vectornator:text CDATA #IMPLIED >

<!ATTLIST path
  xmlns:vectornator CDATA #FIXED "http://vectornator.io"
  vectornator:blendMode CDATA #IMPLIED >
<!ATTLIST path
  xmlns:vectornator CDATA #FIXED "http://vectornator.io"
  vectornator:shadowColor CDATA #IMPLIED >
<!ATTLIST path
  xmlns:vectornator CDATA #FIXED "http://vectornator.io"
  vectornator:shadowOpacity CDATA #IMPLIED >
<!ATTLIST path
  xmlns:vectornator CDATA #FIXED "http://vectornator.io"
  vectornator:shadowRadius CDATA #IMPLIED >
<!ATTLIST path
  xmlns:vectornator CDATA #FIXED "http://vectornator.io"
  vectornator:shadowOffset CDATA #IMPLIED >
<!ATTLIST path
  xmlns:vectornator CDATA #FIXED "http://vectornator.io"
  vectornator:shadowAngle CDATA #IMPLIED >

<!ATTLIST image
  xmlns:vectornator CDATA #FIXED "http://vectornator.io"
  vectornator:blendMode CDATA #IMPLIED >
<!ATTLIST image
  xmlns:vectornator CDATA #FIXED "http://vectornator.io"
  vectornator:shadowColor CDATA #IMPLIED >
<!ATTLIST image
  xmlns:vectornator CDATA #FIXED "http://vectornator.io"
  vectornator:shadowOpacity CDATA #IMPLIED >
<!ATTLIST image
  xmlns:vectornator CDATA #FIXED "http://vectornator.io"
  vectornator:shadowRadius CDATA #IMPLIED >
<!ATTLIST image
  xmlns:vectornator CDATA #FIXED "http://vectornator.io"
  vectornator:shadowOffset CDATA #IMPLIED >
<!ATTLIST image
  xmlns:vectornator CDATA #FIXED "http://vectornator.io"
  vectornator:shadowAngle CDATA #IMPLIED >

<!ATTLIST g
  xmlns:vectornator CDATA #FIXED "http://vectornator.io"
  vectornator:blendMode CDATA #IMPLIED >
<!ATTLIST g
  xmlns:vectornator CDATA #FIXED "http://vectornator.io"
  vectornator:shadowColor CDATA #IMPLIED >
<!ATTLIST g
  xmlns:vectornator CDATA #FIXED "http://vectornator.io"
  vectornator:shadowOpacity CDATA #IMPLIED >
<!ATTLIST g
  xmlns:vectornator CDATA #FIXED "http://vectornator.io"
  vectornator:shadowRadius CDATA #IMPLIED >
<!ATTLIST g
  xmlns:vectornator CDATA #FIXED "http://vectornator.io"
  vectornator:shadowOffset CDATA #IMPLIED >
<!ATTLIST g
  xmlns:vectornator CDATA #FIXED "http://vectornator.io"
  vectornator:shadowAngle CDATA #IMPLIED >

<!ENTITY % SVG.filter.extra.content  "| feDropShadow" >
<!ELEMENT feDropShadow EMPTY>
<!ATTLIST feDropShadow
  xmlns:svg CDATA #FIXED "http://www.w3.org/Graphics/SVG/1.1/DTD/svg11.dtd"
  dx CDATA #IMPLIED>
<!ATTLIST feDropShadow
  xmlns:svg CDATA #FIXED "http://www.w3.org/Graphics/SVG/1.1/DTD/svg11.dtd"
  dy CDATA #IMPLIED>
<!ATTLIST feDropShadow
  xmlns:svg CDATA #FIXED "http://www.w3.org/Graphics/SVG/1.1/DTD/svg11.dtd"
  stdDeviation CDATA #IMPLIED>
<!ATTLIST feDropShadow
  xmlns:svg CDATA #FIXED "http://www.w3.org/Graphics/SVG/1.1/DTD/svg11.dtd"
  flood-opacity CDATA #IMPLIED>
<!ATTLIST feDropShadow
  xmlns:svg CDATA #FIXED "http://www.w3.org/Graphics/SVG/1.1/DTD/svg11.dtd"
  in CDATA #IMPLIED>
<!ATTLIST feDropShadow
  xmlns:svg CDATA #FIXED "http://www.w3.org/Graphics/SVG/1.1/DTD/svg11.dtd"
  result CDATA #IMPLIED>
<!ATTLIST feDropShadow
  xmlns:svg CDATA #FIXED "http://www.w3.org/Graphics/SVG/1.1/DTD/svg11.dtd"
  flood-color CDATA #IMPLIED>
]
>
<!-- Created with Vectornator (http://vectornator.io/) -->
<svg height="100%" stroke-miterlimit="10" style="fill-rule:nonzero;clip-rule:evenodd;stroke-linecap:round;stroke-linejoin:round;" version="1.1" viewBox="0 0 3370.82 2384.24" width="100%" xml:space="preserve" xmlns="http://www.w3.org/2000/svg" xmlns:vectornator="http://vectornator.io" xmlns:xlink="http://www.w3.org/1999/xlink">
<defs/>
<g id="Capa-2" vectornator:layerName="Capa 2">
<path d="M1388.97 510.531C1371.23 510.615 1353.21 514.013 1336.81 517.656C1332.35 518.649 1327.54 517.842 1323.16 519.156C1309.46 523.266 1298.18 530.469 1285.28 535.844C1271.73 541.491 1256.3 540.453 1242.84 544.938C1236.7 546.986 1230.8 550.451 1224.66 552.5C1203.32 559.611 1183.48 566.951 1165.53 581.312C1153.9 590.618 1146.61 607.924 1136.75 619.188C1131.35 625.362 1124.05 631.601 1120.06 638.906C1115.94 646.467 1115.33 655.529 1110.97 663.156C1106.05 671.757 1101.73 680.136 1097.34 688.906C1095.71 692.165 1092.72 694.651 1091.28 698C1086.66 708.793 1082.97 720.648 1077.62 731.344C1066.15 754.299 1052.13 774.289 1045.81 799.562C1041.89 815.257 1039.67 832.092 1038.22 848.062C1037.85 852.088 1038.79 856.186 1038.22 860.188C1035.84 876.82 1033.58 893.632 1030.66 910.219C1026.71 932.559 1019.2 953.835 1012.47 975.375C1007.78 990.39 1004.63 1005.84 1000.34 1020.84C999.158 1024.99 996.77 1028.77 995.781 1032.97C992.286 1047.82 993.945 1063.62 991.25 1078.44C988.887 1091.43 984.978 1104.63 983.656 1117.84C982.707 1127.33 984.29 1137.14 983.656 1146.66C982.907 1157.9 982.156 1168.69 982.156 1180C982.156 1185.71 982.875 1192.44 982.156 1198.19C980.582 1210.78 978.44 1223.37 977.594 1236.06C976.094 1258.56 977.594 1281.75 977.594 1304.28C977.594 1328.58 977.616 1352.96 980.625 1377.03C982.46 1391.71 986.668 1406.24 988.219 1420.97C990.374 1441.44 989.718 1462.51 989.719 1483.12C989.719 1490.2 990.359 1497.3 989.719 1504.34C987.843 1524.98 989.439 1545.72 988.219 1566.47C987.154 1584.57 983.916 1603.47 982.156 1621.06C980.693 1635.7 981.081 1650.33 979.125 1665C977.35 1678.31 972.752 1690.98 971.531 1704.41C971.211 1707.93 972.031 1711.53 971.531 1715.03C966.369 1751.17 952.442 1785 947.281 1821.12C944.796 1838.52 938.944 1854.46 941.219 1872.66C941.986 1878.8 945.615 1883.48 947.281 1889.31C953.586 1911.38 967.531 1929.28 983.656 1945.41C995.096 1956.85 1011.78 1964 1026.09 1971.16C1036.63 1976.43 1047.31 1979.74 1057.94 1983.28C1075.47 1989.12 1091.89 1998.64 1109.47 2004.5C1123.97 2009.33 1138.67 2008.69 1153.41 2012.09C1169.34 2015.77 1184.06 2018.29 1200.41 2019.66C1212.09 2020.63 1222.24 2026.29 1233.75 2027.25C1244.22 2028.12 1255.16 2025.86 1265.56 2027.25C1275.93 2028.63 1285.65 2034.64 1295.88 2036.34C1298.87 2036.84 1301.95 2036.07 1304.97 2036.34C1324.18 2038.09 1343.42 2041.99 1362.56 2043.91C1372.47 2044.9 1382.87 2042.41 1392.88 2042.41C1403.63 2042.41 1415.66 2043.91 1426.22 2042.41C1429.86 2041.89 1433.22 2040.01 1436.84 2039.38C1451.32 2036.82 1466.21 2035.55 1480.78 2033.31C1497.34 2030.77 1514.08 2027.01 1530.81 2025.72C1536.35 2025.29 1541.94 2026.27 1547.47 2025.72C1554.69 2025 1561.47 2021.91 1568.69 2021.19C1582.19 2019.84 1596.09 2022.23 1609.62 2021.19C1620.21 2020.37 1630.83 2018.75 1641.47 2018.16C1650.9 2017.63 1660.82 2019.1 1670.25 2018.16C1689.33 2016.25 1707.52 2009.8 1726.34 2006.03C1740.88 2003.12 1757.02 1999.49 1771.81 1998.44C1782.98 1997.64 1794.12 1998.16 1805.16 1995.41C1815.51 1992.82 1825.2 1987.61 1835.47 1984.81C1845.4 1982.1 1856.19 1981.06 1865.78 1977.22C1871.82 1974.8 1876.82 1969.83 1882.44 1966.62C1886.6 1964.25 1891.64 1963.84 1896.09 1962.06C1903.7 1959.02 1911.06 1954.57 1918.81 1951.47C1925.36 1948.85 1932.06 1947.99 1938.53 1945.41C1961.83 1936.09 1984.46 1925.22 2002.19 1907.5C2012.4 1897.28 2015.13 1879.88 2017.34 1866.59C2018.24 1861.2 2016.74 1855.35 2017.34 1849.91C2018.2 1842.18 2021.22 1835.97 2023.41 1828.69C2027.16 1816.16 2029.97 1800.81 2030.97 1787.78C2032.67 1765.68 2029.39 1743.2 2030.97 1721.09C2032.14 1704.68 2038.89 1688.82 2041.59 1672.59C2042.96 1664.42 2042.89 1656.44 2044.62 1648.34C2049.58 1625.23 2055.43 1602.47 2056.75 1578.62C2058.12 1553.89 2058.2 1527.47 2056.75 1502.81C2055.88 1488.06 2051.67 1473.6 2050.69 1458.88C2049.89 1446.87 2050.62 1434.34 2047.66 1422.5C2043.97 1407.77 2037 1393.53 2034 1378.53C2030.41 1360.56 2030.29 1341.95 2026.44 1323.97C2024.14 1313.24 2019.52 1303.01 2017.34 1292.16C2012.65 1268.69 2010.61 1246.05 2000.66 1223.94C1988.99 1198.01 1968.39 1179.16 1955.19 1154.22C1953.22 1150.51 1951.79 1146.56 1950.38 1142.59C1949.29 1141.09 1947.72 1138.74 1946.66 1137.31C1941.58 1130.51 1938.9 1124.46 1935.62 1114.34C1926.85 1102.15 1916.42 1090.75 1908.22 1078.44C1904.86 1073.41 1901.79 1068.23 1898.84 1062.97C1882.05 1039.76 1867.09 1013.51 1854.69 986.031C1847 975.968 1839.35 965.881 1833.94 954.156C1823.64 931.843 1819.28 907.188 1815.31 882.719C1813.98 880.1 1812.87 877.963 1812.22 876.562C1807.41 866.152 1804.87 856.11 1804.62 845.312C1800.82 836.778 1798.48 827.807 1797.38 818C1796.47 809.956 1796.35 803.905 1796.56 790.688C1796.58 789.254 1796.61 788.6 1796.62 787.812C1796.7 782.189 1796.62 778.229 1796.44 774.719C1793.45 752.953 1791.5 731.057 1791.5 708.625C1791.5 703.116 1791.06 698.762 1790 693.469C1789.03 688.611 1790.97 683.17 1790 678.312C1789.37 675.179 1787.49 672.37 1786.97 669.219C1786.55 666.727 1787.46 664.102 1786.97 661.625C1786.25 658.018 1784.46 654.672 1783.94 651.031C1783.58 648.531 1784.55 645.888 1783.94 643.438C1783.16 640.313 1780.57 637.341 1779.38 634.344C1778.42 631.952 1779.03 629.085 1777.88 626.781C1774.93 620.883 1768.97 615.483 1767.25 608.594C1764.89 599.148 1759.22 590.894 1765.69 584.531L1744.53 599.5C1739.34 594.313 1745.42 593.421 1743 587.375C1741.07 582.55 1733.46 573.955 1729.38 570.688C1721.22 564.16 1712.47 561.994 1703.59 557.062C1694.98 552.279 1688.92 543.567 1679.34 540.375C1663.3 535.028 1646.13 530.649 1629.34 528.25C1621.51 527.13 1613 527.742 1605.06 526.75C1584.78 524.215 1563.46 519.907 1542.94 522.188C1531.03 523.511 1526.85 526.011 1515.66 528.25C1505.61 530.26 1492.75 530.584 1482.31 529.781C1471.09 528.918 1458.42 527.572 1447.44 525.219C1437.85 523.164 1429.41 517.4 1420.16 514.625C1410.14 511.621 1399.61 510.481 1388.97 510.531Z" fill="#f1e5d0" fill-rule="evenodd" opacity="0.419231" stroke="#d9cdb7" stroke-linecap="round" stroke-linejoin="round" stroke-width="14.3187"/>
<path d="M1765.69 584.531L1770.28 581.312C1768.26 582.324 1766.84 583.396 1765.69 584.531Z" fill="#f1e5d0" fill-rule="evenodd" opacity="0.419231" stroke="#d9cdb7" stroke-linecap="round" stroke-linejoin="round" stroke-width="14.3187"/>
<path d="M1144.75 619.219C1143.61 619.384 1142.45 619.84 1141.28 620.719C1137.98 623.198 1130.99 629.177 1129.16 632.844C1124.48 642.19 1123.33 653.629 1118.56 663.156C1113.83 672.621 1107.76 680.853 1103.41 690.438C1099.11 699.88 1093.39 709.5 1089.75 719.219C1084.82 732.353 1079.39 746.723 1074.59 760.156C1073.19 764.08 1073.15 768.429 1071.56 772.281C1065.06 788.069 1053.89 801.958 1047.31 817.75C1043.1 827.868 1042.57 839.036 1039.75 849.594C1037.32 858.71 1034.42 867.828 1032.16 876.875C1028.55 891.301 1030.18 907.57 1029.12 922.344C1028.13 936.329 1022.6 948.511 1018.53 961.75C1014.02 976.424 1010.53 991.265 1006.41 1005.69C1004.65 1011.83 1001.25 1017.55 1000.34 1023.88C999.844 1027.38 1000.62 1030.97 1000.34 1034.5C999.022 1051.69 995.569 1068.6 997.312 1086.03C998.728 1100.19 1000.41 1115.63 998.812 1129.97C994.589 1167.98 987.464 1205.58 983.656 1243.66C981.268 1267.54 982.808 1294.11 985.188 1317.91C986.088 1326.91 984.368 1336.17 985.188 1345.19C985.753 1351.41 988.601 1357.23 989.719 1363.38C991.128 1371.13 990.536 1379.77 991.25 1387.62C992.495 1401.32 996.448 1414.72 997.312 1428.56C998.555 1448.44 1000.15 1469.17 998.812 1489.19C997.968 1501.86 994.762 1517.34 997.312 1530.09C999.775 1542.41 1005.19 1554.27 1007.91 1566.47C1010.49 1578.11 1010.63 1592.47 1009.44 1604.38C1008.58 1612.96 1007.35 1623.41 1004.88 1631.66C1003.58 1635.97 999.038 1641.52 997.312 1645.31C993.964 1652.68 989.976 1663.16 988.219 1671.06C987.78 1673.04 988.615 1675.14 988.219 1677.12C986.805 1684.19 982.886 1691.05 982.156 1698.34C980.191 1718 977.898 1738.13 973.062 1757.47C968.848 1774.33 963.387 1791.03 957.906 1807.47C954.116 1818.84 954.404 1829.29 951.844 1840.81C949.962 1849.28 946.738 1857.98 945.781 1866.59C945.4 1870.02 943.639 1881.14 944.25 1881.75C947.373 1884.87 958.858 1878.23 960.938 1877.19C969.938 1872.69 976.417 1865.46 985.188 1860.53C989.524 1858.09 994.316 1856.6 998.812 1854.47C1012.68 1847.9 1025.21 1841.06 1038.22 1833.25C1051.02 1825.57 1065.71 1821.39 1079.16 1815.06C1099.57 1805.46 1120.08 1795.59 1141.28 1787.78C1149.38 1784.8 1157.23 1781.06 1165.53 1778.69C1178.03 1775.12 1192.17 1773.78 1204.94 1771.09C1213.09 1769.38 1220.93 1766.13 1229.19 1765.03C1245.69 1762.83 1264.05 1765.03 1280.72 1765.03C1290.82 1765.03 1299.39 1762.68 1309.53 1762C1325.12 1760.96 1340.92 1763.11 1356.5 1762C1375.33 1760.66 1393.97 1754.35 1412.59 1751.41C1435.35 1747.81 1459.34 1748.28 1482.31 1746.84C1512.34 1744.97 1541.82 1758.51 1571.72 1760.5C1587.3 1761.54 1603.15 1759.3 1618.72 1760.5C1629.23 1761.31 1638.72 1766.13 1649.03 1768.06C1659.22 1769.97 1670.97 1769.32 1680.88 1772.62C1686.88 1774.63 1691.62 1779.45 1697.53 1781.72C1703.82 1784.14 1710.58 1785.3 1717.25 1786.25C1726.83 1787.62 1736.44 1787.1 1746.03 1787.78C1757.78 1788.62 1769.35 1791.92 1780.91 1793.84C1791.83 1795.66 1803.5 1795.44 1814.25 1798.38C1828.28 1802.2 1841.29 1809.2 1855.16 1813.53C1866.43 1817.06 1877.37 1816.81 1888.5 1819.59C1902.59 1823.12 1918.24 1830.53 1930.94 1837.78C1934.36 1839.74 1936.75 1843.19 1940.03 1845.38C1942.85 1847.25 1946.48 1847.79 1949.12 1849.91C1957.8 1856.84 1964.42 1866.7 1971.88 1874.16C1972.67 1874.96 1972.43 1876.56 1973.38 1877.19C1975.24 1878.43 1994.63 1877.19 1997.62 1877.19C1999.65 1877.19 2002.26 1878.62 2003.69 1877.19C2004.82 1876.06 2004.5 1874.08 2005.22 1872.66C2010.4 1862.29 2009.17 1849.37 2011.28 1837.78C2014.24 1821.52 2023.29 1807.8 2027.94 1792.31C2032.2 1778.12 2030.92 1762.76 2034 1748.38C2035.95 1739.26 2040.81 1730.52 2041.59 1721.09C2042.57 1709.37 2040.96 1697.82 2040.06 1686.22C2039.14 1674.16 2040.92 1661.9 2040.06 1649.84C2038.9 1633.63 2033.89 1617.74 2035.53 1601.34C2037.89 1577.74 2040.94 1553.83 2043.09 1530.09C2044.94 1509.8 2037.53 1489.47 2035.53 1469.47C2034.83 1462.46 2036.17 1455.26 2035.53 1448.25C2035.06 1443.12 2033.35 1438.18 2032.5 1433.09C2029.8 1416.86 2034.54 1399.44 2032.5 1383.09C2031.63 1376.17 2028.6 1369.85 2026.44 1363.38C2024.75 1358.3 2025.51 1353.14 2023.41 1348.22C2022.07 1345.1 2019.51 1342.45 2018.84 1339.12C2016.61 1327.96 2014.01 1316.69 2011.28 1305.78C2009.85 1300.06 2011.21 1293.44 2009.75 1287.59C2009.2 1285.4 2007.27 1283.72 2006.72 1281.53C2005.48 1276.58 2004.93 1271.35 2003.69 1266.38C2002.77 1262.72 1998.52 1258.51 2000.66 1254.25C2003.04 1249.48 2011.56 1246.49 2015.81 1243.66L2002.31 1212.28C1990.97 1200.44 1981.08 1187.38 1966 1165.16C1965.25 1164.06 1962.28 1159.61 1961.53 1158.5C1955.01 1148.89 1950.93 1143.05 1946.66 1137.31C1940.7 1129.32 1938.09 1122.77 1933.88 1108.91C1933.64 1108.14 1933.52 1107.79 1933.41 1107.41C1930.91 1099.21 1929.51 1095.95 1928.16 1094.41C1928.09 1094.35 1928.05 1094.31 1927.94 1094.22C1927.47 1093.84 1925.35 1092.34 1925.19 1092.22C1919.59 1088.23 1916.55 1085.71 1912.91 1081.31C1880.2 1041.8 1852.84 990.079 1835.94 937.938C1834.59 933.788 1831.35 923.123 1831.31 923C1828.68 914.254 1827.48 910.423 1825.94 905.844C1824.51 901.623 1822.84 897.694 1820.62 893.188C1820.01 891.948 1813.97 880.348 1812.22 876.562C1807.41 866.152 1804.87 856.11 1804.62 845.312C1800.82 836.778 1798.48 827.807 1797.38 818C1796.47 809.956 1796.35 803.905 1796.56 790.688C1796.58 789.254 1796.61 788.6 1796.62 787.812C1796.75 778.781 1796.6 773.581 1795.97 768.656C1794.96 760.855 1797.66 753.497 1802.59 748.125L1749.06 623.75C1741.42 623.75 1738.22 633.732 1733.91 638.906C1727.92 646.093 1719.45 655.62 1711.19 660.125C1687.83 672.863 1663.08 679.14 1636.91 684.375C1624.37 686.883 1611.56 688.083 1599 690.438C1590.33 692.064 1581.98 695.252 1573.25 696.5C1554.27 699.211 1534.62 695.629 1515.66 698C1507.51 699.018 1498.42 698.874 1489.88 699.531C1483.31 700.036 1476.76 701.5 1470.19 701.031C1462.11 700.454 1454.04 699.531 1445.94 699.531C1430.16 699.531 1414.66 701.031 1398.94 701.031C1376.24 701.031 1353.55 699.531 1330.75 699.531C1327.21 699.531 1323.61 700.113 1320.12 699.531C1310.65 697.951 1303.83 689.984 1294.38 687.406C1285.27 684.922 1275.9 683.482 1267.09 679.812C1258.06 676.05 1250.25 670.16 1241.31 666.188C1231.5 661.825 1220.95 659.985 1211 655.562C1207.03 653.797 1204.09 650.303 1200.41 648C1196.19 645.363 1191.07 644.406 1186.75 641.938C1179.95 638.05 1175.37 633.559 1170.09 628.281C1166.58 624.767 1159.32 623.971 1154.94 622.219C1151.51 620.847 1148.17 618.722 1144.75 619.219Z" fill="#f1e5d0" fill-rule="evenodd" opacity="0.419231" stroke="none"/>
</g>
<g id="Capa-1" vectornator:layerName="Capa 1">
<path d="M1154.93 594.782C1154.93 541.302 1289.38 497.948 1455.23 497.948C1621.09 497.948 1755.54 541.302 1755.54 594.782C1755.54 648.262 1621.09 691.616 1455.23 691.616C1289.38 691.616 1154.93 648.262 1154.93 594.782Z" fill="none" fill-rule="evenodd" opacity="1" stroke="#e6ddcc" stroke-linecap="round" stroke-linejoin="round" stroke-width="54.7917"/>
<path d="M957.893 1904.28C957.893 1833.63 1189.51 1776.36 1475.23 1776.36C1760.95 1776.36 1992.57 1833.63 1992.57 1904.28C1992.57 1974.93 1760.95 2032.2 1475.23 2032.2C1189.51 2032.2 957.893 1974.93 957.893 1904.28Z" fill="none" fill-rule="evenodd" opacity="1" stroke="#e6ddcc" stroke-linecap="round" stroke-linejoin="round" stroke-width="54.7917"/>
</g>
</svg>
