<?xml version="1.0" encoding="UTF-8" standalone="no"?>
<!DOCTYPE svg PUBLIC "-//W3C//DTD SVG 1.1//EN" "http://www.w3.org/Graphics/SVG/1.1/DTD/svg11.dtd"
[
<!ATTLIST g
  xmlns:vectornator CDATA #FIXED "http://vectornator.io"
  vectornator:layerName CDATA #IMPLIED >
<!ATTLIST g
  xmlns:vectornator CDATA #FIXED "http://vectornator.io"
  vectornator:mask CDATA #IMPLIED >
<!ATTLIST text
  xmlns:vectornator CDATA #FIXED "http://vectornator.io"
  vectornator:width CDATA #IMPLIED >
<!ATTLIST text
  xmlns:vectornator CDATA #FIXED "http://vectornator.io"
  vectornator:text CDATA #IMPLIED >

<!ATTLIST path
  xmlns:vectornator CDATA #FIXED "http://vectornator.io"
  vectornator:blendMode CDATA #IMPLIED >
<!ATTLIST path
  xmlns:vectornator CDATA #FIXED "http://vectornator.io"
  vectornator:shadowColor CDATA #IMPLIED >
<!ATTLIST path
  xmlns:vectornator CDATA #FIXED "http://vectornator.io"
  vectornator:shadowOpacity CDATA #IMPLIED >
<!ATTLIST path
  xmlns:vectornator CDATA #FIXED "http://vectornator.io"
  vectornator:shadowRadius CDATA #IMPLIED >
<!ATTLIST path
  xmlns:vectornator CDATA #FIXED "http://vectornator.io"
  vectornator:shadowOffset CDATA #IMPLIED >
<!ATTLIST path
  xmlns:vectornator CDATA #FIXED "http://vectornator.io"
  vectornator:shadowAngle CDATA #IMPLIED >

<!ATTLIST image
  xmlns:vectornator CDATA #FIXED "http://vectornator.io"
  vectornator:blendMode CDATA #IMPLIED >
<!ATTLIST image
  xmlns:vectornator CDATA #FIXED "http://vectornator.io"
  vectornator:shadowColor CDATA #IMPLIED >
<!ATTLIST image
  xmlns:vectornator CDATA #FIXED "http://vectornator.io"
  vectornator:shadowOpacity CDATA #IMPLIED >
<!ATTLIST image
  xmlns:vectornator CDATA #FIXED "http://vectornator.io"
  vectornator:shadowRadius CDATA #IMPLIED >
<!ATTLIST image
  xmlns:vectornator CDATA #FIXED "http://vectornator.io"
  vectornator:shadowOffset CDATA #IMPLIED >
<!ATTLIST image
  xmlns:vectornator CDATA #FIXED "http://vectornator.io"
  vectornator:shadowAngle CDATA #IMPLIED >

<!ATTLIST g
  xmlns:vectornator CDATA #FIXED "http://vectornator.io"
  vectornator:blendMode CDATA #IMPLIED >
<!ATTLIST g
  xmlns:vectornator CDATA #FIXED "http://vectornator.io"
  vectornator:shadowColor CDATA #IMPLIED >
<!ATTLIST g
  xmlns:vectornator CDATA #FIXED "http://vectornator.io"
  vectornator:shadowOpacity CDATA #IMPLIED >
<!ATTLIST g
  xmlns:vectornator CDATA #FIXED "http://vectornator.io"
  vectornator:shadowRadius CDATA #IMPLIED >
<!ATTLIST g
  xmlns:vectornator CDATA #FIXED "http://vectornator.io"
  vectornator:shadowOffset CDATA #IMPLIED >
<!ATTLIST g
  xmlns:vectornator CDATA #FIXED "http://vectornator.io"
  vectornator:shadowAngle CDATA #IMPLIED >

<!ENTITY % SVG.filter.extra.content  "| feDropShadow" >
<!ELEMENT feDropShadow EMPTY>
<!ATTLIST feDropShadow
  xmlns:svg CDATA #FIXED "http://www.w3.org/Graphics/SVG/1.1/DTD/svg11.dtd"
  dx CDATA #IMPLIED>
<!ATTLIST feDropShadow
  xmlns:svg CDATA #FIXED "http://www.w3.org/Graphics/SVG/1.1/DTD/svg11.dtd"
  dy CDATA #IMPLIED>
<!ATTLIST feDropShadow
  xmlns:svg CDATA #FIXED "http://www.w3.org/Graphics/SVG/1.1/DTD/svg11.dtd"
  stdDeviation CDATA #IMPLIED>
<!ATTLIST feDropShadow
  xmlns:svg CDATA #FIXED "http://www.w3.org/Graphics/SVG/1.1/DTD/svg11.dtd"
  flood-opacity CDATA #IMPLIED>
<!ATTLIST feDropShadow
  xmlns:svg CDATA #FIXED "http://www.w3.org/Graphics/SVG/1.1/DTD/svg11.dtd"
  in CDATA #IMPLIED>
<!ATTLIST feDropShadow
  xmlns:svg CDATA #FIXED "http://www.w3.org/Graphics/SVG/1.1/DTD/svg11.dtd"
  result CDATA #IMPLIED>
<!ATTLIST feDropShadow
  xmlns:svg CDATA #FIXED "http://www.w3.org/Graphics/SVG/1.1/DTD/svg11.dtd"
  flood-color CDATA #IMPLIED>
]
>
<!-- Created with Vectornator (http://vectornator.io/) -->
<svg height="100%" stroke-miterlimit="10" style="fill-rule:nonzero;clip-rule:evenodd;stroke-linecap:round;stroke-linejoin:round;" version="1.1" viewBox="0 0 3370.82 2384.24" width="100%" xml:space="preserve" xmlns="http://www.w3.org/2000/svg" xmlns:vectornator="http://vectornator.io" xmlns:xlink="http://www.w3.org/1999/xlink">
<defs/>
<g id="Capa-2" vectornator:layerName="Capa 2">
<path d="M1383.66 522.098L1395.4 522.098C1487.08 522.098 1561.41 598.129 1561.41 691.917L1561.41 691.917C1561.41 785.705 1487.08 861.736 1395.4 861.736L1383.66 861.736C1291.97 861.736 1217.65 785.705 1217.65 691.917L1217.65 691.917C1217.65 598.129 1291.97 522.098 1383.66 522.098Z" fill="#bdbdbd" fill-rule="evenodd" opacity="1" stroke="none"/>
<path d="M1387.92 905.009C1218.25 906.429 1105.14 1064.83 1071.74 1227.12C1068.87 1241.06 1060.43 1309.43 1076.8 1309.43L1179.31 1309.69C1178.24 1271.73 1180.82 1233.89 1187.05 1189.3C1188.7 1177.48 1198.25 1168.81 1209.46 1168.12C1211.06 1168.02 1212.71 1168.09 1214.36 1168.33C1227.56 1170.26 1236.74 1182.76 1234.85 1196.27C1228.91 1238.83 1226.46 1274.3 1227.57 1309.82L1631.71 1310.8C1630.24 1295.61 1627.12 1278.41 1621.13 1250.35C1618.62 1238.61 1617.61 1233.61 1616.32 1227.12C1614.19 1216.38 1612.56 1207.05 1611.3 1198.03C1609.41 1184.52 1618.59 1171.97 1631.79 1170.05C1633.44 1169.8 1635.04 1169.73 1636.64 1169.83C1647.86 1170.52 1657.45 1179.19 1659.1 1191.01C1660.22 1198.98 1661.66 1207.41 1663.62 1217.28C1664.85 1223.46 1665.89 1228.32 1668.35 1239.82C1675.31 1272.47 1678.86 1292.18 1680.31 1310.88L1764.16 1311.1C1752.15 1279.72 1751.86 1175.73 1730.79 1136.2C1667.94 1018.34 1576.28 933.937 1442.33 909.758C1423.6 906.375 1405.47 904.862 1387.92 905.009Z" fill="#bdbdbd" fill-rule="evenodd" opacity="1" stroke="none"/>
<path d="M1743.4 1287.14C1747.65 1298.24 1753.37 1300.44 1762.01 1287.18L1743.4 1287.14Z" fill="#bdbdbd" fill-rule="evenodd" opacity="1" stroke="none"/>
<path d="M2246.03 101.252C2010.56 101.252 1819.68 253.333 1819.68 440.944C1819.68 507.25 1837.88 586.567 1884.88 621.357C1876.71 645.532 1867.46 652.524 1834.78 675.049C1792.62 704.102 1721.94 734.316 1721.94 734.316C1721.94 734.316 1806.79 775.152 1893.25 779.181C1969.43 782.732 2019.9 744.22 2051.88 743.33C2110.13 767.125 2176.07 780.636 2246.03 780.636C2481.49 780.636 2672.37 628.555 2672.37 440.944C2672.37 253.333 2481.49 101.252 2246.03 101.252Z" fill="#ffffff" fill-rule="evenodd" opacity="1" stroke="#b7b7b7" stroke-linecap="round" stroke-linejoin="round" stroke-width="5.43999"/>
</g>
<g id="Capa-1" vectornator:layerName="Capa 1">
<path d="M1063.42 1504.25L1800.88 1504.25C1812.89 1504.25 1822.63 1514.21 1822.63 1526.49L1822.63 2206.17C1822.63 2218.46 1812.89 2228.42 1800.88 2228.42L1063.42 2228.42C1051.41 2228.42 1041.67 2218.46 1041.67 2206.17L1041.67 1526.49C1041.67 1514.21 1051.41 1504.25 1063.42 1504.25Z" fill="#c2af89" fill-rule="evenodd" opacity="1" stroke="none"/>
<path d="M876.157 1278.07L1971.62 1278.07C1983.27 1278.07 1992.72 1288.03 1992.72 1300.32L1992.72 1504.83C1992.72 1517.11 1983.27 1527.07 1971.62 1527.07L876.157 1527.07C864.503 1527.07 855.055 1517.11 855.055 1504.83L855.055 1300.32C855.055 1288.03 864.503 1278.07 876.157 1278.07Z" fill="#c2af89" fill-rule="evenodd" opacity="1" stroke="none"/>
<path d="M1775.76 993.651L1808.61 993.651L1808.61 1277.92L1775.76 1277.92L1775.76 993.651Z" fill="#8a8a8a" fill-rule="evenodd" opacity="1" stroke="none"/>
<path d="M1655.11 917.711L1677.47 890.813L1809.58 997.201L1787.23 1024.1L1655.11 917.711Z" fill="#8a8a8a" fill-rule="evenodd" opacity="1" stroke="none"/>
<path d="M1588.41 844.625L1588.41 844.625C1598.76 830.589 1618.27 827.794 1631.99 838.382L1680.04 875.457C1693.76 886.044 1696.49 906.005 1686.14 920.041L1686.14 920.041C1675.79 934.076 1656.28 936.871 1642.56 926.283L1594.51 889.209C1580.79 878.621 1578.06 858.66 1588.41 844.625Z" fill="#4a4a4a" fill-rule="evenodd" opacity="1" stroke="none"/>
<path d="M1929.29 1017.84L1929.29 1017.84C1929.49 1017.84 1929.65 1018.01 1929.65 1018.22L1929.65 1019.42C1929.65 1019.62 1929.49 1019.79 1929.29 1019.79L1929.29 1019.79C1929.08 1019.79 1928.92 1019.62 1928.92 1019.42L1928.92 1018.22C1928.92 1018.01 1929.08 1017.84 1929.29 1017.84Z" fill="#8a8a8a" fill-rule="evenodd" opacity="1" stroke="none"/>
<path d="M1795.26 1044.79L1795.26 1044.79C1795.31 1044.79 1795.35 1044.83 1795.35 1044.88L1795.35 1046.55C1795.35 1046.6 1795.31 1046.64 1795.26 1046.64L1795.26 1046.64C1795.21 1046.64 1795.17 1046.6 1795.17 1046.55L1795.17 1044.88C1795.17 1044.83 1795.21 1044.79 1795.26 1044.79Z" fill="#8a8a8a" fill-rule="evenodd" opacity="1" stroke="none"/>
</g>
<g id="Capa-3" vectornator:layerName="Capa 3">
<path d="M1251.1 1609.7L1613.9 1609.7C1617.09 1609.7 1619.68 1612.34 1619.68 1615.61L1619.68 1847.78C1619.68 1851.04 1617.09 1853.69 1613.9 1853.69L1251.1 1853.69C1247.91 1853.69 1245.32 1851.04 1245.32 1847.78L1245.32 1615.61C1245.32 1612.34 1247.91 1609.7 1251.1 1609.7Z" fill="#ffffff" fill-rule="evenodd" opacity="1" stroke="none"/>
<path d="M1251.3 1746.46L1618.07 1746.46C1621.36 1746.46 1624.03 1749.56 1624.03 1753.39L1624.03 1885.62C1624.03 1889.44 1621.36 1892.54 1618.07 1892.54L1251.3 1892.54C1248.01 1892.54 1245.34 1889.44 1245.34 1885.62L1245.34 1753.39C1245.34 1749.56 1248.01 1746.46 1251.3 1746.46Z" fill="#ffbaba" fill-rule="evenodd" opacity="1" stroke="none"/>
<path d="M1248.05 1610.56L1395.49 1610.56C1398.75 1610.56 1401.4 1613.1 1401.4 1616.24L1401.4 1742.36C1401.4 1745.5 1398.75 1748.04 1395.49 1748.04L1248.05 1748.04C1244.79 1748.04 1242.15 1745.5 1242.15 1742.36L1242.15 1616.24C1242.15 1613.1 1244.79 1610.56 1248.05 1610.56Z" fill="#badfff" fill-rule="evenodd" opacity="1" stroke="none"/>
<path d="M1356.78 1722.01L1328.84 1708.09L1303.07 1724.12L1305.91 1692.21L1282.56 1670.6L1312.25 1664.8L1323.59 1635.42L1339.1 1663.74L1369.46 1667.19L1349.36 1690.5L1356.78 1722.01Z" fill="#ffffff" fill-rule="evenodd" opacity="1" stroke="none"/>
</g>
<g id="Capa-4" vectornator:layerName="Capa 4">
<path d="M2239.53 207.797L2242.22 207.797C2320.97 207.797 2384.81 271.634 2384.81 350.381L2384.81 350.381C2384.81 429.128 2320.97 492.965 2242.22 492.965L2239.53 492.965C2160.79 492.965 2096.95 429.128 2096.95 350.381L2096.95 350.381C2096.95 271.634 2160.79 207.797 2239.53 207.797Z" fill="none" fill-rule="evenodd" opacity="1" stroke="#a57cd6" stroke-linecap="round" stroke-linejoin="round" stroke-width="48.3634"/>
<path d="M2248.28 494.983L2252.31 679.939" fill="none" fill-rule="evenodd" opacity="1" stroke="#a57cd6" stroke-linecap="round" stroke-linejoin="round" stroke-width="48.3634"/>
<path d="M2162.19 599.231L2341.76 597.213" fill="none" fill-rule="evenodd" opacity="1" stroke="#a57cd6" stroke-linecap="round" stroke-linejoin="round" stroke-width="48.3634"/>
</g>
</svg>
