<svg id="Layer_1" data-name="Layer 1" xmlns="http://www.w3.org/2000/svg" viewBox="0 0 6671.22 541.95"><defs><style>.cls-1{fill:#f1c4ff;stroke:#1d1d1b;stroke-miterlimit:10;stroke-width:3px;}</style></defs><circle cx="897.62" cy="73.22" r="4.03"/><circle cx="1450.54" cy="38.19" r="4.03"/><polygon class="cls-1" points="6514.61 13.28 5963.2 40.85 5836.9 52.05 5722.96 65.77 5612.01 63.48 5499.95 58.73 5382.55 53.98 5275.46 50.22 5055.95 48.39 4716.33 130.94 4627.67 135.44 4516.58 139.54 4401.14 150.38 4296.7 150.15 4180.3 153.04 3953.35 163.07 3729.26 178.81 3622.03 185.16 3265.17 206.88 3161.04 209.52 1907.66 126.67 1570.36 145.37 1011.05 202.2 897.1 216.49 674.1 226.31 554.2 238.69 228.29 273.16 7.94 290.82 7.94 320.83 228.29 328.82 556.7 337.62 898.43 360.68 1227.8 369.02 1569.29 377.67 1912.34 395.19 3158.01 403.56 3265.17 406.2 3626.81 409.89 3733.86 414.23 3969.36 414.23 4300.57 422.37 4734.36 442.35 4734.34 441.41 5079.3 450.13 5275.46 459.62 6632.02 487.25 6632.02 30.4 6514.61 13.28"/><circle cx="2817.62" cy="73.22" r="4.03"/><circle cx="3370.54" cy="38.19" r="4.03"/><circle cx="2292.11" cy="125.88" r="4.03"/><circle cx="4737.62" cy="73.22" r="4.03"/><circle cx="5290.54" cy="38.19" r="4.03"/><circle cx="4212.11" cy="125.88" r="4.03"/><circle cx="6657.62" cy="73.22" r="4.03"/><circle cx="6132.11" cy="125.88" r="4.03"/></svg>