<svg id="Layer_1" data-name="Layer 1" xmlns="http://www.w3.org/2000/svg" viewBox="0 0 6671.22 610.13"><defs><style>.cls-1{fill:#f1c4ff;stroke-width:3px;}.cls-1,.cls-3{stroke:#8e9c96;stroke-miterlimit:10;}.cls-19,.cls-2,.cls-22,.cls-23,.cls-27,.cls-3,.cls-4,.cls-6{fill:#8e9c96;}.cls-3{stroke-width:0.75px;}.cls-4{font-size:15px;}.cls-19,.cls-23,.cls-27,.cls-4,.cls-6{font-family:Termina-Regular, Termina;}.cls-5{letter-spacing:-0.01em;}.cls-6{font-size:16px;}.cls-7{letter-spacing:-0.01em;}.cls-8{letter-spacing:0em;}.cls-9{letter-spacing:-0.01em;}.cls-10{letter-spacing:-0.01em;}.cls-11{letter-spacing:-0.02em;}.cls-12{letter-spacing:-0.01em;}.cls-13{letter-spacing:0em;}.cls-14{letter-spacing:-0.01em;}.cls-15{letter-spacing:-0.01em;}.cls-16{letter-spacing:-0.03em;}.cls-17{letter-spacing:0em;}.cls-18{letter-spacing:-0.06em;}.cls-19,.cls-22{font-size:15.88px;}.cls-20{letter-spacing:-0.01em;}.cls-21,.cls-22{font-family:MicrosoftSansSerif, Microsoft Sans Serif;}.cls-21{letter-spacing:0em;}.cls-23,.cls-27{font-size:14.14px;}.cls-23{letter-spacing:-0.01em;}.cls-24{letter-spacing:0em;}.cls-25{letter-spacing:-0.01em;}.cls-26{letter-spacing:-0.03em;}.cls-28{letter-spacing:-0.01em;}.cls-29{letter-spacing:-0.03em;}.cls-30{letter-spacing:-0.01em;}.cls-31{letter-spacing:0em;}.cls-32{letter-spacing:-0.03em;}.cls-33{letter-spacing:-0.01em;}.cls-34{letter-spacing:-0.1em;}.cls-35{letter-spacing:-0.06em;}.cls-36{letter-spacing:-0.06em;}</style></defs><path class="cls-1" d="M6516.51,112.36,6931.86-24.36,6490.62,1.37,6097.25,56l-388.53-6.57L5525,118.17l-459.47-32.3s-536,21.66-584.07,25.55c-47.56-6.5-210.71-24.73-259-28.51-76-12.35-146.9-20.94-205.66-32.07-41.62,47-97.18,99.09-142.23,149.86l-117,7.91L3222,240.28l-372,7.08-808.57,59.29-679.72-94.51L1103,241.68,901.92,281.27,676,325.39l-119.9,12.38-325.9,34.47L9.84,389.9v30l1237.43,35.45L1930.35,484l1612.49,27.91L5083,534.63l270.87,7.42,1280,44.28V129.48Z"/><circle class="cls-2" cx="302.61" cy="422.03" r="5.82"/><line class="cls-3" x1="4458.24" y1="78.62" x2="4458.24" y2="104.18"/><text class="cls-4" transform="translate(4429.92 74.84)">33<tspan class="cls-5" x="25.02" y="0">,</tspan><tspan x="28.81" y="0">9%</tspan></text><text class="cls-6" transform="matrix(0.86, -0.08, 0.09, 1, 23.38, 384.6)">uso a<tspan class="cls-7" x="53.17" y="0">n</tspan><tspan class="cls-8" x="65.63" y="0">ti</tspan><tspan class="cls-9" x="77.94" y="0">c</tspan><tspan x="89.3" y="0">on</tspan><tspan class="cls-9" x="114.35" y="0">c</tspan><tspan x="125.71" y="0">e</tspan><tspan class="cls-10" x="137.79" y="0">p</tspan><tspan x="150.38" y="0">ti</tspan><tspan class="cls-11" x="162.69" y="0">v</tspan><tspan x="173.61" y="0">os</tspan></text><text class="cls-6" transform="matrix(1.09, 0.03, -0.03, 1, 24.06, 437.65)">tasa n<tspan class="cls-12" x="60.38" y="0">a</tspan><tspan class="cls-13" x="72.16" y="0">talid</tspan><tspan class="cls-14" x="113.74" y="0">a</tspan><tspan x="125.52" y="0">d</tspan></text><line class="cls-3" x1="300.98" y1="336.49" x2="300.98" y2="362.05"/><text class="cls-4" transform="translate(291.01 334.34)">3%</text><text class="cls-4" transform="translate(-41.3 453.21)">3<tspan class="cls-15" x="12.51" y="0">4</tspan><tspan class="cls-16" x="25.19" y="0">,</tspan><tspan class="cls-17" x="28.68" y="0">6%</tspan></text><line class="cls-3" x1="300.93" y1="422.05" x2="300.93" y2="444.67"/><text class="cls-4" transform="translate(285.3 458.55)">33,3%</text><circle class="cls-2" cx="300.98" cy="366.72" r="13.11"/><circle class="cls-2" cx="300.98" cy="425.59" r="13.11"/><line class="cls-3" x1="675.99" y1="300.96" x2="675.99" y2="326.52"/><text class="cls-4" transform="translate(657.73 297.68)">13<tspan class="cls-18" x="19.26" y="0">,</tspan><tspan x="22.33" y="0">7%</tspan></text><circle class="cls-2" cx="675.99" cy="325.39" r="13.11"/><line class="cls-3" x1="676.2" y1="472.42" x2="676.2" y2="446.86"/><circle class="cls-2" cx="676.2" cy="446.86" r="13.11"/><text class="cls-4" transform="translate(659.44 486.03)">28,82%</text><line class="cls-3" x1="1098.66" y1="211.64" x2="1098.66" y2="237.2"/><text class="cls-19" transform="translate(1088.68 209.49)"><tspan class="cls-20">2</tspan><tspan x="12.73" y="0">4</tspan><tspan class="cls-21" x="26.36" y="0">%</tspan></text><circle class="cls-2" cx="1098.66" cy="242.47" r="13.11"/><line class="cls-3" x1="1102.75" y1="471.38" x2="1102.75" y2="440.02"/><circle class="cls-2" cx="1102.75" cy="445.61" r="13.11"/><text class="cls-4" transform="translate(1079.47 485.93)">25,28%</text><line class="cls-3" x1="1378.14" y1="180.7" x2="1378.14" y2="206.26"/><text class="cls-22" transform="translate(1368.17 176.48)">26%</text><circle class="cls-2" cx="1378.14" cy="214.77" r="13.11"/><line class="cls-3" x1="1378.24" y1="488.03" x2="1378.63" y2="458.55"/><circle class="cls-2" cx="1378.63" cy="458.55" r="13.11"/><text class="cls-23" transform="translate(1352 502.81)">2<tspan class="cls-24" x="11.33" y="0">3</tspan><tspan class="cls-25" x="23.12" y="0">,9</tspan><tspan class="cls-24" x="39.01" y="0">3%</tspan></text><line class="cls-3" x1="2041.45" y1="281.09" x2="2041.45" y2="306.65"/><text class="cls-4" transform="translate(2019.16 263.82)">15<tspan class="cls-26" x="19.23" y="0">,</tspan><tspan x="22.72" y="0">6%</tspan></text><circle class="cls-2" cx="2041.45" cy="306.65" r="13.11"/><line class="cls-3" x1="2047.93" y1="516.39" x2="2047.37" y2="490.84"/><circle class="cls-2" cx="2047.65" cy="492.26" r="13.11"/><text class="cls-27" transform="translate(2021.69 535.47)">22<tspan class="cls-28" x="22.99" y="0">,</tspan><tspan x="26.53" y="0">48%</tspan></text><line class="cls-3" x1="2865.82" y1="224.42" x2="2865.82" y2="249.98"/><text class="cls-4" transform="translate(2855.84 222.27)">20%</text><circle class="cls-2" cx="2865.82" cy="249.98" r="13.11"/><line class="cls-3" x1="2872.81" y1="520.34" x2="2872.24" y2="494.79"/><circle class="cls-2" cx="2872.24" cy="494.79" r="13.11"/><text class="cls-27" transform="translate(2846.29 538)">1<tspan class="cls-29" x="6.36" y="0">9</tspan><tspan x="18.4" y="0">,82%</tspan></text><line class="cls-3" x1="3207.88" y1="530.72" x2="3207.32" y2="505.17"/><circle class="cls-2" cx="3207.32" cy="505.17" r="13.11"/><text class="cls-27" transform="translate(3181.36 548.38)">18<tspan class="cls-30" x="18.85" y="0">,</tspan><tspan class="cls-31" x="22.38" y="0">42%</tspan></text><line class="cls-3" x1="3200.9" y1="217.49" x2="3200.9" y2="243.04"/><text class="cls-4" transform="translate(3191.4 209.67)">22%</text><circle class="cls-2" cx="3200.9" cy="243.04" r="13.11"/><line class="cls-3" x1="3674.25" y1="534.68" x2="3673.44" y2="499.89"/><circle class="cls-2" cx="3673.69" cy="509.14" r="13.11"/><text class="cls-27" transform="translate(3648.19 548.31)">15<tspan class="cls-32" x="18.13" y="0">,</tspan><tspan x="21.42" y="0">02%</tspan></text><circle class="cls-2" cx="3864.24" cy="513.79" r="13.11"/><text class="cls-27" transform="translate(3839.99 550.76)">1<tspan class="cls-28" x="6.36" y="0">4</tspan><tspan class="cls-25" x="18.31" y="0">,</tspan><tspan class="cls-24" x="21.89" y="0">91%</tspan></text><line class="cls-3" x1="3656.97" y1="193.88" x2="3656.97" y2="219.44"/><text class="cls-4" transform="translate(3644.9 188.54)"><tspan class="cls-33">2</tspan><tspan x="12.03" y="0">4%</tspan></text><circle class="cls-2" cx="3656.97" cy="219.44" r="13.11"/><line class="cls-3" x1="3864.24" y1="176.86" x2="3864.24" y2="202.42"/><text class="cls-4" transform="translate(3838.8 167.41)"><tspan class="cls-33">2</tspan><tspan class="cls-15" x="12.03" y="0">4</tspan><tspan x="24.71" y="0">,3%</tspan></text><circle class="cls-2" cx="3864.24" cy="201.83" r="13.11"/><line class="cls-3" x1="2288.33" y1="261.5" x2="2288.33" y2="287.06"/><text class="cls-4" transform="translate(2266.04 244.23)">1<tspan class="cls-34" x="6.75" y="0">7</tspan><tspan x="16.53" y="0">,8%</tspan></text><circle class="cls-2" cx="2288.33" cy="287.06" r="13.11"/><line class="cls-3" x1="2297.3" y1="518.7" x2="2296.74" y2="493.15"/><circle class="cls-2" cx="2294.27" cy="492.26" r="13.11"/><text class="cls-27" transform="translate(2268.31 535.47)">22,29%</text><line class="cls-3" x1="4176.48" y1="54.67" x2="4176.48" y2="80.22"/><text class="cls-4" transform="translate(4152.71 49.05)">3<tspan class="cls-15" x="12.51" y="0">4</tspan><tspan x="25.19" y="0">,3%</tspan></text><circle class="cls-2" cx="4173.56" cy="76.43" r="13.11"/><circle class="cls-2" cx="4461.08" cy="110.96" r="13.11"/><line class="cls-3" x1="4185.14" y1="532.99" x2="4158.69" y2="516.96"/><circle class="cls-2" cx="4160.45" cy="518.25" r="13.11"/><text class="cls-27" transform="translate(4188.43 541.53)">1<tspan class="cls-28" x="6.36" y="0">4</tspan><tspan class="cls-35" x="18.31" y="0">,</tspan><tspan class="cls-24" x="21.21" y="0">71%</tspan></text><line class="cls-3" x1="4792.31" y1="74.14" x2="4792.31" y2="99.69"/><text class="cls-4" transform="translate(4780.06 73.84)">34%</text><circle class="cls-2" cx="4793.3" cy="100.61" r="13.11"/><circle class="cls-2" cx="4454.51" cy="524.02" r="13.11"/><text class="cls-27" transform="translate(4475.09 541.35)">1<tspan class="cls-28" x="6.36" y="0">4</tspan><tspan class="cls-29" x="18.31" y="0">,</tspan><tspan x="21.61" y="0">61%</tspan></text><circle class="cls-2" cx="4785.4" cy="529.87" r="13.11"/><text class="cls-27" transform="translate(4814.31 545.55)">13<tspan class="cls-36" x="18.16" y="0">,</tspan><tspan x="21.05" y="0">7%</tspan></text><line class="cls-3" x1="5161.98" y1="66.33" x2="5161.98" y2="91.89"/><text class="cls-4" transform="translate(5151.39 63.19)">35%</text><circle class="cls-2" cx="5160.87" cy="91.89" r="13.11"/><line class="cls-3" x1="5348.67" y1="80.44" x2="5348.67" y2="105.99"/><text class="cls-4" transform="translate(5338.34 73.99)">32%</text><circle class="cls-2" cx="5348.67" cy="105.81" r="13.11"/><line class="cls-3" x1="3865.07" y1="538.12" x2="3865.07" y2="514.14"/><line class="cls-3" x1="4474.54" y1="537.09" x2="4448.09" y2="521.07"/><line class="cls-3" x1="4805.4" y1="541.6" x2="4778.95" y2="525.58"/><circle class="cls-2" cx="5152.97" cy="540.2" r="13.11"/><text class="cls-27" transform="translate(5181.87 555.88)">12<tspan class="cls-28" x="17.86" y="0">,</tspan><tspan x="21.39" y="0">43%</tspan></text><line class="cls-3" x1="5172.97" y1="551.94" x2="5146.51" y2="535.91"/><circle class="cls-2" cx="5349.02" cy="546.16" r="13.11"/><text class="cls-27" transform="translate(5377.92 561.84)">12,3%</text><line class="cls-3" x1="5369.01" y1="557.89" x2="5342.56" y2="541.87"/></svg>