<svg id="Layer_1" data-name="Layer 1" xmlns="http://www.w3.org/2000/svg" viewBox="0 0 7656.72 541.95"><defs><style>.cls-1{fill:#f1c4ff;stroke:#1d1d1b;stroke-miterlimit:10;stroke-width:3px;}</style></defs><circle cx="897.62" cy="73.22" r="4.03"/><circle cx="1450.54" cy="38.19" r="4.03"/><polygon class="cls-1" points="7523.19 31.43 6896.01 61.13 6752.35 73.19 6622.75 87.97 6496.56 85.51 6369.1 80.39 6235.57 75.28 6113.77 71.22 5864.09 69.25 5477.8 158.16 5376.97 163.02 5250.61 167.43 5119.3 179.11 5000.51 178.86 4868.12 181.97 4609.98 192.78 4355.1 209.72 4233.15 216.57 3827.25 239.96 3708.8 242.81 2283.2 153.57 1899.56 173.71 1263.39 234.92 1133.78 250.32 880.14 260.89 743.76 274.23 373.08 311.35 122.45 330.37 122.45 362.7 373.08 371.31 746.61 380.79 1135.3 405.63 1509.92 414.61 1898.34 423.92 2288.53 442.79 3705.36 451.81 3827.25 454.66 4238.57 458.63 4360.34 463.31 4628.2 463.31 5004.92 472.07 5498.31 493.59 5498.3 492.57 5890.65 501.97 6113.77 512.19 7656.72 541.95 7656.72 49.87 7523.19 31.43"/><circle cx="2817.62" cy="73.22" r="4.03"/><circle cx="3370.54" cy="38.19" r="4.03"/><circle cx="2292.11" cy="125.88" r="4.03"/><circle cx="4737.62" cy="73.22" r="4.03"/><circle cx="5290.54" cy="38.19" r="4.03"/><circle cx="4212.11" cy="125.88" r="4.03"/><circle cx="6657.62" cy="73.22" r="4.03"/><circle cx="7210.54" cy="38.19" r="4.03"/><circle cx="6132.11" cy="125.88" r="4.03"/></svg>