<?xml version="1.0" encoding="UTF-8" standalone="no"?>
<!DOCTYPE svg PUBLIC "-//W3C//DTD SVG 1.1//EN" "http://www.w3.org/Graphics/SVG/1.1/DTD/svg11.dtd"
[
<!ATTLIST g
  xmlns:vectornator CDATA #FIXED "http://vectornator.io"
  vectornator:layerName CDATA #IMPLIED >
<!ATTLIST g
  xmlns:vectornator CDATA #FIXED "http://vectornator.io"
  vectornator:mask CDATA #IMPLIED >
<!ATTLIST text
  xmlns:vectornator CDATA #FIXED "http://vectornator.io"
  vectornator:width CDATA #IMPLIED >
<!ATTLIST text
  xmlns:vectornator CDATA #FIXED "http://vectornator.io"
  vectornator:text CDATA #IMPLIED >

<!ATTLIST path
  xmlns:vectornator CDATA #FIXED "http://vectornator.io"
  vectornator:blendMode CDATA #IMPLIED >
<!ATTLIST path
  xmlns:vectornator CDATA #FIXED "http://vectornator.io"
  vectornator:shadowColor CDATA #IMPLIED >
<!ATTLIST path
  xmlns:vectornator CDATA #FIXED "http://vectornator.io"
  vectornator:shadowOpacity CDATA #IMPLIED >
<!ATTLIST path
  xmlns:vectornator CDATA #FIXED "http://vectornator.io"
  vectornator:shadowRadius CDATA #IMPLIED >
<!ATTLIST path
  xmlns:vectornator CDATA #FIXED "http://vectornator.io"
  vectornator:shadowOffset CDATA #IMPLIED >
<!ATTLIST path
  xmlns:vectornator CDATA #FIXED "http://vectornator.io"
  vectornator:shadowAngle CDATA #IMPLIED >

<!ATTLIST image
  xmlns:vectornator CDATA #FIXED "http://vectornator.io"
  vectornator:blendMode CDATA #IMPLIED >
<!ATTLIST image
  xmlns:vectornator CDATA #FIXED "http://vectornator.io"
  vectornator:shadowColor CDATA #IMPLIED >
<!ATTLIST image
  xmlns:vectornator CDATA #FIXED "http://vectornator.io"
  vectornator:shadowOpacity CDATA #IMPLIED >
<!ATTLIST image
  xmlns:vectornator CDATA #FIXED "http://vectornator.io"
  vectornator:shadowRadius CDATA #IMPLIED >
<!ATTLIST image
  xmlns:vectornator CDATA #FIXED "http://vectornator.io"
  vectornator:shadowOffset CDATA #IMPLIED >
<!ATTLIST image
  xmlns:vectornator CDATA #FIXED "http://vectornator.io"
  vectornator:shadowAngle CDATA #IMPLIED >

<!ATTLIST g
  xmlns:vectornator CDATA #FIXED "http://vectornator.io"
  vectornator:blendMode CDATA #IMPLIED >
<!ATTLIST g
  xmlns:vectornator CDATA #FIXED "http://vectornator.io"
  vectornator:shadowColor CDATA #IMPLIED >
<!ATTLIST g
  xmlns:vectornator CDATA #FIXED "http://vectornator.io"
  vectornator:shadowOpacity CDATA #IMPLIED >
<!ATTLIST g
  xmlns:vectornator CDATA #FIXED "http://vectornator.io"
  vectornator:shadowRadius CDATA #IMPLIED >
<!ATTLIST g
  xmlns:vectornator CDATA #FIXED "http://vectornator.io"
  vectornator:shadowOffset CDATA #IMPLIED >
<!ATTLIST g
  xmlns:vectornator CDATA #FIXED "http://vectornator.io"
  vectornator:shadowAngle CDATA #IMPLIED >

<!ENTITY % SVG.filter.extra.content  "| feDropShadow" >
<!ELEMENT feDropShadow EMPTY>
<!ATTLIST feDropShadow
  xmlns:svg CDATA #FIXED "http://www.w3.org/Graphics/SVG/1.1/DTD/svg11.dtd"
  dx CDATA #IMPLIED>
<!ATTLIST feDropShadow
  xmlns:svg CDATA #FIXED "http://www.w3.org/Graphics/SVG/1.1/DTD/svg11.dtd"
  dy CDATA #IMPLIED>
<!ATTLIST feDropShadow
  xmlns:svg CDATA #FIXED "http://www.w3.org/Graphics/SVG/1.1/DTD/svg11.dtd"
  stdDeviation CDATA #IMPLIED>
<!ATTLIST feDropShadow
  xmlns:svg CDATA #FIXED "http://www.w3.org/Graphics/SVG/1.1/DTD/svg11.dtd"
  flood-opacity CDATA #IMPLIED>
<!ATTLIST feDropShadow
  xmlns:svg CDATA #FIXED "http://www.w3.org/Graphics/SVG/1.1/DTD/svg11.dtd"
  in CDATA #IMPLIED>
<!ATTLIST feDropShadow
  xmlns:svg CDATA #FIXED "http://www.w3.org/Graphics/SVG/1.1/DTD/svg11.dtd"
  result CDATA #IMPLIED>
<!ATTLIST feDropShadow
  xmlns:svg CDATA #FIXED "http://www.w3.org/Graphics/SVG/1.1/DTD/svg11.dtd"
  flood-color CDATA #IMPLIED>
]
>
<!-- Created with Vectornator (http://vectornator.io/) -->
<svg height="100%" stroke-miterlimit="10" style="fill-rule:nonzero;clip-rule:evenodd;stroke-linecap:round;stroke-linejoin:round;" version="1.1" viewBox="0 0 3370.82 2384.24" width="100%" xml:space="preserve" xmlns="http://www.w3.org/2000/svg" xmlns:vectornator="http://vectornator.io" xmlns:xlink="http://www.w3.org/1999/xlink">
<defs/>
<g id="Capa-2" vectornator:layerName="Capa 2">
<path d="M1754.96 1447.59C1744.16 1435.28 1736.65 1427.33 1718.87 1423.71C1686.83 1417.2 1672.04 1434.36 1664.82 1461.08C1662.41 1470 1660.86 1479.92 1664.42 1488.81C1667.74 1497.11 1681.04 1508.62 1687.87 1514C1690.47 1516.05 1695.06 1517.48 1698.33 1517.29C1700.25 1517.18 1705.53 1518.23 1704.09 1516.95C1685.57 1500.5 1667.82 1479.74 1674.93 1453.41C1676.14 1448.93 1677.14 1444.39 1681.01 1441.37C1702.07 1424.92 1730.58 1432.3 1745.81 1451.73C1748.59 1455.27 1758.74 1467.72 1755.96 1471.92" fill="none" fill-rule="evenodd" opacity="1" stroke="#c0c0c0" stroke-linecap="round" stroke-linejoin="round" stroke-width="12.9957"/>
<path d="M1716.73 1604.29C1725.75 1602.8 1733.18 1593.09 1739.47 1587.21C1752.31 1575.21 1771.61 1553.04 1771.46 1533.69C1771.17 1496.4 1743.46 1456.62 1703.69 1469.17" fill="none" fill-rule="evenodd" opacity="1" stroke="#8a8a8a" stroke-linecap="round" stroke-linejoin="round" stroke-width="12.9957"/>
</g>
<g id="Capa-1" vectornator:layerName="Capa 1">
<path d="M1703.01 386.568C1672.07 386.568 1646.96 423.154 1646.96 468.272L1646.96 1392.79C1646.96 1420.21 1656.26 1444.46 1670.48 1459.27C1671.74 1453.25 1674.41 1447.85 1678.06 1443.36C1680.54 1440.31 1683.53 1437.66 1686.93 1435.46C1693.1 1430.11 1701.06 1427.58 1708.92 1428.21C1714.66 1428.68 1720.3 1430.79 1725.14 1434.66C1732.02 1440.15 1735.79 1447.04 1737.98 1454.68C1738.12 1455.18 1738.15 1455.71 1738.27 1456.21C1750.92 1441.23 1759.02 1418.39 1759.02 1392.79L1759.02 468.272C1759.02 423.153 1733.95 386.568 1703.01 386.568Z" fill="#dedede" fill-rule="evenodd" opacity="1" stroke="#e7c998" stroke-linecap="round" stroke-linejoin="round" stroke-width="0.382744"/>
<path d="M2525.75 1367.91L2523.88 1603.72L2526.41 1368.22C2526.18 1368.12 2525.97 1368.01 2525.75 1367.91Z" fill="#dedede" fill-rule="evenodd" opacity="1" stroke="#e7c998" stroke-linecap="round" stroke-linejoin="round" stroke-width="0.382744"/>
<path d="M1686.66 414.183C1686.66 414.183 1634.68 295.532 1507.29 244.218C1379.89 192.905 1309.94 178.242 1174.05 198.194C1038.16 218.146 966.132 266.818 966.132 266.818C966.132 266.818 851.222 347.281 852.225 404.488C853.229 461.694 915.191 505.122 970.146 495.644C1025.1 486.167 978.265 402.864 1045.21 353.638C1112.15 304.412 1140.27 300.993 1237.91 298.741C1335.55 296.49 1353 303.392 1435.46 328.067C1488.07 343.808 1547.61 379.614 1584.18 422.901C1624.75 470.912 1624.05 546.159 1624.05 546.159L1701.02 492.021" fill="#dedede" fill-rule="evenodd" opacity="1" stroke="#e7c998" stroke-linecap="round" stroke-linejoin="round" stroke-width="0.382744"/>
<path d="M2082.72 194.531C2002.82 193.188 1941.95 211.501 1849.97 250.719C1727.33 303.01 1677.34 422.312 1677.34 422.312L1663.56 500.469L1737.72 554.219C1737.72 554.219 1737 478.78 1776.03 430.375C1811.22 386.733 1868.54 350.444 1919.19 334.312C1998.58 309.028 2015.35 302.014 2109.38 303.625C2203.4 305.236 2230.51 308.464 2295 357.375C2359.49 406.286 2314.45 490.112 2367.38 499.25C2420.3 508.388 2479.95 464.456 2480.88 407.094C2481.8 349.731 2371.09 269.812 2371.09 269.812C2371.09 269.812 2301.68 221.479 2170.81 202.375C2138.1 197.599 2109.35 194.979 2082.72 194.531Z" fill="#dedede" fill-rule="evenodd" opacity="1" stroke="#e7c998" stroke-linecap="round" stroke-linejoin="round" stroke-width="0.382744"/>
<path d="M1606.55 509.692L1770.61 509.692C1792.07 509.692 1809.46 527.061 1809.46 548.486L1809.46 548.486C1809.46 569.912 1792.07 587.28 1770.61 587.28L1606.55 587.28C1585.09 587.28 1567.69 569.912 1567.69 548.486L1567.69 548.486C1567.69 527.061 1585.09 509.692 1606.55 509.692Z" fill="#c0c0c0" fill-rule="evenodd" opacity="1" stroke="#e7c998" stroke-linecap="round" stroke-linejoin="round" stroke-width="0.382744"/>
<path d="M1623.24 585.285L1754.32 585.285C1761.81 585.285 1767.88 591.401 1767.88 598.947L1767.88 598.947C1767.88 606.493 1761.81 612.609 1754.32 612.609L1623.24 612.609C1615.75 612.609 1609.68 606.493 1609.68 598.947L1609.68 598.947C1609.68 591.401 1615.75 585.285 1623.24 585.285Z" fill="#daa767" fill-rule="evenodd" opacity="1" stroke="#b88229" stroke-linecap="round" stroke-linejoin="round" stroke-width="11.9598"/>
<path d="M1623.83 613.858L1754.91 613.858C1762.4 613.858 1768.47 619.975 1768.47 627.521L1768.47 627.521C1768.47 635.066 1762.4 641.183 1754.91 641.183L1623.83 641.183C1616.34 641.183 1610.27 635.066 1610.27 627.521L1610.27 627.521C1610.27 619.975 1616.34 613.858 1623.83 613.858Z" fill="#daa767" fill-rule="evenodd" opacity="1" stroke="#b88229" stroke-linecap="round" stroke-linejoin="round" stroke-width="11.9598"/>
<path d="M1626.37 641.05L1757.45 641.05C1764.94 641.05 1771.01 647.167 1771.01 654.712L1771.01 654.712C1771.01 662.258 1764.94 668.375 1757.45 668.375L1626.37 668.375C1618.88 668.375 1612.81 662.258 1612.81 654.712L1612.81 654.712C1612.81 647.167 1618.88 641.05 1626.37 641.05Z" fill="#daa767" fill-rule="evenodd" opacity="1" stroke="#b88229" stroke-linecap="round" stroke-linejoin="round" stroke-width="11.9598"/>
<path d="M1627.15 669.8L1758.23 669.8C1765.72 669.8 1771.79 675.917 1771.79 683.462L1771.79 683.462C1771.79 691.008 1765.72 697.125 1758.23 697.125L1627.15 697.125C1619.66 697.125 1613.59 691.008 1613.59 683.462L1613.59 683.462C1613.59 675.917 1619.66 669.8 1627.15 669.8Z" fill="#daa767" fill-rule="evenodd" opacity="1" stroke="#b88229" stroke-linecap="round" stroke-linejoin="round" stroke-width="11.9598"/>
<path d="M1626.15 696.559L1757.23 696.559C1764.72 696.559 1770.79 702.676 1770.79 710.221L1770.79 710.221C1770.79 717.767 1764.72 723.884 1757.23 723.884L1626.15 723.884C1618.66 723.884 1612.59 717.767 1612.59 710.221L1612.59 710.221C1612.59 702.676 1618.66 696.559 1626.15 696.559Z" fill="#daa767" fill-rule="evenodd" opacity="1" stroke="#b88229" stroke-linecap="round" stroke-linejoin="round" stroke-width="11.9598"/>
<path d="M1627.87 725.122L1758.95 725.122C1766.44 725.122 1772.51 731.239 1772.51 738.784L1772.51 738.784C1772.51 746.33 1766.44 752.447 1758.95 752.447L1627.87 752.447C1620.38 752.447 1614.31 746.33 1614.31 738.784L1614.31 738.784C1614.31 731.239 1620.38 725.122 1627.87 725.122Z" fill="#daa767" fill-rule="evenodd" opacity="1" stroke="#b88229" stroke-linecap="round" stroke-linejoin="round" stroke-width="11.9598"/>
<path d="M1627.74 753.502L1758.82 753.502C1766.3 753.502 1772.38 759.619 1772.38 767.165L1772.38 767.165C1772.38 774.71 1766.3 780.827 1758.82 780.827L1627.74 780.827C1620.25 780.827 1614.18 774.71 1614.18 767.165L1614.18 767.165C1614.18 759.619 1620.25 753.502 1627.74 753.502Z" fill="#daa767" fill-rule="evenodd" opacity="1" stroke="#b88229" stroke-linecap="round" stroke-linejoin="round" stroke-width="11.9598"/>
<path d="M1629.6 784.21L1760.68 784.21C1768.17 784.21 1774.24 790.326 1774.24 797.872L1774.24 797.872C1774.24 805.418 1768.17 811.534 1760.68 811.534L1629.6 811.534C1622.11 811.534 1616.04 805.418 1616.04 797.872L1616.04 797.872C1616.04 790.326 1622.11 784.21 1629.6 784.21Z" fill="#daa767" fill-rule="evenodd" opacity="1" stroke="#b88229" stroke-linecap="round" stroke-linejoin="round" stroke-width="11.9598"/>
<path d="M1630.19 812.783L1761.27 812.783C1768.76 812.783 1774.83 818.9 1774.83 826.446L1774.83 826.446C1774.83 833.991 1768.76 840.108 1761.27 840.108L1630.19 840.108C1622.7 840.108 1616.63 833.991 1616.63 826.446L1616.63 826.446C1616.63 818.9 1622.7 812.783 1630.19 812.783Z" fill="#daa767" fill-rule="evenodd" opacity="1" stroke="#b88229" stroke-linecap="round" stroke-linejoin="round" stroke-width="11.9598"/>
<path d="M1632.73 839.975L1763.81 839.975C1771.3 839.975 1777.37 846.092 1777.37 853.637L1777.37 853.637C1777.37 861.183 1771.3 867.3 1763.81 867.3L1632.73 867.3C1625.24 867.3 1619.17 861.183 1619.17 853.637L1619.17 853.637C1619.17 846.092 1625.24 839.975 1632.73 839.975Z" fill="#daa767" fill-rule="evenodd" opacity="1" stroke="#b88229" stroke-linecap="round" stroke-linejoin="round" stroke-width="11.9598"/>
<path d="M1633.51 868.725L1764.59 868.725C1772.08 868.725 1778.15 874.842 1778.15 882.387L1778.15 882.387C1778.15 889.933 1772.08 896.05 1764.59 896.05L1633.51 896.05C1626.02 896.05 1619.95 889.933 1619.95 882.387L1619.95 882.387C1619.95 874.842 1626.02 868.725 1633.51 868.725Z" fill="#daa767" fill-rule="evenodd" opacity="1" stroke="#b88229" stroke-linecap="round" stroke-linejoin="round" stroke-width="11.9598"/>
<path d="M1632.51 895.484L1763.59 895.484C1771.08 895.484 1777.15 901.601 1777.15 909.146L1777.15 909.146C1777.15 916.692 1771.08 922.809 1763.59 922.809L1632.51 922.809C1625.02 922.809 1618.95 916.692 1618.95 909.146L1618.95 909.146C1618.95 901.601 1625.02 895.484 1632.51 895.484Z" fill="#daa767" fill-rule="evenodd" opacity="1" stroke="#b88229" stroke-linecap="round" stroke-linejoin="round" stroke-width="11.9598"/>
<path d="M1634.23 924.047L1765.31 924.047C1772.8 924.047 1778.87 930.164 1778.87 937.709L1778.87 937.709C1778.87 945.255 1772.8 951.372 1765.31 951.372L1634.23 951.372C1626.74 951.372 1620.67 945.255 1620.67 937.709L1620.67 937.709C1620.67 930.164 1626.74 924.047 1634.23 924.047Z" fill="#daa767" fill-rule="evenodd" opacity="1" stroke="#b88229" stroke-linecap="round" stroke-linejoin="round" stroke-width="11.9598"/>
<path d="M1634.1 952.427L1765.18 952.427C1772.66 952.427 1778.74 958.544 1778.74 966.09L1778.74 966.09C1778.74 973.635 1772.66 979.752 1765.18 979.752L1634.1 979.752C1626.61 979.752 1620.54 973.635 1620.54 966.09L1620.54 966.09C1620.54 958.544 1626.61 952.427 1634.1 952.427Z" fill="#daa767" fill-rule="evenodd" opacity="1" stroke="#b88229" stroke-linecap="round" stroke-linejoin="round" stroke-width="11.9598"/>
<path d="M1634.44 977.659L1765.52 977.659C1773.01 977.659 1779.08 983.776 1779.08 991.321L1779.08 991.321C1779.08 998.867 1773.01 1004.98 1765.52 1004.98L1634.44 1004.98C1626.95 1004.98 1620.88 998.867 1620.88 991.321L1620.88 991.321C1620.88 983.776 1626.95 977.659 1634.44 977.659Z" fill="#daa767" fill-rule="evenodd" opacity="1" stroke="#b88229" stroke-linecap="round" stroke-linejoin="round" stroke-width="11.9598"/>
<path d="M1635.02 1006.23L1766.1 1006.23C1773.59 1006.23 1779.66 1012.35 1779.66 1019.9L1779.66 1019.9C1779.66 1027.44 1773.59 1033.56 1766.1 1033.56L1635.02 1033.56C1627.53 1033.56 1621.46 1027.44 1621.46 1019.9L1621.46 1019.9C1621.46 1012.35 1627.53 1006.23 1635.02 1006.23Z" fill="#daa767" fill-rule="evenodd" opacity="1" stroke="#b88229" stroke-linecap="round" stroke-linejoin="round" stroke-width="11.9598"/>
<path d="M1637.57 1033.42L1768.64 1033.42C1776.13 1033.42 1782.2 1039.54 1782.2 1047.09L1782.2 1047.09C1782.2 1054.63 1776.13 1060.75 1768.64 1060.75L1637.57 1060.75C1630.08 1060.75 1624.01 1054.63 1624.01 1047.09L1624.01 1047.09C1624.01 1039.54 1630.08 1033.42 1637.57 1033.42Z" fill="#daa767" fill-rule="evenodd" opacity="1" stroke="#b88229" stroke-linecap="round" stroke-linejoin="round" stroke-width="11.9598"/>
<path d="M1638.35 1062.17L1769.42 1062.17C1776.91 1062.17 1782.98 1068.29 1782.98 1075.84L1782.98 1075.84C1782.98 1083.38 1776.91 1089.5 1769.42 1089.5L1638.35 1089.5C1630.86 1089.5 1624.79 1083.38 1624.79 1075.84L1624.79 1075.84C1624.79 1068.29 1630.86 1062.17 1638.35 1062.17Z" fill="#daa767" fill-rule="evenodd" opacity="1" stroke="#b88229" stroke-linecap="round" stroke-linejoin="round" stroke-width="11.9598"/>
<path d="M1637.35 1088.93L1768.42 1088.93C1775.91 1088.93 1781.98 1095.05 1781.98 1102.6L1781.98 1102.6C1781.98 1110.14 1775.91 1116.26 1768.42 1116.26L1637.35 1116.26C1629.86 1116.26 1623.79 1110.14 1623.79 1102.6L1623.79 1102.6C1623.79 1095.05 1629.86 1088.93 1637.35 1088.93Z" fill="#daa767" fill-rule="evenodd" opacity="1" stroke="#b88229" stroke-linecap="round" stroke-linejoin="round" stroke-width="11.9598"/>
<path d="M1639.06 1117.5L1770.14 1117.5C1777.63 1117.5 1783.7 1123.61 1783.7 1131.16L1783.7 1131.16C1783.7 1138.7 1777.63 1144.82 1770.14 1144.82L1639.06 1144.82C1631.57 1144.82 1625.5 1138.7 1625.5 1131.16L1625.5 1131.16C1625.5 1123.61 1631.57 1117.5 1639.06 1117.5Z" fill="#daa767" fill-rule="evenodd" opacity="1" stroke="#b88229" stroke-linecap="round" stroke-linejoin="round" stroke-width="11.9598"/>
<path d="M1640.41 1139.99L1771.48 1139.99C1778.97 1139.99 1785.04 1146.11 1785.04 1153.66L1785.04 1153.66C1785.04 1161.2 1778.97 1167.32 1771.48 1167.32L1640.41 1167.32C1632.92 1167.32 1626.85 1161.2 1626.85 1153.66L1626.85 1153.66C1626.85 1146.11 1632.92 1139.99 1640.41 1139.99Z" fill="#daa767" fill-rule="evenodd" opacity="1" stroke="#b88229" stroke-linecap="round" stroke-linejoin="round" stroke-width="11.9598"/>
<path d="M1638.87 1164.99L1769.95 1164.99C1777.44 1164.99 1783.51 1171.11 1783.51 1178.66L1783.51 1178.66C1783.51 1186.2 1777.44 1192.32 1769.95 1192.32L1638.87 1192.32C1631.38 1192.32 1625.31 1186.2 1625.31 1178.66L1625.31 1178.66C1625.31 1171.11 1631.38 1164.99 1638.87 1164.99Z" fill="#daa767" fill-rule="evenodd" opacity="1" stroke="#b88229" stroke-linecap="round" stroke-linejoin="round" stroke-width="11.9598"/>
<path d="M1639.46 1193.57L1770.54 1193.57C1778.03 1193.57 1784.1 1199.69 1784.1 1207.23L1784.1 1207.23C1784.1 1214.78 1778.03 1220.89 1770.54 1220.89L1639.46 1220.89C1631.97 1220.89 1625.9 1214.78 1625.9 1207.23L1625.9 1207.23C1625.9 1199.69 1631.97 1193.57 1639.46 1193.57Z" fill="#daa767" fill-rule="evenodd" opacity="1" stroke="#b88229" stroke-linecap="round" stroke-linejoin="round" stroke-width="11.9598"/>
<path d="M1642 1220.76L1773.08 1220.76C1780.57 1220.76 1786.64 1226.88 1786.64 1234.42L1786.64 1234.42C1786.64 1241.97 1780.57 1248.08 1773.08 1248.08L1642 1248.08C1634.51 1248.08 1628.44 1241.97 1628.44 1234.42L1628.44 1234.42C1628.44 1226.88 1634.51 1220.76 1642 1220.76Z" fill="#daa767" fill-rule="evenodd" opacity="1" stroke="#b88229" stroke-linecap="round" stroke-linejoin="round" stroke-width="11.9598"/>
<path d="M1642.78 1249.51L1773.86 1249.51C1781.35 1249.51 1787.42 1255.63 1787.42 1263.17L1787.42 1263.17C1787.42 1270.72 1781.35 1276.83 1773.86 1276.83L1642.78 1276.83C1635.29 1276.83 1629.22 1270.72 1629.22 1263.17L1629.22 1263.17C1629.22 1255.63 1635.29 1249.51 1642.78 1249.51Z" fill="#daa767" fill-rule="evenodd" opacity="1" stroke="#b88229" stroke-linecap="round" stroke-linejoin="round" stroke-width="11.9598"/>
<path d="M1641.78 1276.27L1772.86 1276.27C1780.35 1276.27 1786.42 1282.39 1786.42 1289.93L1786.42 1289.93C1786.42 1297.48 1780.35 1303.59 1772.86 1303.59L1641.78 1303.59C1634.29 1303.59 1628.22 1297.48 1628.22 1289.93L1628.22 1289.93C1628.22 1282.39 1634.29 1276.27 1641.78 1276.27Z" fill="#daa767" fill-rule="evenodd" opacity="1" stroke="#b88229" stroke-linecap="round" stroke-linejoin="round" stroke-width="11.9598"/>
<path d="M1643.5 1304.83L1774.58 1304.83C1782.07 1304.83 1788.14 1310.95 1788.14 1318.49L1788.14 1318.49C1788.14 1326.04 1782.07 1332.16 1774.58 1332.16L1643.5 1332.16C1636.01 1332.16 1629.94 1326.04 1629.94 1318.49L1629.94 1318.49C1629.94 1310.95 1636.01 1304.83 1643.5 1304.83Z" fill="#daa767" fill-rule="evenodd" opacity="1" stroke="#b88229" stroke-linecap="round" stroke-linejoin="round" stroke-width="11.9598"/>
<path d="M1643.37 1333.21L1774.45 1333.21C1781.93 1333.21 1788 1339.33 1788 1346.87L1788 1346.87C1788 1354.42 1781.93 1360.54 1774.45 1360.54L1643.37 1360.54C1635.88 1360.54 1629.81 1354.42 1629.81 1346.87L1629.81 1346.87C1629.81 1339.33 1635.88 1333.21 1643.37 1333.21Z" fill="#daa767" fill-rule="evenodd" opacity="1" stroke="#b88229" stroke-linecap="round" stroke-linejoin="round" stroke-width="11.9598"/>
<path d="M1707.6 1367.19C1656.35 1367.19 1614.83 1408.65 1614.83 1459.82L1614.83 1471.69C1614.83 1522.85 1656.35 1564.35 1707.6 1564.35C1758.85 1564.35 1800.41 1522.85 1800.41 1471.69L1800.41 1459.82C1800.41 1408.65 1758.85 1367.19 1707.6 1367.19ZM1708.92 1428.21C1714.66 1428.68 1720.3 1430.79 1725.14 1434.66C1732.02 1440.15 1735.79 1447.04 1737.98 1454.68C1739.47 1459.91 1740.12 1465.57 1739.84 1470.96C1739.66 1474.39 1739.13 1477.79 1738.05 1481.19C1736.29 1486.77 1733.3 1492 1728.24 1496.45C1720.87 1502.93 1710.96 1505.67 1701.26 1503.87C1694.56 1502.63 1689.2 1499.64 1684.59 1495.61C1684.15 1495.22 1683.88 1494.71 1683.46 1494.3C1680.66 1492.01 1678.22 1489.28 1676.35 1486.03C1670.91 1478.76 1668.76 1469.9 1670.04 1461.27C1671.06 1454.42 1674.01 1448.35 1678.06 1443.36C1680.54 1440.31 1683.53 1437.66 1686.93 1435.46C1693.1 1430.11 1701.06 1427.58 1708.92 1428.21Z" fill="#dedede" fill-rule="evenodd" opacity="1" stroke="none"/>
<path d="M1704.8 1466.59L1703.91 1467.82L1702.56 1467.61L1701 1468.74L1699.44 1469.87L1697.88 1471L1697.88 1471" fill="none" fill-rule="evenodd" opacity="1" stroke="#8a8a8a" stroke-linecap="round" stroke-linejoin="round" stroke-width="12.9957"/>
<path d="M1691.18 1474.08C1687.07 1481.97 1679.45 1485.98 1676.76 1495.23C1664.8 1536.48 1677.6 1582.33 1713.39 1607.9" fill="none" fill-rule="evenodd" opacity="1" stroke="#8a8a8a" stroke-linecap="round" stroke-linejoin="round" stroke-width="12.9957"/>
<path d="M1716.4 1612.86C1707.79 1609.67 1700.11 1621.73 1710.05 1624.6C1718.17 1626.95 1727.73 1617.05 1716.4 1612.86Z" fill="none" fill-rule="evenodd" opacity="1" stroke="#8a8a8a" stroke-linecap="round" stroke-linejoin="round" stroke-width="12.9957"/>
<path d="M1714.73 1631.71C1668.98 1649.25 1660.54 1707.43 1656.2 1751.97C1649.01 1825.71 1671.25 1905.11 1678.76 1979.65C1681.24 2004.18 1684.1 2030.65 1683.6 2055.28C1682.99 2085.04 1672.37 2116.48 1676.78 2146.04" fill="none" fill-rule="evenodd" opacity="1" stroke="#8a8a8a" stroke-linecap="round" stroke-linejoin="round" stroke-width="12.9957"/>
<path d="M1722.98 1630.48C1734.3 1631.58 1741.99 1654.67 1744.03 1665.03C1751.45 1702.66 1751.18 1743.85 1755.02 1781.89C1762.4 1855.08 1755.47 1927.72 1753.98 2001.18C1752.87 2055.59 1738.33 2114.02 1754.01 2167.76C1759.14 2185.35 1769.72 2218.17 1786.81 2227.83C1795.5 2232.74 1814.69 2234.74 1817.89 2243.04" fill="none" fill-rule="evenodd" opacity="1" stroke="#8a8a8a" stroke-linecap="round" stroke-linejoin="round" stroke-width="12.9957"/>
</g>
</svg>
